<mxfile host="app.diagrams.net" modified="2024-05-02T20:35:12.116Z" agent="Mozilla/5.0 (Windows NT 10.0; Win64; x64; rv:125.0) Gecko/20100101 Firefox/125.0" etag="ZC7iJPEParRhVdNwwlav" version="24.2.7" type="google">
  <diagram name="Page-1" id="SwlohTUiKM-PIAPcuaNP">
    <mxGraphModel grid="0" page="0" gridSize="10" guides="1" tooltips="1" connect="1" arrows="1" fold="1" pageScale="1" pageWidth="827" pageHeight="1169" background="#000000" math="0" shadow="0">
      <root>
        <mxCell id="0" />
        <mxCell id="1" parent="0" />
        <mxCell id="OX4_WaIUidkAhvoHWbg--5" value="&lt;b style=&quot;font-weight:normal;&quot; id=&quot;docs-internal-guid-75f69f3f-7fff-b6a1-0209-b5d38061358c&quot;&gt;&lt;span style=&quot;font-size: 11pt; color: rgb(0, 0, 0); background-color: transparent; font-weight: 400; font-style: normal; font-variant: normal; text-decoration: none; vertical-align: baseline;&quot;&gt;&lt;span style=&quot;border:none;display:inline-block;overflow:hidden;width:624px;height:491px;&quot;&gt;&lt;img src=&quot;https://lh7-us.googleusercontent.com/lbdxtfRgm8D146bjGeF9QV90B1HxVcVviyXtacrU9P0xafgD2lbeVt23YluBYqkfJu-EnqHBuKTasJHrFPoQq-e87QRhHvGN1K7qZSkT9DjhwYW-gQ7UKWM8AZiMJemC7NhayMnCzYd7LEsFEZu-sXM&quot; width=&quot;624&quot; height=&quot;491&quot; style=&quot;margin-left:0px;margin-top:0px;&quot;&gt;&lt;/span&gt;&lt;/span&gt;&lt;/b&gt;" style="text;whiteSpace=wrap;html=1;fontFamily=Times New Roman;" vertex="1" parent="1">
          <mxGeometry x="-3" y="30" width="560" height="520" as="geometry" />
        </mxCell>
        <mxCell id="OX4_WaIUidkAhvoHWbg--55" style="rounded=0;orthogonalLoop=1;jettySize=auto;html=1;fontFamily=Times New Roman;strokeColor=#FFFFFF;" edge="1" parent="1" source="OX4_WaIUidkAhvoHWbg--6" target="OX4_WaIUidkAhvoHWbg--15">
          <mxGeometry relative="1" as="geometry" />
        </mxCell>
        <mxCell id="OX4_WaIUidkAhvoHWbg--60" style="rounded=0;orthogonalLoop=1;jettySize=auto;html=1;entryX=0;entryY=0.5;entryDx=0;entryDy=0;fontFamily=Times New Roman;exitX=1;exitY=0.5;exitDx=0;exitDy=0;strokeColor=#FFFFFF;" edge="1" parent="1" source="OX4_WaIUidkAhvoHWbg--6" target="OX4_WaIUidkAhvoHWbg--12">
          <mxGeometry relative="1" as="geometry" />
        </mxCell>
        <mxCell id="OX4_WaIUidkAhvoHWbg--87" style="edgeStyle=orthogonalEdgeStyle;rounded=0;orthogonalLoop=1;jettySize=auto;html=1;exitX=0.5;exitY=0;exitDx=0;exitDy=0;entryX=0.5;entryY=1;entryDx=0;entryDy=0;strokeWidth=3;strokeColor=#990000;fontFamily=Times New Roman;" edge="1" parent="1" source="OX4_WaIUidkAhvoHWbg--6" target="OX4_WaIUidkAhvoHWbg--7">
          <mxGeometry relative="1" as="geometry" />
        </mxCell>
        <mxCell id="OX4_WaIUidkAhvoHWbg--6" value="&lt;font style=&quot;font-size: 20px;&quot;&gt;&lt;b&gt;PublicWeb1&lt;/b&gt;&lt;br&gt;&lt;b&gt;Foothold&lt;/b&gt;&lt;/font&gt;" style="ellipse;whiteSpace=wrap;html=1;aspect=fixed;fillColor=#3399FF;strokeColor=#d6b656;fontFamily=Times New Roman;" vertex="1" parent="1">
          <mxGeometry x="190" y="1752" width="107.8" height="107.8" as="geometry" />
        </mxCell>
        <mxCell id="OX4_WaIUidkAhvoHWbg--31" style="rounded=0;orthogonalLoop=1;jettySize=auto;html=1;entryX=0.5;entryY=1;entryDx=0;entryDy=0;strokeWidth=3;strokeColor=#990000;fontFamily=Times New Roman;" edge="1" parent="1" source="OX4_WaIUidkAhvoHWbg--7" target="OX4_WaIUidkAhvoHWbg--8">
          <mxGeometry relative="1" as="geometry" />
        </mxCell>
        <mxCell id="OX4_WaIUidkAhvoHWbg--50" style="rounded=0;orthogonalLoop=1;jettySize=auto;html=1;entryX=0;entryY=0.5;entryDx=0;entryDy=0;fontFamily=Times New Roman;exitX=1;exitY=0.5;exitDx=0;exitDy=0;strokeColor=#FFFFFF;" edge="1" parent="1" source="OX4_WaIUidkAhvoHWbg--7" target="OX4_WaIUidkAhvoHWbg--15">
          <mxGeometry relative="1" as="geometry" />
        </mxCell>
        <mxCell id="OX4_WaIUidkAhvoHWbg--61" style="rounded=0;orthogonalLoop=1;jettySize=auto;html=1;entryX=0;entryY=0.5;entryDx=0;entryDy=0;fontFamily=Times New Roman;exitX=1;exitY=0.5;exitDx=0;exitDy=0;strokeColor=#FFFFFF;" edge="1" parent="1" source="OX4_WaIUidkAhvoHWbg--7" target="OX4_WaIUidkAhvoHWbg--12">
          <mxGeometry relative="1" as="geometry" />
        </mxCell>
        <mxCell id="OX4_WaIUidkAhvoHWbg--7" value="&lt;font style=&quot;font-size: 20px;&quot;&gt;&lt;b&gt;PublicWeb1&lt;/b&gt;&lt;br&gt;&lt;b&gt;Privilege&lt;/b&gt;&lt;/font&gt;" style="ellipse;whiteSpace=wrap;html=1;aspect=fixed;fillColor=#3399FF;strokeColor=#d6b656;fontFamily=Times New Roman;" vertex="1" parent="1">
          <mxGeometry x="190" y="1621" width="108.8" height="108.8" as="geometry" />
        </mxCell>
        <mxCell id="OX4_WaIUidkAhvoHWbg--51" style="rounded=0;orthogonalLoop=1;jettySize=auto;html=1;entryX=0;entryY=0.5;entryDx=0;entryDy=0;fontFamily=Times New Roman;exitX=1;exitY=0.5;exitDx=0;exitDy=0;strokeColor=#FFFFFF;" edge="1" parent="1" source="OX4_WaIUidkAhvoHWbg--8" target="OX4_WaIUidkAhvoHWbg--15">
          <mxGeometry relative="1" as="geometry" />
        </mxCell>
        <mxCell id="OX4_WaIUidkAhvoHWbg--62" style="rounded=0;orthogonalLoop=1;jettySize=auto;html=1;entryX=0;entryY=0.5;entryDx=0;entryDy=0;strokeWidth=3;strokeColor=#990000;fontFamily=Times New Roman;exitX=1;exitY=0.5;exitDx=0;exitDy=0;" edge="1" parent="1" source="OX4_WaIUidkAhvoHWbg--8" target="OX4_WaIUidkAhvoHWbg--12">
          <mxGeometry relative="1" as="geometry">
            <mxPoint x="500" y="1449.7999999999995" as="targetPoint" />
          </mxGeometry>
        </mxCell>
        <mxCell id="yHtUcLJWq5I6gH4sM5r0-2" style="edgeStyle=orthogonalEdgeStyle;rounded=0;orthogonalLoop=1;jettySize=auto;html=1;entryX=0.5;entryY=1;entryDx=0;entryDy=0;strokeColor=#FFFFFF;" edge="1" parent="1" source="OX4_WaIUidkAhvoHWbg--8" target="OX4_WaIUidkAhvoHWbg--9">
          <mxGeometry relative="1" as="geometry" />
        </mxCell>
        <mxCell id="OX4_WaIUidkAhvoHWbg--8" value="&lt;font style=&quot;font-size: 20px;&quot;&gt;&lt;b&gt;PublicWeb1&lt;/b&gt;&lt;br&gt;&lt;b&gt;Exfiltrate&lt;/b&gt;&lt;/font&gt;" style="ellipse;whiteSpace=wrap;html=1;aspect=fixed;fillColor=#3399FF;strokeColor=#d6b656;fontFamily=Times New Roman;" vertex="1" parent="1">
          <mxGeometry x="190" y="1489" width="110.8" height="110.8" as="geometry" />
        </mxCell>
        <mxCell id="OX4_WaIUidkAhvoHWbg--32" style="rounded=0;orthogonalLoop=1;jettySize=auto;html=1;entryX=0.5;entryY=1;entryDx=0;entryDy=0;strokeWidth=3;strokeColor=#006600;fontFamily=Times New Roman;" edge="1" parent="1" source="OX4_WaIUidkAhvoHWbg--9" target="OX4_WaIUidkAhvoHWbg--10">
          <mxGeometry relative="1" as="geometry" />
        </mxCell>
        <mxCell id="OX4_WaIUidkAhvoHWbg--52" style="rounded=0;orthogonalLoop=1;jettySize=auto;html=1;entryX=0;entryY=0.5;entryDx=0;entryDy=0;fontFamily=Times New Roman;exitX=1;exitY=0.5;exitDx=0;exitDy=0;strokeColor=#FFFFFF;" edge="1" parent="1" source="OX4_WaIUidkAhvoHWbg--9" target="OX4_WaIUidkAhvoHWbg--15">
          <mxGeometry relative="1" as="geometry" />
        </mxCell>
        <mxCell id="OX4_WaIUidkAhvoHWbg--57" style="rounded=0;orthogonalLoop=1;jettySize=auto;html=1;fontFamily=Times New Roman;strokeColor=#FFFFFF;" edge="1" parent="1" source="OX4_WaIUidkAhvoHWbg--9" target="OX4_WaIUidkAhvoHWbg--12">
          <mxGeometry relative="1" as="geometry" />
        </mxCell>
        <mxCell id="OX4_WaIUidkAhvoHWbg--9" value="&lt;font style=&quot;font-size: 20px;&quot;&gt;&lt;b&gt;PublicWeb2&lt;/b&gt;&lt;br&gt;&lt;b&gt;Foothold&lt;/b&gt;&lt;/font&gt;" style="ellipse;whiteSpace=wrap;html=1;aspect=fixed;fillColor=#3399FF;strokeColor=#d6b656;fontFamily=Times New Roman;" vertex="1" parent="1">
          <mxGeometry x="190" y="1339" width="110.8" height="110.8" as="geometry" />
        </mxCell>
        <mxCell id="OX4_WaIUidkAhvoHWbg--33" value="" style="rounded=0;orthogonalLoop=1;jettySize=auto;html=1;fontFamily=Times New Roman;strokeColor=#FFFFFF;" edge="1" parent="1" source="OX4_WaIUidkAhvoHWbg--10" target="OX4_WaIUidkAhvoHWbg--11">
          <mxGeometry relative="1" as="geometry" />
        </mxCell>
        <mxCell id="OX4_WaIUidkAhvoHWbg--53" style="rounded=0;orthogonalLoop=1;jettySize=auto;html=1;entryX=0;entryY=0.5;entryDx=0;entryDy=0;strokeWidth=3;strokeColor=#006600;fontFamily=Times New Roman;exitX=1;exitY=0.5;exitDx=0;exitDy=0;" edge="1" parent="1" source="OX4_WaIUidkAhvoHWbg--10" target="OX4_WaIUidkAhvoHWbg--15">
          <mxGeometry relative="1" as="geometry">
            <mxPoint x="500" y="1769.7999999999995" as="targetPoint" />
          </mxGeometry>
        </mxCell>
        <mxCell id="OX4_WaIUidkAhvoHWbg--58" style="rounded=0;orthogonalLoop=1;jettySize=auto;html=1;fontFamily=Times New Roman;exitX=1;exitY=0.5;exitDx=0;exitDy=0;strokeColor=#FFFFFF;" edge="1" parent="1" source="OX4_WaIUidkAhvoHWbg--10">
          <mxGeometry relative="1" as="geometry">
            <mxPoint x="460" y="1409.7999999999995" as="targetPoint" />
          </mxGeometry>
        </mxCell>
        <mxCell id="OX4_WaIUidkAhvoHWbg--10" value="&lt;font style=&quot;font-size: 20px;&quot;&gt;&lt;b&gt;PublicWeb2&lt;br&gt;Privilege&lt;/b&gt;&lt;/font&gt;" style="ellipse;whiteSpace=wrap;html=1;aspect=fixed;fillColor=#3399FF;strokeColor=#d6b656;fontFamily=Times New Roman;" vertex="1" parent="1">
          <mxGeometry x="190" y="1213" width="106.8" height="106.8" as="geometry" />
        </mxCell>
        <mxCell id="OX4_WaIUidkAhvoHWbg--54" style="rounded=0;orthogonalLoop=1;jettySize=auto;html=1;entryX=0;entryY=0.5;entryDx=0;entryDy=0;fontFamily=Times New Roman;exitX=1;exitY=0.5;exitDx=0;exitDy=0;strokeColor=#FFFFFF;" edge="1" parent="1" source="OX4_WaIUidkAhvoHWbg--11" target="OX4_WaIUidkAhvoHWbg--15">
          <mxGeometry relative="1" as="geometry">
            <mxPoint x="500" y="1779.7999999999995" as="targetPoint" />
          </mxGeometry>
        </mxCell>
        <mxCell id="OX4_WaIUidkAhvoHWbg--59" style="rounded=0;orthogonalLoop=1;jettySize=auto;html=1;fontFamily=Times New Roman;exitX=1;exitY=0.5;exitDx=0;exitDy=0;strokeColor=#FFFFFF;" edge="1" parent="1" source="OX4_WaIUidkAhvoHWbg--11">
          <mxGeometry relative="1" as="geometry">
            <mxPoint x="460" y="1409.7999999999995" as="targetPoint" />
          </mxGeometry>
        </mxCell>
        <mxCell id="FzNVtBH7PJN-r4qkTWvE-1" style="edgeStyle=orthogonalEdgeStyle;rounded=0;orthogonalLoop=1;jettySize=auto;html=1;exitX=0.5;exitY=0;exitDx=0;exitDy=0;entryX=0.5;entryY=1;entryDx=0;entryDy=0;strokeColor=#FFFFFF;" edge="1" parent="1" source="OX4_WaIUidkAhvoHWbg--11" target="OX4_WaIUidkAhvoHWbg--6">
          <mxGeometry relative="1" as="geometry">
            <Array as="points">
              <mxPoint x="243" y="1079" />
              <mxPoint x="170" y="1079" />
              <mxPoint x="170" y="1880" />
              <mxPoint x="244" y="1880" />
            </Array>
          </mxGeometry>
        </mxCell>
        <mxCell id="OX4_WaIUidkAhvoHWbg--11" value="&lt;font style=&quot;font-size: 20px;&quot;&gt;&lt;b&gt;PublicWeb2&lt;br&gt;Exfiltrate&lt;/b&gt;&lt;/font&gt;" style="ellipse;whiteSpace=wrap;html=1;aspect=fixed;fillColor=#3399FF;strokeColor=#d6b656;fontFamily=Times New Roman;" vertex="1" parent="1">
          <mxGeometry x="190" y="1083" width="106.8" height="106.8" as="geometry" />
        </mxCell>
        <mxCell id="OX4_WaIUidkAhvoHWbg--34" style="rounded=0;orthogonalLoop=1;jettySize=auto;html=1;entryX=0.5;entryY=1;entryDx=0;entryDy=0;strokeWidth=3;strokeColor=#990000;fontFamily=Times New Roman;" edge="1" parent="1" source="OX4_WaIUidkAhvoHWbg--12" target="OX4_WaIUidkAhvoHWbg--13">
          <mxGeometry relative="1" as="geometry" />
        </mxCell>
        <mxCell id="OX4_WaIUidkAhvoHWbg--63" style="rounded=0;orthogonalLoop=1;jettySize=auto;html=1;fontFamily=Times New Roman;strokeColor=#FFFFFF;" edge="1" parent="1" source="OX4_WaIUidkAhvoHWbg--12" target="OX4_WaIUidkAhvoHWbg--21">
          <mxGeometry relative="1" as="geometry" />
        </mxCell>
        <mxCell id="OX4_WaIUidkAhvoHWbg--66" style="rounded=0;orthogonalLoop=1;jettySize=auto;html=1;entryX=0;entryY=0.5;entryDx=0;entryDy=0;fontFamily=Times New Roman;exitX=1;exitY=0.5;exitDx=0;exitDy=0;strokeColor=#FFFFFF;" edge="1" parent="1" source="OX4_WaIUidkAhvoHWbg--12" target="OX4_WaIUidkAhvoHWbg--18">
          <mxGeometry relative="1" as="geometry" />
        </mxCell>
        <mxCell id="OX4_WaIUidkAhvoHWbg--70" style="rounded=0;orthogonalLoop=1;jettySize=auto;html=1;entryX=0;entryY=0.5;entryDx=0;entryDy=0;fontFamily=Times New Roman;exitX=1;exitY=0.5;exitDx=0;exitDy=0;strokeColor=#FFFFFF;" edge="1" parent="1" source="OX4_WaIUidkAhvoHWbg--12" target="OX4_WaIUidkAhvoHWbg--24">
          <mxGeometry relative="1" as="geometry" />
        </mxCell>
        <mxCell id="OX4_WaIUidkAhvoHWbg--73" style="rounded=0;orthogonalLoop=1;jettySize=auto;html=1;fontFamily=Times New Roman;exitX=1;exitY=0.5;exitDx=0;exitDy=0;entryX=0;entryY=0.5;entryDx=0;entryDy=0;strokeColor=#FFFFFF;" edge="1" parent="1" source="OX4_WaIUidkAhvoHWbg--12" target="OX4_WaIUidkAhvoHWbg--27">
          <mxGeometry relative="1" as="geometry" />
        </mxCell>
        <mxCell id="OX4_WaIUidkAhvoHWbg--12" value="&lt;font style=&quot;font-size: 20px;&quot;&gt;&lt;b&gt;NTP&lt;br&gt;Foothold&lt;/b&gt;&lt;/font&gt;" style="ellipse;whiteSpace=wrap;html=1;aspect=fixed;fillColor=#00CC00;strokeColor=#82b366;fontFamily=Times New Roman;" vertex="1" parent="1">
          <mxGeometry x="460" y="1369.8" width="106.2" height="106.2" as="geometry" />
        </mxCell>
        <mxCell id="OX4_WaIUidkAhvoHWbg--35" style="edgeStyle=orthogonalEdgeStyle;rounded=0;orthogonalLoop=1;jettySize=auto;html=1;entryX=0.5;entryY=1;entryDx=0;entryDy=0;strokeWidth=3;strokeColor=#990000;fontFamily=Times New Roman;" edge="1" parent="1" source="OX4_WaIUidkAhvoHWbg--13" target="OX4_WaIUidkAhvoHWbg--14">
          <mxGeometry relative="1" as="geometry" />
        </mxCell>
        <mxCell id="OX4_WaIUidkAhvoHWbg--64" style="rounded=0;orthogonalLoop=1;jettySize=auto;html=1;fontFamily=Times New Roman;entryX=0;entryY=0.5;entryDx=0;entryDy=0;exitX=1;exitY=0.5;exitDx=0;exitDy=0;strokeColor=#FFFFFF;" edge="1" parent="1" source="OX4_WaIUidkAhvoHWbg--13" target="OX4_WaIUidkAhvoHWbg--21">
          <mxGeometry relative="1" as="geometry">
            <mxPoint x="800" y="1419.7999999999995" as="targetPoint" />
          </mxGeometry>
        </mxCell>
        <mxCell id="OX4_WaIUidkAhvoHWbg--67" style="rounded=0;orthogonalLoop=1;jettySize=auto;html=1;entryX=0;entryY=0.5;entryDx=0;entryDy=0;fontFamily=Times New Roman;exitX=1;exitY=0.5;exitDx=0;exitDy=0;strokeColor=#FFFFFF;" edge="1" parent="1" source="OX4_WaIUidkAhvoHWbg--13" target="OX4_WaIUidkAhvoHWbg--18">
          <mxGeometry relative="1" as="geometry">
            <mxPoint x="840" y="1099.8" as="targetPoint" />
          </mxGeometry>
        </mxCell>
        <mxCell id="FzNVtBH7PJN-r4qkTWvE-18" style="rounded=0;orthogonalLoop=1;jettySize=auto;html=1;exitX=1;exitY=0.5;exitDx=0;exitDy=0;entryX=0;entryY=0.5;entryDx=0;entryDy=0;strokeColor=#FFFFFF;" edge="1" parent="1" source="OX4_WaIUidkAhvoHWbg--13" target="OX4_WaIUidkAhvoHWbg--24">
          <mxGeometry relative="1" as="geometry" />
        </mxCell>
        <mxCell id="FzNVtBH7PJN-r4qkTWvE-19" style="rounded=0;orthogonalLoop=1;jettySize=auto;html=1;exitX=1;exitY=0.5;exitDx=0;exitDy=0;entryX=0;entryY=0.5;entryDx=0;entryDy=0;strokeColor=#FFFFFF;" edge="1" parent="1" source="OX4_WaIUidkAhvoHWbg--13" target="OX4_WaIUidkAhvoHWbg--27">
          <mxGeometry relative="1" as="geometry" />
        </mxCell>
        <mxCell id="OX4_WaIUidkAhvoHWbg--13" value="&lt;font style=&quot;font-size: 20px;&quot;&gt;&lt;b&gt;NTP&lt;/b&gt;&lt;br style=&quot;border-color: var(--border-color);&quot;&gt;&lt;b&gt;Privilege&lt;/b&gt;&lt;/font&gt;" style="ellipse;whiteSpace=wrap;html=1;aspect=fixed;fillColor=#00CC00;strokeColor=#82b366;fontFamily=Times New Roman;" vertex="1" parent="1">
          <mxGeometry x="460" y="1239.8" width="105.2" height="105.2" as="geometry" />
        </mxCell>
        <mxCell id="OX4_WaIUidkAhvoHWbg--65" style="rounded=0;orthogonalLoop=1;jettySize=auto;html=1;fontFamily=Times New Roman;entryX=0;entryY=0.5;entryDx=0;entryDy=0;exitX=1;exitY=0.5;exitDx=0;exitDy=0;strokeColor=#FFFFFF;" edge="1" parent="1" source="OX4_WaIUidkAhvoHWbg--14" target="OX4_WaIUidkAhvoHWbg--21">
          <mxGeometry relative="1" as="geometry">
            <mxPoint x="800" y="1419.7999999999995" as="targetPoint" />
          </mxGeometry>
        </mxCell>
        <mxCell id="OX4_WaIUidkAhvoHWbg--68" style="rounded=0;orthogonalLoop=1;jettySize=auto;html=1;strokeWidth=3;strokeColor=#990000;entryX=0;entryY=0.5;entryDx=0;entryDy=0;fontFamily=Times New Roman;exitX=1;exitY=0.5;exitDx=0;exitDy=0;" edge="1" parent="1" source="OX4_WaIUidkAhvoHWbg--14" target="OX4_WaIUidkAhvoHWbg--18">
          <mxGeometry relative="1" as="geometry">
            <mxPoint x="840" y="1099.8" as="targetPoint" />
          </mxGeometry>
        </mxCell>
        <mxCell id="OX4_WaIUidkAhvoHWbg--72" style="rounded=0;orthogonalLoop=1;jettySize=auto;html=1;entryX=0;entryY=0.5;entryDx=0;entryDy=0;fontFamily=Times New Roman;exitX=1;exitY=0.5;exitDx=0;exitDy=0;strokeColor=#FFFFFF;" edge="1" parent="1" source="OX4_WaIUidkAhvoHWbg--14" target="OX4_WaIUidkAhvoHWbg--24">
          <mxGeometry relative="1" as="geometry">
            <mxPoint x="840" y="1759.7999999999995" as="targetPoint" />
          </mxGeometry>
        </mxCell>
        <mxCell id="OX4_WaIUidkAhvoHWbg--75" style="rounded=0;orthogonalLoop=1;jettySize=auto;html=1;fontFamily=Times New Roman;exitX=1;exitY=0.5;exitDx=0;exitDy=0;entryX=0;entryY=0.5;entryDx=0;entryDy=0;strokeColor=#FFFFFF;" edge="1" parent="1" source="OX4_WaIUidkAhvoHWbg--14" target="OX4_WaIUidkAhvoHWbg--27">
          <mxGeometry relative="1" as="geometry" />
        </mxCell>
        <mxCell id="FzNVtBH7PJN-r4qkTWvE-3" style="edgeStyle=orthogonalEdgeStyle;rounded=0;orthogonalLoop=1;jettySize=auto;html=1;exitX=0.5;exitY=0;exitDx=0;exitDy=0;entryX=0.5;entryY=1;entryDx=0;entryDy=0;strokeColor=#FFFFFF;" edge="1" parent="1" source="OX4_WaIUidkAhvoHWbg--14" target="OX4_WaIUidkAhvoHWbg--15">
          <mxGeometry relative="1" as="geometry">
            <Array as="points">
              <mxPoint x="500" y="1069.8" />
              <mxPoint x="150" y="1069.8" />
              <mxPoint x="150" y="1909.8" />
              <mxPoint x="500" y="1909.8" />
            </Array>
          </mxGeometry>
        </mxCell>
        <mxCell id="OX4_WaIUidkAhvoHWbg--14" value="&lt;font style=&quot;font-size: 20px;&quot;&gt;&lt;b&gt;NTP&lt;br style=&quot;border-color: var(--border-color);&quot;&gt;Exfiltrate&lt;/b&gt;&lt;/font&gt;" style="ellipse;whiteSpace=wrap;html=1;aspect=fixed;fillColor=#00CC00;strokeColor=#82b366;fontFamily=Times New Roman;" vertex="1" parent="1">
          <mxGeometry x="460" y="1109.8" width="104.2" height="104.2" as="geometry" />
        </mxCell>
        <mxCell id="OX4_WaIUidkAhvoHWbg--36" style="rounded=0;orthogonalLoop=1;jettySize=auto;html=1;entryX=0.5;entryY=1;entryDx=0;entryDy=0;strokeWidth=3;strokeColor=#006600;fontFamily=Times New Roman;" edge="1" parent="1" source="OX4_WaIUidkAhvoHWbg--15" target="OX4_WaIUidkAhvoHWbg--16">
          <mxGeometry relative="1" as="geometry" />
        </mxCell>
        <mxCell id="OX4_WaIUidkAhvoHWbg--76" style="rounded=0;orthogonalLoop=1;jettySize=auto;html=1;entryX=0;entryY=0.5;entryDx=0;entryDy=0;fontFamily=Times New Roman;exitX=1;exitY=0.5;exitDx=0;exitDy=0;strokeColor=#FFFFFF;" edge="1" parent="1" source="OX4_WaIUidkAhvoHWbg--15" target="OX4_WaIUidkAhvoHWbg--18">
          <mxGeometry relative="1" as="geometry" />
        </mxCell>
        <mxCell id="OX4_WaIUidkAhvoHWbg--81" style="rounded=0;orthogonalLoop=1;jettySize=auto;html=1;fontFamily=Times New Roman;entryX=0;entryY=0.5;entryDx=0;entryDy=0;exitX=1;exitY=0.5;exitDx=0;exitDy=0;strokeColor=#FFFFFF;" edge="1" parent="1" source="OX4_WaIUidkAhvoHWbg--15" target="OX4_WaIUidkAhvoHWbg--21">
          <mxGeometry relative="1" as="geometry">
            <mxPoint x="840" y="1449.7999999999995" as="targetPoint" />
          </mxGeometry>
        </mxCell>
        <mxCell id="OX4_WaIUidkAhvoHWbg--82" style="rounded=0;orthogonalLoop=1;jettySize=auto;html=1;entryX=0;entryY=0.5;entryDx=0;entryDy=0;fontFamily=Times New Roman;exitX=1;exitY=0.5;exitDx=0;exitDy=0;strokeColor=#FFFFFF;" edge="1" parent="1" source="OX4_WaIUidkAhvoHWbg--15" target="OX4_WaIUidkAhvoHWbg--27">
          <mxGeometry relative="1" as="geometry" />
        </mxCell>
        <mxCell id="FzNVtBH7PJN-r4qkTWvE-21" style="rounded=0;orthogonalLoop=1;jettySize=auto;html=1;exitX=1;exitY=0.5;exitDx=0;exitDy=0;entryX=0;entryY=0.5;entryDx=0;entryDy=0;strokeColor=#FFFFFF;" edge="1" parent="1" source="OX4_WaIUidkAhvoHWbg--15" target="OX4_WaIUidkAhvoHWbg--24">
          <mxGeometry relative="1" as="geometry" />
        </mxCell>
        <mxCell id="OX4_WaIUidkAhvoHWbg--15" value="&lt;font style=&quot;font-size: 20px;&quot;&gt;&lt;b&gt;DB&lt;/b&gt;&lt;br&gt;&lt;b&gt;Foothold&lt;/b&gt;&lt;/font&gt;" style="ellipse;whiteSpace=wrap;html=1;aspect=fixed;fillColor=#00CC00;strokeColor=#82b366;fontFamily=Times New Roman;" vertex="1" parent="1">
          <mxGeometry x="460" y="1754" width="105.8" height="105.8" as="geometry" />
        </mxCell>
        <mxCell id="OX4_WaIUidkAhvoHWbg--37" style="rounded=0;orthogonalLoop=1;jettySize=auto;html=1;entryX=0.5;entryY=1;entryDx=0;entryDy=0;strokeWidth=3;strokeColor=#006600;fontFamily=Times New Roman;" edge="1" parent="1" source="OX4_WaIUidkAhvoHWbg--16" target="OX4_WaIUidkAhvoHWbg--17">
          <mxGeometry relative="1" as="geometry" />
        </mxCell>
        <mxCell id="OX4_WaIUidkAhvoHWbg--77" style="rounded=0;orthogonalLoop=1;jettySize=auto;html=1;entryX=0;entryY=0.5;entryDx=0;entryDy=0;fontFamily=Times New Roman;exitX=1;exitY=0.5;exitDx=0;exitDy=0;strokeColor=#FFFFFF;" edge="1" parent="1" source="OX4_WaIUidkAhvoHWbg--16" target="OX4_WaIUidkAhvoHWbg--18">
          <mxGeometry relative="1" as="geometry">
            <mxPoint x="840" y="1089.8" as="targetPoint" />
          </mxGeometry>
        </mxCell>
        <mxCell id="OX4_WaIUidkAhvoHWbg--80" style="rounded=0;orthogonalLoop=1;jettySize=auto;html=1;fontFamily=Times New Roman;entryX=0;entryY=0.5;entryDx=0;entryDy=0;exitX=1;exitY=0.5;exitDx=0;exitDy=0;strokeColor=#FFFFFF;" edge="1" parent="1" source="OX4_WaIUidkAhvoHWbg--16" target="OX4_WaIUidkAhvoHWbg--21">
          <mxGeometry relative="1" as="geometry">
            <mxPoint x="840" y="1449.7999999999995" as="targetPoint" />
          </mxGeometry>
        </mxCell>
        <mxCell id="OX4_WaIUidkAhvoHWbg--83" style="rounded=0;orthogonalLoop=1;jettySize=auto;html=1;fontFamily=Times New Roman;entryX=0;entryY=0.5;entryDx=0;entryDy=0;exitX=1;exitY=0.5;exitDx=0;exitDy=0;strokeColor=#FFFFFF;" edge="1" parent="1" source="OX4_WaIUidkAhvoHWbg--16" target="OX4_WaIUidkAhvoHWbg--27">
          <mxGeometry relative="1" as="geometry">
            <mxPoint x="840" y="2179.8" as="targetPoint" />
          </mxGeometry>
        </mxCell>
        <mxCell id="FzNVtBH7PJN-r4qkTWvE-22" style="rounded=0;orthogonalLoop=1;jettySize=auto;html=1;exitX=1;exitY=0.5;exitDx=0;exitDy=0;entryX=0;entryY=0.5;entryDx=0;entryDy=0;strokeColor=#FFFFFF;" edge="1" parent="1" source="OX4_WaIUidkAhvoHWbg--16" target="OX4_WaIUidkAhvoHWbg--24">
          <mxGeometry relative="1" as="geometry" />
        </mxCell>
        <mxCell id="OX4_WaIUidkAhvoHWbg--16" value="&lt;font style=&quot;font-size: 20px;&quot;&gt;&lt;b&gt;DB&lt;/b&gt;&lt;br&gt;&lt;b&gt;Privilege&lt;/b&gt;&lt;/font&gt;" style="ellipse;whiteSpace=wrap;html=1;aspect=fixed;fillColor=#00CC00;strokeColor=#82b366;fontFamily=Times New Roman;" vertex="1" parent="1">
          <mxGeometry x="460" y="1626" width="103.8" height="103.8" as="geometry" />
        </mxCell>
        <mxCell id="OX4_WaIUidkAhvoHWbg--78" style="rounded=0;orthogonalLoop=1;jettySize=auto;html=1;entryX=0;entryY=0.5;entryDx=0;entryDy=0;fontFamily=Times New Roman;exitX=1;exitY=0.5;exitDx=0;exitDy=0;strokeColor=#FFFFFF;" edge="1" parent="1" source="OX4_WaIUidkAhvoHWbg--17" target="OX4_WaIUidkAhvoHWbg--18">
          <mxGeometry relative="1" as="geometry" />
        </mxCell>
        <mxCell id="OX4_WaIUidkAhvoHWbg--79" style="rounded=0;orthogonalLoop=1;jettySize=auto;html=1;entryX=0;entryY=0.5;entryDx=0;entryDy=0;strokeWidth=3;strokeColor=#006600;fontFamily=Times New Roman;exitX=1;exitY=0.5;exitDx=0;exitDy=0;" edge="1" parent="1" source="OX4_WaIUidkAhvoHWbg--17" target="OX4_WaIUidkAhvoHWbg--21">
          <mxGeometry relative="1" as="geometry" />
        </mxCell>
        <mxCell id="OX4_WaIUidkAhvoHWbg--84" style="rounded=0;orthogonalLoop=1;jettySize=auto;html=1;fontFamily=Times New Roman;entryX=0;entryY=0.5;entryDx=0;entryDy=0;exitX=1;exitY=0.5;exitDx=0;exitDy=0;strokeColor=#FFFFFF;" edge="1" parent="1" source="OX4_WaIUidkAhvoHWbg--17" target="OX4_WaIUidkAhvoHWbg--27">
          <mxGeometry relative="1" as="geometry">
            <mxPoint x="840" y="2179.8" as="targetPoint" />
          </mxGeometry>
        </mxCell>
        <mxCell id="FzNVtBH7PJN-r4qkTWvE-2" style="edgeStyle=orthogonalEdgeStyle;rounded=0;orthogonalLoop=1;jettySize=auto;html=1;exitX=0.5;exitY=0;exitDx=0;exitDy=0;entryX=0.5;entryY=1;entryDx=0;entryDy=0;" edge="1" parent="1" source="OX4_WaIUidkAhvoHWbg--17" target="OX4_WaIUidkAhvoHWbg--12">
          <mxGeometry relative="1" as="geometry" />
        </mxCell>
        <mxCell id="FzNVtBH7PJN-r4qkTWvE-20" style="rounded=0;orthogonalLoop=1;jettySize=auto;html=1;exitX=1;exitY=0.5;exitDx=0;exitDy=0;entryX=0;entryY=0.5;entryDx=0;entryDy=0;strokeColor=#FFFFFF;" edge="1" parent="1" source="OX4_WaIUidkAhvoHWbg--17" target="OX4_WaIUidkAhvoHWbg--24">
          <mxGeometry relative="1" as="geometry" />
        </mxCell>
        <mxCell id="OX4_WaIUidkAhvoHWbg--17" value="&lt;font style=&quot;font-size: 20px;&quot;&gt;&lt;b&gt;DB&lt;/b&gt;&lt;br style=&quot;border-color: var(--border-color);&quot;&gt;&lt;b&gt;Exfiltrate&lt;/b&gt;&lt;/font&gt;" style="ellipse;whiteSpace=wrap;html=1;aspect=fixed;fillColor=#00CC00;strokeColor=#82b366;fontFamily=Times New Roman;" vertex="1" parent="1">
          <mxGeometry x="460" y="1497" width="102.8" height="102.8" as="geometry" />
        </mxCell>
        <mxCell id="OX4_WaIUidkAhvoHWbg--38" style="rounded=0;orthogonalLoop=1;jettySize=auto;html=1;entryX=0.5;entryY=1;entryDx=0;entryDy=0;strokeWidth=3;strokeColor=#006600;fontFamily=Times New Roman;" edge="1" parent="1" source="OX4_WaIUidkAhvoHWbg--18" target="OX4_WaIUidkAhvoHWbg--19">
          <mxGeometry relative="1" as="geometry" />
        </mxCell>
        <mxCell id="OX4_WaIUidkAhvoHWbg--18" value="&lt;font style=&quot;font-size: 20px;&quot;&gt;&lt;b&gt;InternalWeb&lt;br&gt;Foothold&lt;/b&gt;&lt;/font&gt;" style="ellipse;whiteSpace=wrap;html=1;aspect=fixed;fillColor=#FF6666;strokeColor=#b85450;fontFamily=Times New Roman;" vertex="1" parent="1">
          <mxGeometry x="830" y="1109.8" width="113.2" height="113.2" as="geometry" />
        </mxCell>
        <mxCell id="OX4_WaIUidkAhvoHWbg--39" style="rounded=0;orthogonalLoop=1;jettySize=auto;html=1;entryX=0.5;entryY=1;entryDx=0;entryDy=0;strokeWidth=3;strokeColor=#006600;fontFamily=Times New Roman;" edge="1" parent="1" source="OX4_WaIUidkAhvoHWbg--19" target="OX4_WaIUidkAhvoHWbg--20">
          <mxGeometry relative="1" as="geometry" />
        </mxCell>
        <mxCell id="OX4_WaIUidkAhvoHWbg--19" value="&lt;font style=&quot;font-size: 20px;&quot;&gt;&lt;b&gt;InternalWeb&lt;br&gt;Privilege&lt;/b&gt;&lt;/font&gt;" style="ellipse;whiteSpace=wrap;html=1;aspect=fixed;fillColor=#FF6666;strokeColor=#b85450;fontFamily=Times New Roman;" vertex="1" parent="1">
          <mxGeometry x="830" y="979.8" width="113.2" height="113.2" as="geometry" />
        </mxCell>
        <mxCell id="FzNVtBH7PJN-r4qkTWvE-10" style="rounded=0;orthogonalLoop=1;jettySize=auto;html=1;exitX=1;exitY=0.5;exitDx=0;exitDy=0;entryX=1;entryY=0.5;entryDx=0;entryDy=0;edgeStyle=orthogonalEdgeStyle;strokeColor=#FFFFFF;" edge="1" parent="1" source="OX4_WaIUidkAhvoHWbg--20" target="OX4_WaIUidkAhvoHWbg--21">
          <mxGeometry relative="1" as="geometry">
            <Array as="points">
              <mxPoint x="1330" y="908" />
              <mxPoint x="1330" y="1463" />
            </Array>
          </mxGeometry>
        </mxCell>
        <mxCell id="FzNVtBH7PJN-r4qkTWvE-13" style="rounded=0;orthogonalLoop=1;jettySize=auto;html=1;exitX=1;exitY=0.5;exitDx=0;exitDy=0;entryX=1;entryY=0.5;entryDx=0;entryDy=0;edgeStyle=orthogonalEdgeStyle;strokeColor=#FFFFFF;" edge="1" parent="1" source="OX4_WaIUidkAhvoHWbg--20" target="OX4_WaIUidkAhvoHWbg--24">
          <mxGeometry relative="1" as="geometry">
            <Array as="points">
              <mxPoint x="1330" y="908" />
              <mxPoint x="1330" y="1853" />
            </Array>
          </mxGeometry>
        </mxCell>
        <mxCell id="FzNVtBH7PJN-r4qkTWvE-14" style="edgeStyle=orthogonalEdgeStyle;rounded=0;orthogonalLoop=1;jettySize=auto;html=1;exitX=1;exitY=0.5;exitDx=0;exitDy=0;entryX=1;entryY=0.5;entryDx=0;entryDy=0;strokeColor=#FFFFFF;" edge="1" parent="1" source="OX4_WaIUidkAhvoHWbg--20" target="OX4_WaIUidkAhvoHWbg--27">
          <mxGeometry relative="1" as="geometry">
            <Array as="points">
              <mxPoint x="1330" y="908" />
              <mxPoint x="1330" y="2160" />
              <mxPoint x="907" y="2160" />
            </Array>
          </mxGeometry>
        </mxCell>
        <mxCell id="FzNVtBH7PJN-r4qkTWvE-23" style="edgeStyle=orthogonalEdgeStyle;rounded=0;orthogonalLoop=1;jettySize=auto;html=1;exitX=0;exitY=0.5;exitDx=0;exitDy=0;" edge="1" parent="1" source="OX4_WaIUidkAhvoHWbg--20">
          <mxGeometry relative="1" as="geometry">
            <mxPoint x="460" y="1410" as="targetPoint" />
            <Array as="points">
              <mxPoint x="410" y="890" />
              <mxPoint x="410" y="1410" />
            </Array>
          </mxGeometry>
        </mxCell>
        <mxCell id="FzNVtBH7PJN-r4qkTWvE-25" style="edgeStyle=orthogonalEdgeStyle;rounded=0;orthogonalLoop=1;jettySize=auto;html=1;exitX=0;exitY=0.5;exitDx=0;exitDy=0;entryX=0.5;entryY=1;entryDx=0;entryDy=0;strokeColor=#FFFFFF;" edge="1" parent="1" source="OX4_WaIUidkAhvoHWbg--20" target="OX4_WaIUidkAhvoHWbg--15">
          <mxGeometry relative="1" as="geometry">
            <Array as="points">
              <mxPoint x="150" y="908" />
              <mxPoint x="150" y="1910" />
              <mxPoint x="500" y="1910" />
            </Array>
          </mxGeometry>
        </mxCell>
        <mxCell id="OX4_WaIUidkAhvoHWbg--20" value="&lt;font style=&quot;font-size: 20px;&quot;&gt;&lt;b&gt;InternalWeb&lt;br style=&quot;border-color: var(--border-color);&quot;&gt;Exfiltrate&lt;/b&gt;&lt;/font&gt;" style="ellipse;whiteSpace=wrap;html=1;aspect=fixed;fillColor=#FF6666;strokeColor=#b85450;fontFamily=Times New Roman;" vertex="1" parent="1">
          <mxGeometry x="830" y="849.8" width="116.2" height="116.2" as="geometry" />
        </mxCell>
        <mxCell id="OX4_WaIUidkAhvoHWbg--40" style="rounded=0;orthogonalLoop=1;jettySize=auto;html=1;entryX=0.5;entryY=1;entryDx=0;entryDy=0;strokeWidth=3;strokeColor=#006600;fontFamily=Times New Roman;" edge="1" parent="1" source="OX4_WaIUidkAhvoHWbg--21" target="OX4_WaIUidkAhvoHWbg--22">
          <mxGeometry relative="1" as="geometry" />
        </mxCell>
        <mxCell id="OX4_WaIUidkAhvoHWbg--21" value="&lt;font style=&quot;font-size: 20px;&quot;&gt;&lt;b&gt;PC1&lt;br&gt;Foothold&lt;/b&gt;&lt;/font&gt;" style="ellipse;whiteSpace=wrap;html=1;aspect=fixed;fillColor=#FF6666;strokeColor=#b85450;fontFamily=Times New Roman;" vertex="1" parent="1">
          <mxGeometry x="1154" y="1410" width="106" height="106" as="geometry" />
        </mxCell>
        <mxCell id="OX4_WaIUidkAhvoHWbg--41" style="rounded=0;orthogonalLoop=1;jettySize=auto;html=1;entryX=0.5;entryY=1;entryDx=0;entryDy=0;strokeWidth=3;strokeColor=#006600;fontFamily=Times New Roman;" edge="1" parent="1" source="OX4_WaIUidkAhvoHWbg--22" target="OX4_WaIUidkAhvoHWbg--23">
          <mxGeometry relative="1" as="geometry" />
        </mxCell>
        <mxCell id="OX4_WaIUidkAhvoHWbg--22" value="&lt;font style=&quot;font-size: 20px;&quot;&gt;&lt;b&gt;PC1 &lt;br&gt;Privilege&lt;/b&gt;&lt;/font&gt;" style="ellipse;whiteSpace=wrap;html=1;aspect=fixed;fillColor=#FF6666;strokeColor=#b85450;fontFamily=Times New Roman;" vertex="1" parent="1">
          <mxGeometry x="1146" y="1280.2" width="114" height="114" as="geometry" />
        </mxCell>
        <mxCell id="FzNVtBH7PJN-r4qkTWvE-8" style="rounded=0;orthogonalLoop=1;jettySize=auto;html=1;exitX=0.5;exitY=0;exitDx=0;exitDy=0;entryX=1;entryY=0.5;entryDx=0;entryDy=0;" edge="1" parent="1" source="OX4_WaIUidkAhvoHWbg--23" target="OX4_WaIUidkAhvoHWbg--18">
          <mxGeometry relative="1" as="geometry" />
        </mxCell>
        <mxCell id="FzNVtBH7PJN-r4qkTWvE-9" style="rounded=0;orthogonalLoop=1;jettySize=auto;html=1;exitX=0.5;exitY=0;exitDx=0;exitDy=0;entryX=1;entryY=0.5;entryDx=0;entryDy=0;strokeColor=#FFFFFF;" edge="1" parent="1" source="OX4_WaIUidkAhvoHWbg--23" target="OX4_WaIUidkAhvoHWbg--20">
          <mxGeometry relative="1" as="geometry" />
        </mxCell>
        <mxCell id="FzNVtBH7PJN-r4qkTWvE-28" style="edgeStyle=orthogonalEdgeStyle;rounded=0;orthogonalLoop=1;jettySize=auto;html=1;exitX=1;exitY=0.5;exitDx=0;exitDy=0;entryX=0.5;entryY=1;entryDx=0;entryDy=0;" edge="1" parent="1" source="OX4_WaIUidkAhvoHWbg--23" target="OX4_WaIUidkAhvoHWbg--15">
          <mxGeometry relative="1" as="geometry">
            <Array as="points">
              <mxPoint x="1380" y="1190" />
              <mxPoint x="1380" y="2230" />
              <mxPoint x="500" y="2230" />
            </Array>
          </mxGeometry>
        </mxCell>
        <mxCell id="FzNVtBH7PJN-r4qkTWvE-29" style="edgeStyle=orthogonalEdgeStyle;rounded=0;orthogonalLoop=1;jettySize=auto;html=1;exitX=1;exitY=0.5;exitDx=0;exitDy=0;entryX=0;entryY=0.5;entryDx=0;entryDy=0;strokeColor=#FFFFFF;" edge="1" parent="1" source="OX4_WaIUidkAhvoHWbg--23" target="OX4_WaIUidkAhvoHWbg--12">
          <mxGeometry relative="1" as="geometry">
            <Array as="points">
              <mxPoint x="1380" y="1190" />
              <mxPoint x="1380" y="800" />
              <mxPoint x="410" y="800" />
              <mxPoint x="410" y="1410" />
            </Array>
          </mxGeometry>
        </mxCell>
        <mxCell id="OX4_WaIUidkAhvoHWbg--23" value="&lt;font style=&quot;font-size: 20px;&quot;&gt;&lt;b&gt;PC1&lt;br&gt;Exfiltrate&lt;/b&gt;&lt;/font&gt;" style="ellipse;whiteSpace=wrap;html=1;aspect=fixed;fillColor=#FF6666;strokeColor=#b85450;fontFamily=Times New Roman;" vertex="1" parent="1">
          <mxGeometry x="1146" y="1150" width="114" height="114" as="geometry" />
        </mxCell>
        <mxCell id="OX4_WaIUidkAhvoHWbg--42" style="rounded=0;orthogonalLoop=1;jettySize=auto;html=1;entryX=0.5;entryY=1;entryDx=0;entryDy=0;fontFamily=Times New Roman;strokeColor=#FFFFFF;" edge="1" parent="1" source="OX4_WaIUidkAhvoHWbg--24" target="OX4_WaIUidkAhvoHWbg--25">
          <mxGeometry relative="1" as="geometry" />
        </mxCell>
        <mxCell id="OX4_WaIUidkAhvoHWbg--24" value="&lt;font style=&quot;font-size: 20px;&quot;&gt;&lt;b&gt;PC2&lt;br&gt;Foothold&lt;/b&gt;&lt;/font&gt;" style="ellipse;whiteSpace=wrap;html=1;aspect=fixed;fillColor=#FF6666;strokeColor=#b85450;fontFamily=Times New Roman;" vertex="1" parent="1">
          <mxGeometry x="1154" y="1800" width="106" height="106" as="geometry" />
        </mxCell>
        <mxCell id="OX4_WaIUidkAhvoHWbg--43" style="rounded=0;orthogonalLoop=1;jettySize=auto;html=1;entryX=0.5;entryY=1;entryDx=0;entryDy=0;fontFamily=Times New Roman;strokeColor=#FFFFFF;" edge="1" parent="1" source="OX4_WaIUidkAhvoHWbg--25" target="OX4_WaIUidkAhvoHWbg--26">
          <mxGeometry relative="1" as="geometry" />
        </mxCell>
        <mxCell id="OX4_WaIUidkAhvoHWbg--25" value="&lt;b style=&quot;font-size: 20px;&quot;&gt;PC2 &lt;br&gt;Privilege&lt;/b&gt;" style="ellipse;whiteSpace=wrap;html=1;aspect=fixed;fillColor=#FF6666;strokeColor=#b85450;fontFamily=Times New Roman;" vertex="1" parent="1">
          <mxGeometry x="1152" y="1670" width="108" height="108" as="geometry" />
        </mxCell>
        <mxCell id="FzNVtBH7PJN-r4qkTWvE-5" style="rounded=0;orthogonalLoop=1;jettySize=auto;html=1;exitX=1;exitY=0.5;exitDx=0;exitDy=0;entryX=1;entryY=0.5;entryDx=0;entryDy=0;edgeStyle=orthogonalEdgeStyle;strokeColor=#FFFFFF;" edge="1" parent="1" source="OX4_WaIUidkAhvoHWbg--26" target="OX4_WaIUidkAhvoHWbg--27">
          <mxGeometry relative="1" as="geometry">
            <Array as="points">
              <mxPoint x="1290" y="1580" />
              <mxPoint x="1290" y="2160" />
              <mxPoint x="907" y="2160" />
            </Array>
          </mxGeometry>
        </mxCell>
        <mxCell id="FzNVtBH7PJN-r4qkTWvE-15" style="edgeStyle=orthogonalEdgeStyle;rounded=0;orthogonalLoop=1;jettySize=auto;html=1;exitX=0.5;exitY=0;exitDx=0;exitDy=0;entryX=0.5;entryY=1;entryDx=0;entryDy=0;strokeColor=#FFFFFF;" edge="1" parent="1" source="OX4_WaIUidkAhvoHWbg--26" target="OX4_WaIUidkAhvoHWbg--21">
          <mxGeometry relative="1" as="geometry" />
        </mxCell>
        <mxCell id="FzNVtBH7PJN-r4qkTWvE-17" style="rounded=0;orthogonalLoop=1;jettySize=auto;html=1;exitX=1;exitY=0.5;exitDx=0;exitDy=0;entryX=1;entryY=0.5;entryDx=0;entryDy=0;edgeStyle=orthogonalEdgeStyle;strokeColor=#FFFFFF;" edge="1" parent="1" source="OX4_WaIUidkAhvoHWbg--26" target="OX4_WaIUidkAhvoHWbg--18">
          <mxGeometry relative="1" as="geometry">
            <Array as="points">
              <mxPoint x="1260" y="1580" />
              <mxPoint x="1290" y="1580" />
              <mxPoint x="1290" y="1166" />
            </Array>
          </mxGeometry>
        </mxCell>
        <mxCell id="FzNVtBH7PJN-r4qkTWvE-27" style="edgeStyle=orthogonalEdgeStyle;rounded=0;orthogonalLoop=1;jettySize=auto;html=1;exitX=1;exitY=0.5;exitDx=0;exitDy=0;entryX=0.5;entryY=1;entryDx=0;entryDy=0;strokeColor=#FFFFFF;" edge="1" parent="1" source="OX4_WaIUidkAhvoHWbg--26" target="OX4_WaIUidkAhvoHWbg--15">
          <mxGeometry relative="1" as="geometry">
            <Array as="points">
              <mxPoint x="1380" y="1580" />
              <mxPoint x="1380" y="2230" />
              <mxPoint x="500" y="2230" />
            </Array>
          </mxGeometry>
        </mxCell>
        <mxCell id="FzNVtBH7PJN-r4qkTWvE-30" style="edgeStyle=orthogonalEdgeStyle;rounded=0;orthogonalLoop=1;jettySize=auto;html=1;exitX=1;exitY=0.5;exitDx=0;exitDy=0;entryX=0;entryY=0.5;entryDx=0;entryDy=0;strokeColor=#FFFFFF;" edge="1" parent="1" source="OX4_WaIUidkAhvoHWbg--26" target="OX4_WaIUidkAhvoHWbg--12">
          <mxGeometry relative="1" as="geometry">
            <Array as="points">
              <mxPoint x="1380" y="1580" />
              <mxPoint x="1380" y="800" />
              <mxPoint x="410" y="800" />
              <mxPoint x="410" y="1410" />
            </Array>
          </mxGeometry>
        </mxCell>
        <mxCell id="OX4_WaIUidkAhvoHWbg--26" value="&lt;font style=&quot;font-size: 20px;&quot;&gt;&lt;b&gt;PC2&lt;br&gt;Exfiltrate&lt;/b&gt;&lt;/font&gt;" style="ellipse;whiteSpace=wrap;html=1;aspect=fixed;fillColor=#FF6666;strokeColor=#b85450;fontFamily=Times New Roman;" vertex="1" parent="1">
          <mxGeometry x="1150" y="1534" width="110" height="110" as="geometry" />
        </mxCell>
        <mxCell id="OX4_WaIUidkAhvoHWbg--44" style="rounded=0;orthogonalLoop=1;jettySize=auto;html=1;entryX=0.5;entryY=1;entryDx=0;entryDy=0;fontFamily=Times New Roman;strokeColor=#FFFFFF;" edge="1" parent="1" source="OX4_WaIUidkAhvoHWbg--27" target="OX4_WaIUidkAhvoHWbg--28">
          <mxGeometry relative="1" as="geometry" />
        </mxCell>
        <mxCell id="OX4_WaIUidkAhvoHWbg--27" value="&lt;font style=&quot;font-size: 20px;&quot;&gt;&lt;b&gt;PC3&lt;/b&gt;&lt;br&gt;&lt;b&gt;Foothold&lt;/b&gt;&lt;/font&gt;" style="ellipse;whiteSpace=wrap;html=1;aspect=fixed;fillColor=#FF6666;strokeColor=#b85450;fontFamily=Times New Roman;" vertex="1" parent="1">
          <mxGeometry x="827" y="2100" width="110" height="110" as="geometry" />
        </mxCell>
        <mxCell id="OX4_WaIUidkAhvoHWbg--45" style="rounded=0;orthogonalLoop=1;jettySize=auto;html=1;entryX=0.5;entryY=1;entryDx=0;entryDy=0;fontFamily=Times New Roman;strokeColor=#FFFFFF;" edge="1" parent="1" source="OX4_WaIUidkAhvoHWbg--28" target="OX4_WaIUidkAhvoHWbg--29">
          <mxGeometry relative="1" as="geometry" />
        </mxCell>
        <mxCell id="OX4_WaIUidkAhvoHWbg--28" value="&lt;font style=&quot;font-size: 20px;&quot;&gt;&lt;b&gt;PC3 &lt;/b&gt;&lt;br&gt;&lt;b&gt;Privilege&lt;/b&gt;&lt;/font&gt;" style="ellipse;whiteSpace=wrap;html=1;aspect=fixed;fillColor=#FF6666;strokeColor=#b85450;fontFamily=Times New Roman;" vertex="1" parent="1">
          <mxGeometry x="827" y="1970" width="110" height="110" as="geometry" />
        </mxCell>
        <mxCell id="FzNVtBH7PJN-r4qkTWvE-4" style="rounded=0;orthogonalLoop=1;jettySize=auto;html=1;exitX=1;exitY=0.5;exitDx=0;exitDy=0;entryX=0;entryY=0.5;entryDx=0;entryDy=0;strokeColor=#FFFFFF;" edge="1" parent="1" source="OX4_WaIUidkAhvoHWbg--29" target="OX4_WaIUidkAhvoHWbg--24">
          <mxGeometry relative="1" as="geometry" />
        </mxCell>
        <mxCell id="FzNVtBH7PJN-r4qkTWvE-6" style="rounded=0;orthogonalLoop=1;jettySize=auto;html=1;exitX=0.5;exitY=0;exitDx=0;exitDy=0;entryX=0;entryY=0.5;entryDx=0;entryDy=0;strokeColor=#FFFFFF;" edge="1" parent="1" source="OX4_WaIUidkAhvoHWbg--29" target="OX4_WaIUidkAhvoHWbg--21">
          <mxGeometry relative="1" as="geometry" />
        </mxCell>
        <mxCell id="FzNVtBH7PJN-r4qkTWvE-7" style="rounded=0;orthogonalLoop=1;jettySize=auto;html=1;exitX=0.5;exitY=0;exitDx=0;exitDy=0;entryX=0.5;entryY=1;entryDx=0;entryDy=0;strokeColor=#FFFFFF;" edge="1" parent="1" source="OX4_WaIUidkAhvoHWbg--29" target="OX4_WaIUidkAhvoHWbg--18">
          <mxGeometry relative="1" as="geometry" />
        </mxCell>
        <mxCell id="FzNVtBH7PJN-r4qkTWvE-26" style="edgeStyle=orthogonalEdgeStyle;rounded=0;orthogonalLoop=1;jettySize=auto;html=1;exitX=0;exitY=0.5;exitDx=0;exitDy=0;entryX=0.5;entryY=1;entryDx=0;entryDy=0;strokeColor=#FFFFFF;" edge="1" parent="1" source="OX4_WaIUidkAhvoHWbg--29" target="OX4_WaIUidkAhvoHWbg--15">
          <mxGeometry relative="1" as="geometry" />
        </mxCell>
        <mxCell id="OX4_WaIUidkAhvoHWbg--29" value="&lt;font style=&quot;font-size: 20px;&quot;&gt;&lt;b&gt;PC3&lt;br&gt;Exfiltrate&lt;/b&gt;&lt;/font&gt;" style="ellipse;whiteSpace=wrap;html=1;aspect=fixed;fillColor=#FF6666;strokeColor=#b85450;fontFamily=Times New Roman;" vertex="1" parent="1">
          <mxGeometry x="827" y="1843" width="107" height="107" as="geometry" />
        </mxCell>
        <mxCell id="OX4_WaIUidkAhvoHWbg--91" style="rounded=0;orthogonalLoop=1;jettySize=auto;html=1;strokeWidth=5;fontFamily=Times New Roman;" edge="1" parent="1">
          <mxGeometry relative="1" as="geometry">
            <mxPoint x="430" y="-585" as="sourcePoint" />
            <mxPoint x="1060" y="-585" as="targetPoint" />
          </mxGeometry>
        </mxCell>
        <mxCell id="OX4_WaIUidkAhvoHWbg--88" value="Vulnerable Network&amp;nbsp;" style="text;html=1;strokeColor=none;fillColor=none;align=center;verticalAlign=middle;whiteSpace=wrap;rounded=0;fontSize=40;fontFamily=Times New Roman;" vertex="1" parent="1">
          <mxGeometry x="300" y="-610" width="60" height="30" as="geometry" />
        </mxCell>
        <mxCell id="OX4_WaIUidkAhvoHWbg--90" value="Attack Graph" style="text;html=1;strokeColor=none;fillColor=none;align=center;verticalAlign=middle;whiteSpace=wrap;rounded=0;fontSize=40;fontFamily=Times New Roman;" vertex="1" parent="1">
          <mxGeometry x="1100" y="-600" width="60" height="30" as="geometry" />
        </mxCell>
        <mxCell id="l-SfEEKB4fCitkcyvAka-1" value="Text" style="text;strokeColor=none;align=center;fillColor=none;html=1;verticalAlign=middle;whiteSpace=wrap;rounded=0;" vertex="1" parent="1">
          <mxGeometry x="907" y="1275" width="60" height="30" as="geometry" />
        </mxCell>
        <mxCell id="l-SfEEKB4fCitkcyvAka-2" value="&lt;div style=&quot;font-size: 40px;&quot;&gt;&lt;b&gt;&amp;nbsp;Attack Graph&lt;/b&gt;&lt;/div&gt;&lt;div&gt;&lt;br&gt;&lt;/div&gt;" style="text;html=1;align=center;verticalAlign=middle;resizable=0;points=[];autosize=1;strokeColor=none;fillColor=none;fontColor=#FFFFFF;" vertex="1" parent="1">
          <mxGeometry x="623" y="677" width="280" height="74" as="geometry" />
        </mxCell>
        <mxCell id="B1652K9h7U0t8Wv4ZY-6-1" value="" style="edgeStyle=none;orthogonalLoop=1;jettySize=auto;html=1;rounded=0;" edge="1" parent="1">
          <mxGeometry width="80" relative="1" as="geometry">
            <mxPoint x="368" y="377" as="sourcePoint" />
            <mxPoint x="448" y="377" as="targetPoint" />
            <Array as="points" />
          </mxGeometry>
        </mxCell>
        <mxCell id="B1652K9h7U0t8Wv4ZY-6-2" value="" style="edgeStyle=none;orthogonalLoop=1;jettySize=auto;html=1;rounded=0;strokeColor=#00CC00;endArrow=box;endFill=0;fillColor=#d5e8d4;strokeWidth=2;" edge="1" parent="1">
          <mxGeometry width="80" relative="1" as="geometry">
            <mxPoint x="289" y="385" as="sourcePoint" />
            <mxPoint x="293" y="303" as="targetPoint" />
            <Array as="points" />
          </mxGeometry>
        </mxCell>
        <mxCell id="B1652K9h7U0t8Wv4ZY-6-3" value="" style="shape=image;verticalLabelPosition=bottom;labelBackgroundColor=default;verticalAlign=top;aspect=fixed;imageAspect=0;image=data:image/png,iVBORw0KGgoAAAANSUhEUgAAAhYAAAIrCAYAAACzo9CgAAAAAXNSR0IArs4c6QAAAARnQU1BAACxjwv8YQUAAAAJcEhZcwAADsMAAA7DAcdvqGQAAOchSURBVHhe7L0FuCzF9a/d+e5NQnB3d3d3d3fXBLfgFiA4JBA0JCG4Q3AL7gR35+AHO7hD/vfe8827OL+hdp/Z1lXT0zOz3uep3b17ZsrWqlWrq6qrfzG8RuY4juM4jpOA/2/E0XEcx3EcJxp3LBzHcRzHSYY7Fo7jOI7jJMMdC8dxHMdxkuGOheM4juM4yXDHwnEcx3GcZLhj4TiO4zhOMtyxcBzHcRwnGe5YOI7jOI6TDHcsHMdxHMdJhjsWjuM4juMkwx0Lx3Ecx3GS4S8hcxxnJAZqFn7xi1+MOHMcx/kJdywcx3Ecx0mGOxaO06XQ9Blx6M8E5D/vb5RCcfpohuN0J+5YOE4Xoo4/bP6hI/D//t//s8Dn/+t//a/s//v/flqOpevAdf1G8YXn4TXHcboHdywcp0vJd/z8T8Bx+N//+3+PuPoTX331lTkXo48++ogrP/F//s//sesEmRJ3Khynu3HHwnE6nP6aOJ/jIOAI/PKXv7RrP/74Y3bHHXdkN9xwQ/bUU09lw4YNs88nnHDCbL755svWXHPNbNlll61//3/+538snnB0ozfc4XCczsYdC8fpQmj2hP/7f/9vD2fgtddey6688srskksuyV544QW71htzzTVXttlmm2Xrr79+Ns0009g1TZXgPBCnOxGO0324Y+E4HQDNmE68v+bM51ojoemOH374Ibvzzjuz888/P7v55puzb7/91q7LOeA3il/XiUNpjTnmmNlqq62WbbXVVtkyyyyT/epXv7LrjILAQBwM5b2/7zmOU33csXCcDocmrpGEcHTi9ddfz6644ors0ksvzZ577jm7BnwndBx6Qw4Dox5innnmyTbZZJNsww03zKaaaiq7xudKm+/LeQgdifDccZz2xh0Lx+kAemvG6vQ1OsHaidtvvz278MILbXTim2++ses4CQSNMgwGHAI5IwQYa6yxsjXWWCPbcsstbRRD6St+ORnKt87duXCc9scdC8dpM/prsnTuOBR05hqdGDJkiK2duPjii3usnaCDJz45BLHgGJBmOIrBWozNN9/c1mJMPfXUdo309EQJeegLdzYcp71wx8JxOgA6apoyIRyduOuuu2ztxC233GKPjAKdOZ112Pk3g7zTMvbYY9tajK233jpbaqml6k+U6IkUOSWO47Q37lg4TgUZaLOk0ybQiatTfuONN2ztBE925NdOQLMdihA5DHlHhrUYm266abbRRhtlU0wxhV0b7CgGdcTRcZxq4Y6F47QZciYgHJ3gyQ6tndDoBB0vHXWZzkRf4DCQd5mdccYZJ1t99dWzLbbYouFaDPIuhyl0JNypcJzq4o6F41SQRs2SaxqdUKfK6ITWToSjE0wz4EzIAakachjkQACjGKzFWG+99epPlFBmysF3Q0eCcz5z58Jxqoc7Fo7TYtRBNmqKXKNj5aj9If773//a2okLLrjARie+/PJLu04cdMDhiEDVaZRnRjFYi7HNNttkSy65ZH0Ug3ID/zdyKFSHjT5zHKc83LFwnAqQ7xDlTOjOHt588836rpjPPPOMXQM6Wjrmqo5ODBSVNRzFmH/++W0tBk+UhGsxCNRXuBbDnQrHqQbuWDhOkxloE+N7cg50l847OFg7wejEjTfemH399dd2nQ5Yd+jt7lDkkcMg5wp4ooT3k2gthhwKnBC+E04P9Yc7H47TXNyxcJwWIseAY3504l//+ld20UUXZc8++6xdAzpQfb8bkAOFkyF4CRprMdZdd91syimntGvUCYHv6jeO47QGdywcp8n01sTkIIRrCO6+++76OzvCtRM4FOEUQbchhyF0qsYdd1zb3ZN3lLAWIxzF0Pcb4U6H4zQXdywcJyH9NSc6Rjo+ntpQx/fWW2/Vn+wI107QURIfv3F+ptEoBmsx9KbVySef3K7xOYHvy+noDXc2HCcd7lg4TpPBMZBzEK6d4MkO9p1g7YRGJ9QBhnfmTmNwBqivsH4ZxWAtBu8oyY9iAP+7E+E4zcUdC8cZJANtMurw6MzC0YmrrrrKHIp2GZ0g78p/2IlXid5GMVjsuc4664y0u2cok94gPmTijojjDA53LBwnIWHHG45O3HvvvbZ24qabbso+//xzuw50cGFnWCV6c3ZCJ6OK5Ot0/PHHr79pdfHFF6/Lhe9QvtBxCnGnwnGK4Y6F4/SBOpf+mgmf01HRaakzeuedd+prJ5566im7BlXeFZO808mGHfNMM81kd/5sG05Z2O1T0IlTjiqaETkM4aLXBRZYoL6752STTWbXyD+B74aORCO561r4PcdxeuKOheP0QV/Ng89016tdMenEWDvBY6LXX3992+yKmR+dGHXUUbMVV1zRnrjgyP/APhqMulC+2267zUZjgN9D6JBUBdV9mDfWYqy99trmMLEWg8+BJ3P4PuXpy3lwx8JxescdC8cZBOp8OdIZqUN6++23be0EHW44OsEIhu6Iq0ajDnfGGWfMNtlkk2zDDTfMZp111hFXf3rJGfz617+2I7BGhF1AeZMqa0dElUcx5DDkRzGYJsHR0BMl5J16kZPhOM7AccfC6XoG0gTU0QBTGcD/7DuhXTG1dkIddhU7V+WNfMnZGWWUUbKVVlrJOteVV165PjpB+fge3+d3oHrgmjrcL774wkYxWJB6xx131OtJn1e5HpRX0FoMRmmWWGIJ+xzCURnVQyP4jHL29R3H6QbcsXCcPlDnGnYqrJ1gdIL1Bk888YRdA77Dd9tldIK1ExtttFG28cYbZ7PMMsuIqz91pCpvo06S8nGdI0GOFjBac+mll9raEo1iKO0qOhhA3shjWDcLLbSQ7YvBWoxJJ53UrpF3vsN35TSF8Hmj+nKcbsMdC6erkLrTAfSm+lyXcxA+QcDoBHflrJ3gLh3aodMElUejE1o7Mdpoo9l1pgbIf3935Y0gbgK/U32xtoRRHEZzWHOiqYd8fqqEZBnKn1EMpkhY8MlaDNWNyhM6GHyW1wFd0+8cpxtwx8LpKmTkG6k9nQkOBJ2FOox33323/s6OJ5980q4BnxNHFTtIOkdCuI5ghhlmsJEJQrh2or/Rib5QXQrVByE/isFaDEYxWIsiSJfvNpJFq6H+KFs4irHgggvadBH7YmgUg8+pZxwqOSWN6nGwdes47Yw7Fk7XERp/zvPD2/zPvhPcbd9www3ZZ599ZtcbddhVgryBnB0WWjI6wZMPrJ0YffTR7Tr5p9x0hmFdNKLRZ/2ZDMXJExbUqUYxqMdbbrnF9vPgja3KZz7fVUJ6gU6o3BNMMEG21lprmZOx6KKL1vUmHMXoq04dp9Nxx8LpOAai0nRiBDoBdWyMTlx99dU23dEuaycaOTt9jU7o+0Dnl6+r8JrOG3WSup7/fSPUKedHMVijwigGa1ZE1euaMlMewVoMHDfetDrJJJPYNT4PRzEGQqM6dpx2xR0Lp6NAnXsz0nyG0efz8C6T0QmmOq677rq2eLID1GGpA2YfjRVWWCHbeuute4xOqFPn+/lOrq+6SonqT/VPPlT/rFVhVIjRIdawqNPOl69KSDeUV2AUQ2sx2N1T+fdRDKcbccfCaWvUOUqNw3NB50TgDlLGfejQofXRiccff9yugaYHwk6jKjTq0Kaddtr66MQcc8wx4urIoxONUF2pTlLRn0w4l8MWjmKwhoVRDNa05Ecx9P2qQf1SvlAmCy+8cH1fDI1iSAf1/b5QffX3PcepKu5YOG2LjG8jFeYaxp6jdsXkf0YncCa4S/7000/tOlS58yJv5Iv8AZ0xT3TQea2yyirZGGOMYdcpH98JHagqQN576yy5xl09ZZQTxKgR+2KwFoMnSlTufD1UCcpF/kMHY8IJJ+wxiqGys9kY39Xak5De6slx2gl3LJy2JjTCnBPoeOiEdP29996zu2CeTHj00UftGmDY+W67dFTTTz99tv7669vOmHPOOeeIqz91VJRXHW9vnRLX+/q8WZAmKP08yhMOBrIId/dkrQujGOwb0i6jGNI9TYMAizxxMHiiZOKJJ7Zr5D3vVKkudHScdsQdC6fSDFQ9ZcQ1tE6nc99999ncPWsn9GQHxhojXuVOCeRQUJ7ll1/e9p1gdGLMMce06xqdUCfWG+qkwvNWdFj5PPQFn1M+5KT6YBSD/UMYbbrnnnvq9aPPqyhPypp3DtkXg0232HwrHMXQO0oajWKEqP70O8epIu5YOG0LBhv1DTtX1k5cc801thgzHJ3gO3yXDqhqkPd8BzTNNNPYrpj50YlGT3Z0IsiJsknG4VoM1sRoXwzkLZBxVR1GyUv6R9kWWWQRe6KE6ZJwFIMyhzIO4fNOlbnTObhj4VQKGc7e1JLrMs66u+NauO/EJ598YteJB+PcLp2NRifobFZbbbXCoxPt1vEoz33JiM/U4WqUgjUy2t2TJ0r0e30eOmpVgXKSPzlMMNFEE9kUCVMliy22mF0DnEh9XzSqJ13j6DhVwB0LpzLIODZSSTpWjDFGVoaWtRN6Z0c7jU6Qv3D+ndEJ3ia66aab9hid4Dt8n860Uaeh+upUGpVPcuUYThswiqEnStp1FANwLLQWA4cD0AN0n/LqN6C66XQ9cNoPdyycShEaSc4xqPwvZwIjfP/999tc+7XXXlt/soPP+V54J1gl8p0IT6osu+yytnaCfSfGHntsu04nwnfoRPrrLDq5M5Ee9CVL6on6oq6kH+EoBmsxVN+NOvGqIP0OdZcnSrQWg4WfkrUcUpUXVE+drA9Oe+GOhVMqA1E3jD8B46kO4f3336+vnXj44YftGvAd4qxih0HeCeoMYKqppqrvOzH33HOPuNp43wnvMBqjOgl1Cfnzf34UA31hLQb6I/iOdKxqIH/KhpMhGMXAAWUbcRwOGKgD6jrktAJ3LJxKgBrKmKpz4JpGJ3iy4+OPP7brGEkMsDqTqiHnQB0Xzs9yyy1n+06wdkKjE5SX7/C5DH/YAVA27xAak68b6pH/pUfIQHf16A1PlDCKwZNCIi+nKkFZyF/oYLDAU2sxGMUQ4ShGXl9ch5xW4I6F0zRk1PpSMYy6OlcZ+g8++MBGJ3AowtEJHA7iCo1tVWjUEUw55ZTZBhtsYMPZ88wzz4irPz1aGJa3N1R33jH0pC+9Cq8jC87DJ0oeeeQRG8VgbQ56JpAHetgozlaDnlCuULd4VFVPlGgUg/zzHTlU/KZRPekaR8dpBu5YOKURqhoGEEOoXTH5rB1HJ2TEZfTpxJZaaikbnVh99dWzccYZx66TfwLfd4PePNCRfP1yDfmgR3LmeHKINTroWziKgXz4PrKqGmoLoYPBAk/WYjCKweOrAueV76o8/JbQqH4cJzXuWDhNI69a/I9RDOeFmfvGwHMX+Z///MeuQZXnwRsZ+Mknn7z+ZMd888034mpPAz8Q3OgXQ7qmzrM3mDbg89ChZVSMJ0p4d0y7jGLIQQ3X7yyxxBI2irHGGmv0u7snuK45zcIdC6cwA1UdGb9wSDocnRg2bNiIq9U25vmpGAw1T3bImIejE3xHxh/U4bkxbw15fZKOIUN1uIySaRQD/RSSIzKtml6SL/IfOrm8+IzXuDMFlx/F4Ptaw9QfrqtOUdyxcJqCOtf86ASOBIY7HJ3AcKOG/KZqNDLcU0wxRf1RwPnnn3/E1d6f7HCqRd7kyWEIHV/0Ez3F0WintRgQtqMll1zSHN8111yzvhaDvOdHMRwnJe5YOAMGVaGj7E1luC6jFt4VcffHVAcLMtvpyQ7yKIcCI8zaCR77Y+3EuOOOa9fVKen70Fcd6TtOuQxEx9BF5ImsCaBRDJ4oeeCBB+waNOrEq0KjtsXUCC+wwxnmte5Cu3uG+tsI6bTrrzMQ3LFwBoSMSmhcpDocuQPCOMmh+PDDD+v7Tjz00EN2DdrBIIejE5NNNll97UQ4OqHpHTqgvLEN68hpP5AfOoAM5WCARjFYi/HRRx+NuNpeoxiUiVEMFnuyL8YEE0xg19FnvhOOMIY67DrtDAZ3LJwBI+MilVEHHI5OcFen0QmtneA3GF/d3VeNRsZ3mWWWqQ8hh6MTGGDKq980IqwjN8bVZKB6iE4gd/RXTgZOhab0wlEMPide6VGVQF8Jcohh0kknrU/pLbTQQiOu+mZtTjzuWDh1BqIKfAfjFBpaRidkaB988EG7BlU2tBhIHATKonKzdoJFb9zN5ddO8H2VN8QNbWfSqC00cqQZjUPvcaTDUQy+g95X1clAb1UeWHrppeuLkPsaxWgEn1Ff3hYc4Y6F0y+oSN6ocg0ngsf0QqOKccFwYZCqqFq6C5PBJ788prfNNtuYUR1vvPHsOuXlOzgTMphuOLsb9AEd4CjdkD7hXOuJknae+tMoBlN/4VoMjXSE7UHQzr1tOCHuWHQpMgZ9iV8GFOOju3WmN2RA88PAEBqpqkA5yV84DMwjeSxmY3RiwQUXHHG1pwEVjepJ19ygdiYDaR98JochHMXA4WY6kLUY7fIodb79UnYWK2s6cPzxx7frocMNvem/t4/uxh2LLibf8KUKMh7aRAg05ItTwd0Z8FucjnYyloxOsCsmC9dkLMk/gbLoDjMkX0+Ok6eRDjGKx2hefhQDvUSn+H7VUJsObxDY/E37YoROeH7zt7wt8TbTvbhj0aWo4Uv8HDEm4XwqDoRe3hSuneA7+n7VaGQYGZ3Qtsf5RWoQ3m02QvXkhrK7UVvpC7ULjuHunqFj3g5PlKgdcQxH+hqtxSD/lJmyqI14m+lu3LHoYAYiWgwChiEcneCxOg3lanQCqmoEQUYtnMrgddOMTmAEG20OxPdl+LjuRtCJJdQjORh00ATAqaBd4WTkN4kL9bdKkK+8s85aDF6wx1qMcBTjxx9/tLIQeoP4vL11Nu5YdCHhHYYMHnPBerIjv50xKsJvqkYjg8dGQBqd6G8jIBm48FyfOc5gyOtRHjkZ2t2T9hQ+UaKN44A2V1UHXu1HbY68si8GDnz4aLZsTDgCKryddT7uWHQI/YmRz2UM8lsXt+PoBIQOhV7AxGuk+xqibYQ6Azd2Tiz59iLdEugkAZ2UU0+70ygGL0QTfIff8v2qQbnyTj1rMbQvxgILLDDi6sB291Q99fa50164Y9FhhI2TcwKNn2taS8DohNZOtPPoBMOxOBI4FAN9NM5xyiRsjyFql6B2ybV7773XHH1GD3m1O0j3aZd8p2rIQZLdIL/aYC58hBsHg/yrvPod9FZPTnvijkWHIDHSODmnkRPyoxP510PzfTpgfb9q6C4ndChYO7H11lv3eLESeZcDRXkGghsyp5kM1LRKd9Fb6S4v7LvqqqvMyXj00UftGvC52nfVoK0SwnUijGKwFmPjjTfusRYDJ0PfB9ktb5OdgTsWbUJ/YtLnGCgaqwwUdz2sRMdA3XffffXvqUFX0UBhXLirwUApvxNNNFF9mHXRRRe1axCOToAbKKedkH6jr7RF/iforp5r4SjGp59+atfVxsM2UiXy9oW86okSbgjGGWccu64ns8L22xfertsDdyzaBMTUqFFxncZLCEcnmKtldIK7Ho1O0NhDA1Y1Gjk7OBEsDFtnnXVGGp3g+wTVDaG3enKcKpNvj2rTdLhqF++99561Z9p1u4xi0BbJfzjiyNb5bE6Xf7FfOIrhbbi9cceigjQSiTpNIcNDI5S3z8py1k6wCCwcndDnYeOuCpSL/JE35ZfRCTaw4u5m8cUXt2ugRWAqD6hewvoJrzlOVcnrbSP4TA5DuBbjnnvusXZOe9coBnFhD/h+X3G2irwdIq+sxdAj4RrF4HPZNsrUXzv2dl493LFoEyQmGhwNL9x3grsXFmLy2Bpzs1B1IyOjETo7LMDcaqutbEEmj42CHA6+GzoUQp/p6DiditoCbYcAQ4cOtTVTTJU89thjdg1oK3xXTkmVkG0K2/6UU05Zn+qcb775Rlz9aXdPyqLyehtvD9yxqCihWDinEYYNjLUTerKjnUYnyH/o7LCttt4oyiOjQnOvfF9lboScCp07TrsStvm+kD0ATX/yv9ZisKbq888/t+uN2lxVUN5A5WFUJtzdMz+KgX3Lt3Nv99XDHYsWMZBqpyHRoPKjE1o7wZyroMFV0XiAjEG4WnyRRRYxZ4K1E2y5DeSfIIMjg0GZ3Hg4Tk9oFwRsBB2y2si7775bH8V4/PHH7RrwHbWxqqE2LwcDGMXQ7p7zzjvviKs/7e5JWfq64RBuN1qDOxYVQ4aCRqOGw9qJG264weZUuSuRyOiwOW8XQ8HiS1aEM6fK2gk1eq2d4Pu6xlHl1Lk+c5xuRO2hEXymthaOYmgtxo033lhfiwFVvhGRHVB5yOuyyy5bH8UYe+yx7bqcJN24ONXBHYsS6K+K+VyNPHyygzlTjAJ3H+0yOpE3CsCLvzAKTHlodIK8853QmegNPuf7bjycbkZtoL92r7aVH8XQvhhPPPGEXYN2uzmZaqqp6msxwlGMRjcneVR3vX3upMMdixZBtRNoNCg6RgA+++yz+js7GJ1Qg28HAxA6O6yd4MkORidYO6HGHO474Q3ccZoH7VH2QvYFe6NRDOzMF198YdfVhsNOvErIYVD+KE/4RMlYY41l17U2S/YltDHYJrc55eCORSKktAOpTjX4/OgEayf+9a9/9Rid4Ds0JhmIKpFv7MDoBGsnuKsI107wHb7b1x1FiBsAx+mfgZpv2Rw6XNogMIpx5ZVXZpdccknbjGKQd0K4XotRDNZibLLJJiONYsjeKPRWX/rM7U4a3LFIRH/VyOfqXHX3wJxnuHZCHbQafhUbtvIf7vjHS7+4a+DugTcdqnHyHc4JKpPjOK1Ddghkh2injGLwhNlNN91ko6agTpzvV7GbyNtJHKLll1/epl1XW221+lqMgUyTiP4+dwaGOxZNhKrVnUI4OsFKbY1O8Bw6SOn5blUbMfmTUQJ2zcOZYO3EZJNNZtf4nDLwfTV84Lf5cnkjdpzmQptr1PZAtikcxXjnnXfMLmGfnnzySbsGVR7FoHzkP7RNGsVgLcbcc8894urPoxgEtz/Nwx2LAvTVWIHGh5LTGAnAc+XsO8HiqbvvvrveCKTgYaOoCuSL/JM3lZXnylk7wXQHc5wySOHaCdFbHek6R8dxmkPeTvXWHkH2JxzFwE4xmord+vLLL+267BU2rre4WkneAeKGTk+U8ETaGGOMYdc14ionoxFup4rjjkUi1NBooOG+E8xd4kyEoxMoKspc1cYp4xE6O4xO8Dw5e/yz1z+Qf4LKk2+A3igdp73QTUTY4b799tv1d5S08yjG1FNPnW244YZmx+aaa64RV3uuxVCZnTjcsWiAOsSBVI0aFt/X3TprJ3hunDnLcO0En/M93d1XDfIXOjvjjjtufe3EUkstVS8f2+zK8FCe3gjrsK/vOY5TDgOxacD3ZLc0jatRjPPOO8/WYmgUg7aNLQhtR1Ugb7JbsrvhKEa4FiN0qvqzV7Jtbtca445FL0hpGlUP1wgoYjg6gTfP6ATePXOVIt9hV4lGzg4rq7XvBLvfAXnnO/q+NyjH6Xxk67BfavvwxhtvmJ3jiZKnn37argFTKXyXUDXIO05DOIox7bTT2igsazHmnHNOu0Z5GcXoz9Zxne/29nk3445FA6QseaXhf5SSaygdsIKaJzsYJrzrrrvqSsvnfL/KDSx0dlg7wegEayfw5lW+ga6o7uszx3HaA9mDRsj+gUYxsA933HGH3VAxSvvVV1/ZddmMsBOvErJnYXn0RMnqq69eX4vB55Q7dKqc/ul6x2IgxedOne/l107gTLTT6ASNiRCOTvAmQeYcWUGttRPkne/o+42gkfG98Og4TmfQn/3ic+xc2OG++eab9X0xnnnmGbsG7XCTFTpA00wzTf2JEo1iwECngKHb7aGPWDSAKgkbglZKMzrB3CJrJ3juWx10lRsOkL+w4TA6gVfO2gneJBiuBKdBqLE5juP0BTYvbyfpgBm95YmSRmsx2mUUgxvJ5ZZbzuzkqquumo055ph2PT+KS3B60hWOBUVE+AMpqhqKhvrgqaeeqq+dYIW0qPJ8Yr6RwDzzzFPfFZPnvIE60apoHJCB4o3JcTqfwXQPsoXYEewJsBaDUQxGd5977jm7BlW+GWtkO1mLoVGMOeaYY8TVgU8VA5+rL+p0umbEQgJVcSVc/idIweV142VrV0y8b41OqMFUsUFQJjVYNQpWPGt0gn0nfHTCcZxmIvsjewS86vzOO++0GzRGMbQWQ5+HnXiVyNv7X//61/W1GIxihPtiQCMHQ/9TL/nPOpWuG7EIhYyycFRnCzzZwRwhXrbWTvAbGgDKX8XqkjKHjZPRCa2d0OgE5eU7fF8NJqwTyNeT4zhOb/RnD2UzsZ+yOYxiXH755dlll12WPfvss3YN+I5sctXAHpL/0MYyisG+GLyjJFyLwSgGZeE3sqfQTba14xyL/orD53iXKIkcCnbFvPnmm23tBM9poxjAd1CCqip7viHyhj+86K222spGJ7TYVKMTath5ukHRHccph95sZf5GjlEMRoOxu4xifP3113ZdtirsxKuE7CjlAewsoxjY3VVWWcV396zRFSMWUmiOKLWEyMpl7Yr51ltv2TXgO/K0q0ajRoe3zNwfayemm246u0ZZ+U7oOTuO47QK2VPZ47DDHTJkSP0dJc8//7xdg6qPYpA/TYMA9nejjTay0eLZZpvNrpF33cwSQlvMZ51om9vSsZAw+ss6n9O58l15yayd4Hlr1k7w/LU6aHXAVXQoyBcKSb5oZDD66KPX107gLYfPlYPKMxAG+j3HcZz+GKj9lH0G2S+eKMEuM4qBnf7222/tujrkKjoZ5At7G5aHUYwVVlih17UYsukceyuPPuPYbrTtiIUqPH+U4nEMn+xgd7hLL700u+KKK3qMTlTZI5aHG3rEjE4wp8fcHnN8QN75jpyJdlREx3G6E+wXgU45tNmMYrDWLb8Wg5tEbDahamB7sdlyMGD66ae3UYyNN944m3322e2abLacC466DlzjvF1teduPWOgICJP/6WDhiy++qK+dYC4vvJuHUPhVIu/s8Pw0c3fM4bErJiuTIe/99kW7KqjjOJ1Df92NHAbsVbgWg1GM888/P/v3v//dNmsx8v0MdptRDOz4Siut1OfunmHf1o62u/KORX/ZQygoYrgrJmsntCsmK5BFvsOuEvJcw0aCd6snO/B6RejphrSzIjqO053IZuXtMv9jr+VgwGuvvVbfF+PFF18ccfUn267vVw3KlneAsOeMOrOv0CyzzDLi6k9TQXw/dDIaUXUb35YjFiiPFEhKx3PRrCzW2olwdKKqCgd5Z4e1E7xxj7UT7Pqm0QnKI2eCYyOIo+oK5ziOk6eR7ZJNlP3mqKmSH374wey8dvfUWgzZx7ATrxLYe1D+sO8rrrii2XtGpUcbbTS7rtFoytKbva8ylXAsyAIK0V9W5FCE83CMTrDvRH7tRJXn4eQgNBqdYC4uv3ZisMrlzoXjOO3CYLog7Dl2kz5Ado61GOyLwRq6F154wa5B1fsAghwImGGGGer7YuiJEuCmkrLKKekN9aFVsP8tdyxUEcpGvlJCxdDoBE923HLLLTbnxtoJho9AnW8VFQny3iprJ1ZeeWXzVlk78Zvf/MauS9n0/SooiuM4ThWgrwiD+oXvv/++/kQJazG++eYbu171fiGfv1FGGaXHWgxGsaHRKAblz/cPja6VTaVGLHQOVDLnUhpgr3nm1phjC9dO4L1S6RUoykhQLpQgHJ2YddZZbW4tXDtBeSkDzgS/aaQYXAvrynEcp9Ppy67zWdhXyDa++uqrNorBaPbLL79s1wD7qu9XDfKe7ytmnHFGG8VgNDtci0FfwXd76ydaTamORX9J8bkqTA4FaycYncALxRsNRyeowFAIVQIFpjzyQpk7Yw6N55rxRvsanVA96bwKiuI4jlMFZBNlJ0PUH6j/+O6777LbbrvN1mLQjzCqAe3WfzCKwVoMjWJoLQbTJHyP71OmviizH6nEVIg8SCpHhee5ZZ5fJvCef4HCoAwtznZDyDvCDZWV0QntO4H3CZSX78iZ4DeUR41FdRCeO47jOD/RyDbqmjpjbGw4isHIBWvxWIvRTqMYlEEPIwD9CHtiEPKjGHxfTlMrKcWxkMDzSSF4rquDDUcnbr/99nplqqKqKHwJknxJofEm8Sq32WYbe7JDoxNahDNYwQ/mu47jOJ3MYPqA0C5rFIMnSOhfWKPHaAajGiC7HN4YVoVG/YxGMbbeemsbBQ/XYvC98EYdOOd6Gf1JaSMWYTKcUzkSNHvDa1dMVviKqnuS5E9TGYD3qH0nZpppphFXe86HhUKlXGUI2XEcp5tRn8NR/Q4wcqEnSl555ZURV6vf99CfhA7QzDPPXH+ihHMI+x1RVn9T2oiFQFgaobjhhhuyv/3tb22zdkICpTyUAxiNYC941k7gPeZHJ/SbRvAZcXF0HMdx4pFN7a1r47pGy+VkMGrBkySsxeDIPhlQ5f4I1Jcqf/Q/jJbvsMMO9sQh8FnYB5XR3zTNschHK+FQEZ988km2++67m5co2s1DZHRC81xaOwE4FJRFwuMYlqkMoTqO4zg/01u/wnX6nfwoBn0TIxntPIrBNgYnn3xyNs4449joBWUk72Gf1Kz+qLQRCyWDU8HTEU8++aQ9Jsr1cDqhSiCoMO+jjjqqeYOszOWNouHKXAlWgsoLjDiaJUTHcRynbxrZYNl2jnIatAEj+2CEazH0RAlxEDRqXTVwIMgf/dIiiyxiMwM4F6Dy5+shNaWMWHCusMYaa9hQE8Kj4FVDzkHo+bFegrkrdsXU/BWQf75P6A/ipPzNFqjjOI7TE9lejv2Bw0CQgwG8l0RrMXhfiaAT1/erBGUl/ywxWH311bPrrrvO8qj+SvXQrP6oFMeCEQkKec4552TbbbedCaNqoxSN5qoYWWEjK0YpGK0A5VsOiDsKjuM4nQX9F4HOGBuv/oEnSrQW49Zbb638WgzdwJ933nk20s55OCXSrP6rtBELCrTAAgvYEyAIoQoCoFLzeWG9BKMTBD3ZQf5xKPT9/oTRLGE5juM4aemvC+RzAv0EHbXs+0svvVR/TxU7fYoqrcVQXngX1WOPPVYfhVEZmtVXNd2xoFAU7pFHHrH5nipUNs4BkDcI92bnyY7wPfkgZyLMu/5vlmAcx3Gc1iDb3qi/Ur+hUYyvv/7a1mCwFoM1GeEoBuj7rebhhx/OFlpoIevXlLdm9V/9Lw6IhEpFOE888YQdVaCyoQKlCOSJwHs6/vCHP5gnd/3112frrbeeORXMS/E5v1F+pWBck8I1SyiO4zhO6whtfBhAN5r0EfQV9Bn0HfQh9CX0KfQt6meAvke/Lxv1YTwwQZkUmklTe/lQMMOGDbNrZVcuAqViyQueGu+/ZwEpLzJ7+umnsyOOOMKGiZjqYLoGRdBwl/Ia5llC4VqzheM4juOUT2jjwyDUP9BX0GfQd9CH0JfQp9C30MfQ19Dn0Pfwe/oi3eCWhfqvjz76qF4mXWsWTXMsVPF5QuE0C9KV8BAogudd9wcffLCNnOBZrr/++va4qJwJvs+iFnmjEJZB5/lrjuM4TmcR2vjegj6nz6DvoA+Rk0HfQh9DX0OfQ99DH8TnmmLn+4qnmeT73DDvzaJpjkVvDkRTC1MTcH50YrXVVrPFNQj3qKOOymabbbYeoxMoRJgnfkvgWm9lcBzHcbqXsI8I+wmu0afIwaCvoc+h76EPoi+iT8qPYhCaRW99bjP7t6aOWJQB6Wh0AmESmN/CQ3z88cezG2+80d7dwTxYODrBEFYoTOWXY3juOI7jOCH99Rf0LfQx4SgGfRB9EX0SfdNBBx2UTTfddPV+C8oaxYBmptM8N6nJyMvD68Lz+9WvflUfnWCRCh4i810IlMD3QqHxP4H/CTp3HMdxnMEQ9iE6J+gz+h7+V39E33T00UdbX8WmW+yZhCNS1ihGs2nbnMvLw+M78MADTUD50QmExLAUARo5DlIAKYPjdBtqA6mC43Qb6H3eoQhR36P+iL6JJ0rGHHNMe9/UzTffbFMl+++/fzbttNP2GMVoR9rSsdCumGyxikNxzDHH2DwWwmJOC4EgPI1QSKg6bxT0ueN0G/m2EBscp9uQ3ufbQhjCz+mbGKHACdFN8BxzzJEdd9xx1qex8RY7Putt2e1G0xyLZty5aGjo2GOPNQ+P98/j8eH5IRgJTEKU90jgWjPy5DhlIz0O9budQpj38Dwf9JnjtDvosfqgUL+Bm2A+46aYvmysscaynZ/ZOpybZlCf1i6UNmKRwkAojkkmmcRGJdjhjGtaJCPHAyHkg647TidQtD3xOwLtB2e8r6Dh2N5Co9+Ege8ovZDw//xnIX195jjtRNgHNQr0XTgYGsXgTaq0n4kmmqj+u1j6aoepaZpjka+IFBWjOHgRDOcIQlBJBK43s8Icp9Wg470FQP/zHb/ahhaF4YjTfvoKfKev0Og3YeA7So+0yUOYJzkeEJYhHxynE0H3pf86J6DztB2OX375pX2eoh3k42hm22r6u0IwIBiZww8/PPvjH/9oFca1Iui3Z555Zrbjjjva0BHX8lBhEpDjtAtFmiKdszpo9F2deSNoO1999VX2+eefZ5999ln2ySefZJ9++qkdMWBffPGFvfcAx/3HH3/MvvvuOxuaVTtSGhx5Cos3/vI8PpsBsWB67LHHtmHc8ccfPxtvvPHsOO6442bjjDOOTVk2aqtAvghKR87IQFGe9HvHaQfC9pSHvo3Ri7/97W/ZTjvtZO2Bdl4E9ZuHHnqo9cFhv9msNlOaY3HYYYfZVqcqZBFUuVT2DjvsYBU0WCPkOO2I2hNHGRjaUt4w8DnOwtChQ7PXX389e+utt7LXXnvNjmzpy9b6OBA4DWWA84HDMcEEE9gU5lRTTWX7zEwzzTT2RNfkk09uTkijcmAnOIZtvJEh5DvNMpCOUza6WaDf/Pvf/2430er7itDRjgULLtkQJMax0G81YsFqWuIGNyxOO6BOcKDNDmOi70rXQ9555x17ffMLL7xg7yd45ZVXsrffftsciP7SIB95pzzMW2951TWO4f8hYb57g99NOOGE5mzMOOOM2dxzz21Pd80666zZlFNOOeJbP4NBBH6noP97S0uf6buOU2Wkx/kRixT95pFHHpkdcsgh7e1YAFHLsTjhhBPsGd2UjkUZFeQ4KVEnl292ukYI71jCjp/Fyi+//LK9QfHRRx+1x9KGDBli0xuN4LdqF0pPaZQJeVA+wvz0dgfGtArvVZhnnnmyBRZYwF71PNNMM/V49I7fYguILyxnHq6TVm+fO06VQK/RVTkWGrFI0W8ef/zx2X777VfvN5vZJkqbQ0hpzFQhMpJuNJx2AV2VzioAjZ3GTyeJQ8EaBsCROPfcc7MtttjC7ujnn3/+bPvtt8/++c9/mmOBU8FvMBSEsJNV50vgnJCyHQ4U0lT6YX6AvIb553/WeVC2s88+24wqZZ5rrrmsDs455xwboQEMr5yvfJwK+t9x2oG8rqLXqSiz7TfVsQgLkrJx8yiOIN5WGEvHaQS62F9AZzEYLIxkOo//6SAJOAp33nlndsABB9idOs7Etttum1100UU2zcHvQicC8h02abQL5DXMv/IeOhtcZ50IdbDddtvZSMaCCy5oI6B33HGH1Rl1J8eEOiWoLgYSHKcqhH1l2NfFEsYLzdT7pjkWZDosSL5QMWBogDgJbhicqiCdbBSAzk5DkYxKcNfNUxo33HBD9tvf/tbuzJdffnkbtuRFRTydoU5WcagTJq5OJXQ2gLJTB9QFdcL2x0yvrrDCCtmcc85pDgevqKYuqVOCRjLCOHoLjlMVwr4zZd9WZj9Z2lQIj6SlIqz0UAiOUybSv/C8UZAzwZHOkbtr1ktwt83TTTgTa665pg398/QGHaLuwEGdLHF1K5SdOpAzRR3hPND2WazKFMlaa61ldclU0a233mp3exoJ4ncDGcUAHR2nFaDT0sGUfVt+e/Bm9ptNcyzCygEMAaRutPl0HKcs0D3pX6NGSkdIZxY6Cs8884y90p8pDu62//GPf2Tvvvuu/V6jEnR+WnPhNEaOgupedUddnnXWWdnKK69sdcyTaDwtw+caxeB3+brltwTF5zbFaRXN0j2t2xLN1PGmjljQQIUKEV4rSjjvJEPgOGWD7kn/Qj3UnTXOBI2ZNQAXX3yxvVSItQHs/896CTo7vqPf8zuOzuAI6466pE5xIF599VV7zJ06Z3rpwgsvtI3AkAnf4TdyMPitfq+j45RNXvdSrLEgzvAIzdbxpq6xCEk5YsGiN8cpG3Q3DIJz3UHTUWl0go5NoxObb755dtttt5nu6u6a7zIyEcblxEFdatoJm0NdIxcWxG655ZY2VcIoBo4dciJohCiUq87D4DjNRo6tQC9jaeRA5NNJTVNHLMKMswNfKkInpdkV5DgCXQsDoHu662WonY7qgQceyLbaaqts3nnntdGJN99803RWesv3XWebDw6DZKP6Zz0GoxjzzTefPb5633331adJQllCI3k7ThlI31LonWxNma9gb6pj0ahSUhhUjVgQP/F5o3dSIz3l2FtQJ6QRiltuuSVbbbXVsiWWWCK74IIL7J0bGp2gkyM4rUH1j3OBvJANj68utdRSth7jxhtvrH+GbMMRjEYBdHSc1Ei3GG2LRXGh22XRNMci3+i4I4AUToAq2x0Lp1mEuiX9Chs7QQ2VR0WXW265bNVVV81uvvlmu4ZDAT46US1wLjS8LBnxBMkaa6xhTsZVV11l17BXyDg/FC19cLvjNAPplkgx7Z+3X2XQNMci3+hGGWUUO6YoXFhReUE4TgpC3QrP6ZhY/Ee46aabrDPiUdG77rrL7nhDh8KpNpIRMkN2999/f7b++uubTHEWkTEOhkY7GumD46REukUAHWOQnoZTIc3W3aZOhYAKQMOEFBVV1psZne5Cupo/0gFp0SXh3nvvtdGJ1Vdf3dZT0CkR0HF3KNoPZIbsJEdkirPIFMndd99dlzs6IPmGOqLgOKmQPrHfTSzqc9FhIO4U/XBfNN2xUAF+/etf2zFFA0yxUtZx8khXw0aHrjHlwd0r76jYbLPNsqWXXtrWU4QOhRxnp32RHCVXpkiWXXbZbOONN7a3x+ox1XDeG11RcJxY8v1jiqkQxdnIvjWL0hyL0FuKxR0LJxbpIcdGAR2jk2Eo/NNPP80OPPBAe3fHJZdcYr9Dn92h6EwkV2SM/br88stN9ryb5JNPPjEHAx1h9CKvNwQIzx1noOQ7/RQ6pDi0HAGarZulTYWkXJGaYnjI6W5owOgmRzVm6SpOBQ4FHQubKi288MLZcccdZ2/dlIPcKVMelJ2781QQV944tityHJA5T5HwbhI22zrvvPOsjNg0dCU00lzP65XjDJRQlwC9iyWvh2XoZmkjFqG3VBRVuoy6N1ynKDL+HHXOXSpHnAq23mYdBZsqDRkyxK5BJzkUdJiUPeWoC3ERp+72OwHJHEeCPUm22WYbW3/x1FNPmV7gTPEd6ZOOBMcZDGozOqbQIcWhvaTK0MumOxaC4cNYVNlavOkN2Bksob7oSKfAXCYdB1voHnHEEdniiy9eX0eBnoXz6u0M5aGclJ1yTz755LaOIBXENcUUU1jcpIGDkXJEpJUwOoEuUB52UUVHDjvsMLNH1KkWd0qvRP5/xxkoGrFIoUMabVW/2Uya1uLznb4Wb8aguMJKIR2C4wyEUF840hHQUeD4PvTQQ/aoIZ3FN998Y52F7sA7AcpJeeggZ5llluxPf/qTvaDrkEMOqX9eFP2WuBjtOfHEEy0N6pc0Y+KuEugC5UE3cChwQtkQjR080SHKSZmlY3zf7ZMzGEJ7o/MUOpRi1mCgNK21q0GpQlLcuaiSf/zxRzvq/1AQjiNC/WgUtMkVRzpEnIrHHnvMrqG3dBCdgKYl6BAZoTjllFOyRx99NNtnn32y8cYbz5yoVBDXOOOMk+21115Wl3/961+zaaaZxtKGTnEwNHqBrjz55JM2UsMCX418oVPoGN/J6x3o6Dh50BkC6KmQFPqCXgJxKf5m0VTHAlQAPaqVgrDRQrMryWlPQv0IdQTdwWlgfvyJJ57Illlmmezoo4+2zoKOTwvypMPtCmWmjJQV52LPPfe08u6+++4234qDToevIdKY8uq3xEWcxM2GPDvttJM5GPvtt5/ZAN3td0KbpczSGeqYBb44p48//ni93uVQQaiHnVB+Jz1hG5R+6TwG2pyWI5She01zLJT50ODE3q0oTowW5944nb6Q7nEkoC8Ye/QQw3/qqadaR/Cf//zH/ufzsCNoZygL5cQJ5+2qvN3zL3/5SzbhhBPaXRD1oTapeoppT/otcREncXNOWoyKHH/88dk999xjT1Xobj8mvSqBzlAWjDcjQegUdY1OURfoHJ9TH6prHR0nRG1C7UNPQOp6UWiPBIiNayA0fVxShaDRqWBFUWOUYfRG6uSRXoS6QcC445Cih8OGDcs22mijbI899rDFUeqA9Zt2R506ZWbEgK2ql1xySSsj17hzCdtiSkOjuEifetUoBWkvssgi5lwwcsI1voM8OgHKotEL1l4wFbTBBhtkH374oZURm0Xd8z2CfhP+7zgh6EWqEQvaO44ulKFzTXcsVAAMjIZiiiKjhZHCMNGIoQwPzGkP0AUF/Y8Ooi8sIGY7blbzX3HFFdbQaHB81ilQHjqw0UYbLTv77LNtjQPnGCg6ONqMDEszjUteBqRNvpABd/O8/XXMMcesd8adguwS5f3Xv/6VLbbYYuZMycGizsN6CevJcYR0QmssYnUEndTNRBn61tQWHTYiGlpswWQIufPEuSijgpz2QLrBMQzSEwz7aaedlq244orZa6+9ZvpIp0ZnVwY07GZ3oOq8WaDJ45Dbbrtt3QnnszzNbj+SgdKh/fM/xnKLLbaw6Rkt7GyUv5SEhrXZUB7kQJneeOMN0zmcKXSQfKB3qhsF0NHpXkIdQE/kWBTVDbW98MaeuJrd9ptq6cLM08g0FFMUVS7GkvMwON1No4ZCw0TnmKfcfvvtbdEiDTU07s2GfNGh0dkQmgXtizLNNddc9uKsRRdd1NoJ1ykvZSUvYWg2SkdpcyQvyIS8zT///HY3P99881nem+lcqLNHFmWUnbJSJtKirEyNbL311vU9L/RZSBn5cqqN2glHdISb6BiIC8L+tww9a5pjoQIB5xQq9kVkqhAaKpUOXCujopxqg06FeoV+4KG/9dZbdsd41lln1TuuZnbwAp3UHTodGh2+NqJKra+kQ3lZGMmLs6affvr6ehJBmvk6KpN8uuSZPE455ZSWZ/aCoAxcbwYsqMSBQRbkpUwHA5DF+eefny2//PLZ66+/brqpGyTgmK8jpztRW8VOqZ8rqhvS8Y5xLJR5jgQKpqGYogVT5YZTId4YuxdkHwbpA/pBI9KGVw8++GC982025IG0yQedGEP9J598cnb11VdnH3zwwYhvpYN2RTrM5d98883ZRBNNZG2jUVvjPPy/LJRuPi/kEZnw1MiNN95ob42lLDKAKXn//fdtXc3f/va3bNppp607GNRfGXUip+nhhx+2cvJqdsop54I8cAyD051IH9CZ2DUW0iM2x0LXy9Kt5k761lBBaFSxHpN+J8cCyqgkp5qgD9IJjugCHQaN6LLLLstWWmml7J133jHd43qz0ZQDujnxxBPbI5Y8fsjTJ4ceeqi9dl3fSYGmdOadd97s2muvtQ4aQxR2zKRVtL01g1BmgLGjPY8++ujmfPHkCPWHzFJBPbGuhr00dthhB9tXg51BWYtC/VFHKdPrDXSQdIYOHWq6efHFF9soLnemoZzydeR0F7IPtAM9blrUZkiPaGe0g9J0q5bhplBrLCOF+eabj9oZXiugHYuGMcYYY3itw7B0ao3V4na6B8k71K1aI7QAtU6jris1Q95Dd5oR0OdaY7Xz0UYbbfhee+01/L333rO8QO1O2T5LmZeaobDjTDPNVE+r5lTU24MC6JhH9XXTTTdZXDHtUr8lLlDcecI8KZBn8g4fffTR8Nlmm83iUhlTBMVV68wtHfjwww+H77///mZP+AwZIiPJslkh1IMTTjjB8lJzcCyE9aLgdA+0BQLQrscee2zTk6I6qXY5xxxzWJssS7dKcSxUUUsssYQVMrbh/uY3vxleuwOxOGVIne4ir18YZajdlZqO0JE0u4Mg/rDz23TTTYc/99xzlg/yVbvbGP7pp58On2aaaezzWIdaQY7MRBNNNPzFF1+09NQxD6YttMKxyCMZgn4zZMiQ4ZNOOmmPeGOD6mzyySc35+XHH3+sp/vSSy8N32KLLerf/eUvf1mq7uCIQt65AB2d7gB5y5a98cYbdqOS153BBLWfBRdc0OJWf9nsfrPpUyFQS8eCFm/WGpUdi1Kr+OjHcJz2JZR5rXHU9YnHK2t3gDbsx/Vm6katwVr86CI7W9Y6VBvann322U03Cej74Ycfbq/aZgicPKWC6Q6me3jRF1MJxK/yclSoKsqfZMc5ZaDepptuOlsPkfKlSdITpiGYlmJ9B2lRdzPPPLPtq3H77bfbtFLNwannp1mo/OjqSSedlG211VZ2nTRrRt/Ow/pxugfJHP1EF2NAh4C2RLz6v9mU5lhQKN4dALGNJXQsoKzKcloHMg4DYIDRJTqHjTfeODv33HOtw0U/UnbiIaQnx2WMMcbIjjrqKFskuuqqq1p+CDgdOBW8nIrFgmFnEUOYNi8SYxEghodOUm2KYxiqSpi/8Bz5USYWo55xxhlWVsqcoizEhSz++c9/msyQEfFKbjyxwfVjjz02G2ussewa30+RdiOIH12lfDg27AbLa/vRH+lvI713OpdQzinsmHQXXQ/jbpZOi1IcC6ERi9gGwu9jF7U47QUNQY2BozoJ9gVYd911bZdDOtgUHXhvhKMUq6yyiq3wP/jggy1dOkM+J298h3zw9tDYO44Qykvau+yyS7bjjjuac02nJJR2u0Gew3xTTpxFRqDY/psyU7epCGUjvSJ+0sGxOeCAA2zR7RprrGHfJW8p089DGtjGq666Klt77bXNuaAOwk5F+XQ6m7AN077RyRikM9zUl6k/TXcsQoPBGxVjUeXwjgfhDa5zUaejgKzV0cipuOWWW6yDpSHGeviNIC2NFPBKcEYLeLRz1llnrTsOurOlk6Bzuvzyy22jKn7LtVjU8S200EL2RANxkmanELZhzqlvysjUFqMXnKfo3BUPL55jlABZST6qT2Q644wzZtdff72Nmow77rgme/KUIg950GscKeJnx1Sciy+++KIuc+pD+q/vO52L2gL2LRbpCjc/Ic3WoaY7FmoUIMciNCJFSVHpTvVBV0J9oRPAAONYrrfeejYvTqOJ9ex7Qx0J8bPRFntisIMn/9MBqbMhj3Q+nH/99dfZYYcdZr9L1YCJZ+yxx87OO++8+sif0g3rKKyrdiHMu4LqnY7/nHPOMYcuVV0iJ9I44ogjss8++8wcCsXNdWSKbAk777yzTY+svPLKdR1T3lJD/OjyHXfcka255pqmR+RNjg+QT/LodC7SxZR9HO8LEqGuN4umOxaggvCseiyqDIYLheJ3OgdkGgbQ3SYNDqeCHRs1J98MMOrqhI455pjs3//+ty2WZGSEa+GIAXkkf1zjxV9Dhgzp0WHFQJmJh5EKFhpSXsUdhnYnXx7KSFkZPWCTMa6l6tSJhz1OiJdz5Ez8grS5zkjCTDPNZKNi7EvCdb7LsRlQXpwL3kiLjmvNhZwL9E75DPPrdA6Sq0blY3Re/aUcC+LmWqhHzaAUx0KFk2ORokDy5lRRTucRKr86eO7qNtlkExsy1p1lMxoIcWPM2R6btA488EBLh2s4M3Qs0juO6mx4TTYOgK7Foo5s/fXXtzUHODVck96Hod3Jl4cyUlbKvOWWW9rixlSduvSJF9O9/fbbdedC8Bnp0Mkjcz5jgy1GyHB0uIaOpIYyU150jJELXr3O/0AemqHrTrVA9yC8eY4lZd87EJrqWMj4CXlN4bXBot/Km4uJy6kuyFX6w1HnPJZ3ww03NG36gzQIxM0dI8PgvONDxl13D2ED5Ryjz2fcAX/88cd2Hn6nKMTLNt2s6wg7PkgRf1XJl42yU7eTTjrpSPVQBOLHcWAtw3HHHdfwrlB54DN0gtELbRGPkyP947PU4DDjXDBSglOlNJQnjs1I16kOzZoKQW/y7Ss1TXUsVAAVIixcLN98882IM6dTCI1meK67Q+a7L7300vpIRWo0EkA4+uij7UmTCSaYwNIiTRnyvEGno+NzXnh25pln2uexnR9xKD8MwdOharSEzxQ6lbCMlJmys006izmpkxSjFsRJ/BdeeKFt+U2cfcmNfKAL448/vu0hgkMCqfKTh7SIlz09eDsv5+SZPJJv0gWOOnc6B41YIOtYtNUDoCsp4uyLUqdCUjgWakDhUyFOZyA9CZVenekf/vCH7O9//7udc6eY2pByV0paPAHAOysOOuggu0MlLdIE8kXIN0z+5/eMKnz11Vf178Sg/Ky++up2x8qISTj0ns9Dp5Evm5zJzTbbzBY2UjexnbnqEFuCw5KXG/+HAeTkoBv7779/dt1119k7WrjWaNQjFuIlTRawopNKX/lUGZQ/p3Ng8S6EOjlY9NtwfWMZulKKYyFUuJi7OVVKikp3qkFoJMOgTp1NptiIio5Ew88pIV50kl0zeUR0nXXWsY6c63QW5AW9U75AR37H9xitYIMuvhej34L4ccT//Oc/2/95Y6D8dCq9lY3rf/rTn8yWpCi/7v7ZNfXVV181WdJxA/GHQXWOTvA9dAQn5957783mnHPOui6kBp0nXjbuOv30020aECcrzBMBdHTanxTT/fptuAyhDB1pqmOhAqhw4XBMLNwZQkylO9UhNI4gp4K9BHbddde6wU/ZKNAd7oSJd4UVVsjuuece6yC4GyVt0uQ7+RDCb7mGwf/yyy+TdCx0XHRSe++9tz2RQBqaignzkM9LJxGWUUGyYvEkG1xRRylGCZAZw86MOJFOXsfCPBCAvKAj6Mpss81mDimPpJI/6U0qyI/i5VFn3mQbOhf6jtMZSJa6eU5BymUIA6HpIxZhA2ML5FhU6b7GonMIjTYBI4rhfOaZZ2yxJh1IMwwnnRIOzBZbbGELQvXacTqNPGH6OidffPejjz6yzZZ0LQbKTxw8jYJjQV1o1CQM3UK+3NQFdbLXXntZHVFX1FkMqmNGLRh5ogNvJEflQeeA/NEZ9tlgWoRpK8WXGtKkrLQJtotnPxPSCssfWxdO65EMU4zKS4/Dm/oydKRpjgWZJ4SVgmMhIxkLK2bV0Jz2A9k1ClqwRmfNI5as2kfGsR22kF6SBkZ53333NadAjxVyF9pbp6A8Suc457tnn312/UmQ2HwqbV5eNuaYY9Y7TqWpY7cQlluBOsGWUEfQm7wGimTKiBOyJD6uheh/5UfwXXSGPHE8//zzbe0FuqSRi/xviiLdYrSWx1B5tJk0cGyAPOaD054gO908x+iPdABbAsRVhl40zbEg82pUqhh23qTxQUxlgT9u2t5IbhxDReecUQTu/LTJVGxnHUJ6dAYYfubqWbRHeqTLdT7PB/1Oge8SyBuOzz/+8Q/7TliOIihfiy++eP1xRnVOxB3mpZtQeVUH1BN1s+GGG1pdUWdci4E4gBeUffLJJ1bvkrPSDes/H0if75EvnhZhbUzoXKSCtkCcb7zxRrb55pubI674w3SUL6f9kNz0VAh6FQPxhbMF/B8bZ380zbEIM6+K4tWtsS8i0+9wLIi3jEpy0oPM8rLDEDNywCgCm1LpTjAVSo90Tj311PqLqORQAJ/ng9D/fJc4OPLYoTZYCr9bBMXNnThD7Ppfx24nrAuO6Ad1pf9jocNmFIARLOKUs5GPn/N8AL6HHqBTTGPxnhE5rXyWCvJF2e+8807TYc6VjtIK8+W0F9KVVE8+YlPpe0G6kVIfG9E0xwKUeSk4IxYqYCwMEzEESBrNriSnOUgvkJ+MJXsKsIgOIx8uTotFd47Ex5bbu+22W33aRY5Fb0EoLxyVPx6BTYEcE95Hstxyy1l9aK1HPh/dSigT6oY6oq6oM+qOOoxB8mUEirtFZAxc12cQ5iMfyAO/o6Nn3xWeaNJvFF8KpLvsHMr0C50HaUKYV6e9QHboCqRaR4huaI2F4pa+NoumOhaCAlBhOBWxLyJTo8GbY0U2/3tDaj9C+TMqQUfx3HPP2RMgfJZ6pAKIk5d47bTTTqY7pCndHIge8V0CBpzjXXfdlT399NPWmcTml7TpKA455JCGeekvb91AozohUGfUXWwdIUNk+corr9h7YZBxOGrRF8qL8kB+0LEddtjBdC78LBXKL20GPcQxT52GUy6yMdw0y7GIlSmzBOp3iYv4m6GPIaU5FgQUP/aRU+IBFm/ScFVJTnsghZbM1CGzApqnM1JtMCV0B0kHwa6YrKjnbg9dlC5xVOgP8kWcfFejFQP5XV+oU1x11VVtzQCOC9dCYtPoBPJ1QB1RV9QZdUcd5uutKGeddZalN9B613fDgI7RQbBeiJELdJ38oT8pUBuhA1Lb4Zqui/z/TnWR/NCb8H1YMfCoKTf1xINegnS0WZTiWKiyaGhaRFK0UKpkhip9AWf7IYWWHDlibFlXweOlnMfe/QvSwYjT+Zx00knZjjvuaE5FOFIxGN3h++ocXn75ZburBd3VFkV3nsyXq16cgUOdUXfUYazu6Pe8AIwRNOnjYOQS6pacC7bk5l0n6Ioc0xRId55//nlb14Fuh3WgfDjtgeTFTXPslt76HaMVTIfwf1m6UOpUCMcUe1lAWPHETdC5U00kJ8mIDh9DePnll9vdP0Y8tpMOIT7SYNfO3//+93WnQkgv+0Kfcwz1+KKLLjL9w6jHwO+Jc+mll86WWGIJ6xTItzMw1PFTd9QhdRkrE+JEV9hGO5Q5cE7oi/D7gHNBfHvssYe9g6bRiFQM0hmeaNG7dEhDKM/95dtpPdIbbprD/q0IiotdatHBMnWgFMcCVKjwedoYaKgasSBexRcbr5MeKXMoG65hDHmiohnrKogb48pGSgcffLDpC9dIRwHCPDUi/J7yzNAzmymBylYU/X7PPfesp8ExDE5P8vWjOqMOIVYmcm55+dfnn39uMifOUDZ9oc/Do/SR930wupLauVDeWJTMo6jETTm4FuY7tm6c5iL54FRw85wCbuZDPSiDUh0LCjX22GPX/y+KKoc9BATxKTjVQkot2eic60xPhPsGpEBGlX0O2E8AI66RCqU90LTC78vxYZhcOzQONJ5GqF7mn3/+HttBh2nGxN+p5OuHOkM21CF1ybUUoxbvv/9+fbqL+PN63B/6Hkd+S5w4uOyfsvHGG9flnQLyh45/+umntjiZ9HQdlG9dd6qJdIabZqbQUsDNvORfFqU4FmGh2PoWYhRcRoOd8kBxe6OpJsgnNHTq6HnsE8ONPLmWAgw1BnvRRRe1oewwbY5hGCjhdznXaEUs0mOeHGCoUp1XPjg9aVRH6A91SKeaAuKESy65pH4uOzNQwvwJZI5+ssNnqs29BE4LcbEHDI+hakpEzgUMtgxO85FMQtmobwt1Z7Dot2ONNZadlyn7UhyLsHGlWmMBehFZI8E41QG5SDYYOTqA1157zYaFMYSh4YsBHcNQ8w6JK6+80lZDE3eM4VbeiQenhakbPYoYk2/lddJJJ83WW2+9evxhXTn9o/pS3fFm2skmm8zqUzanCMgGeKQ43AGWOIvIR79BFzlnQR1TLbxQLTavIcRFGn/4wx/sba2aW3eqi3Qq1IGUL9nEsQDSKEsXSnEsQlTIFHz22WcjzpwqIiVW49D/HFlXoUdLU6B4WKjEYlA6bK2rKNKY8r+R8b/mmmtsjQXxxiBnZ7PNNrNRPHVkkKpOugHVFfXJ3Tl1yaOXulYU5I+MeeTvqquusnTQAa4rzcHoFb8hKF50c5JJJjFdRWchJr8hpEPb2mWXXep5zOd1MHl3mguykG5ILs1wLKSDZVCaY6EKG3fcce0Yo9iqHK2xKKuynMGRlwuGmTsoNgxiuBZDGnaoMciBYK+Keeed1+Ynta5CDWowesJ3iU9H4ievrLoHzmN0mN/zbPnWW29t8ahTGWw+ux3Vl+qQI3uVsF9OrG6hr8C27eiTnEnJfTByUh51jm4S59xzz21PRIU6EAvlJi7WAjEdqGm2kMHk3WkuyF66oWPKm2Y9MFEmpTgWVJYUOcXizWZUvpOeUMYYNowdC+KYAgkNbSwYfO5W2QuDFzOFnYAgrcGkx3elszpnrwBeV61rRVEHsvzyy2ezzjprvW5ETNzdBnWl+qIOqcuZZ57Z6lbXiqJ4n332WdvZEh2g0w71YqDwXX5H0O/QUXR10003zQ444ADT4Zj8hig9noh677336nWjzwaTd6e5SJ9CwgcTiiIZjz/++HYsU+alOBZqUKDFmykKSeV7A6k2yIeguyjmfnklOucpZMedH3GvtNJK2bHHHmtDzFwjfumc9E//DxTlHYPMb6+//noz/nmnpShMgygNCPPrDAzJVXWm+mS3yxQga+R/ww03WBqcS16DIS9T5RldRWfZa4WnWohfI20xkEfawLBhw3qsZSqSd6c8pCc85pwK3czndbCZlOJYhDDfg5LHoMYRToV4g6keyATZ0PGz89s999yTnXvuuXVjHYvinnjiiXtswSynRenH6gb5xaG47rrr7P+Y+GTgp5hiimyVVVapX3PSoLrkxWRTTTWV1TU6UBTpKU5lOL0m/Ros0lH9lvzqGhtcsfA0HBWJgbyT3wsuuMDehMqUiOKObRNOeiQTjikcC+luynWNA6V0i8ZTIanecMpUCI1EjdOpBqHR4hzZYJT322+/Ho0nBsmdeHgPAx21RhOUJsSmQ+MkHYbD2XJc14qijm/99de3Bk+eyavrbzqoU+aVN9poI/tfdV4E6RLTYI8//ridq3MuIjPiU5wEzskfceJUsEZI14rEH6K0gLbHhkvEG+pv+B2nNaj+Q3nrpjlWNsQZLt4si9IcCzUiGjyPAcagyqby6bDKrDCnfyRrjhhM7ppYRPbYY4/VjWgsxEk87La41lpr2XAyd2RAuvkwWKRjOjIUnmIahDioAzo91RGE587gCWVN/VKfG2ywQRJ9I046Y02HELf0YrAoj+E5AX1Gh9dYYw3bfl7tRt8tCvFQB6wNYkREo4XEK52LTcOJQ/WPPJAV/2v9YFE9E7zZNOUWDwOlVMeCwPPberyqKKps3ojJ1qfEGysAJw3IgYBMdLdPI2EOOZWcMI4YYXZZPOaYY+yca8QPykMMiot4cQZuvPFG+z8mXsU555xz2pMrEDoqKeqmW5HMqWN0DnjiQvWsui+C5HLTTTfVp0NSyCqMg/xJ19DpBRdc0PQ6Jt9C9UK87MxJ/YTORYqyOPEgD2SD3FMs3gT6WxwL6UBZlOZYSIFDDyq2oOwnQFDDKLvynJGRsQLdLZ144om2Mh3Dqc9iYc0GO3fyWCFphunq/1jkGL3yyis2FaJrRVGHt/baa9fnu8M8O8XJ6wAdNA4AG2ZBTP0qzpdeeskCcuSarhclzBNx6X+mitFtdDwFxE3b44kstrgn/6HuOdVAOsCUFf1aCriJJ0i3ypJ5KY6FKkwKrr0swoZVBPZTZ9RCcevotA7JQUO5vBCJ7YVljGORUWTOeIEFFhhpeiJWpwR5xYngePfdd9udqhyDopBvHAo6O9UThPrrxKG6lKyYJuNmJsYhBOJD19gbQrqRCvIs2WvUYr755ssOPPDAunMbi+I5/fTTs9dff93aZsoyOPGgVwT6NTkW/F8E6ZPWNBJPqGfNphTHgsKo0gh6rjYWhozy7wtxWoNkKzjHkJ1wwgl154+ONQbiwxgyxM0jdBjg0OhKz4qiMhCIi7g53nLLLSO+URzlkw5jttlmq9eP8hybd+dnJDt0hX1CmFaA0AEtirZzJy7JTKEo+d+Sd3Qbx4LpvhTOBXGQXzqs4447zuIL040tg5MGZMSum+z4mgIeNQ2n7sqScSmOBagRcpRjwXlR9NuUz/s6xQlliQOB4WUlPY+68VmsUwHEwx2/pkB0LST//2DgtwroKmX48MMPs//85z/2ecwdnjqG1VdfvX5XqnSUZx2dOFSn1DFQ5xBTv5L9o48+mg0dOrTuuBCnQlHC35J3dfqMtOhlYimgDZLWhRdemD333HOmh2qXsWVw0qG1gzFIluONN57pkkJZMi7NsQAKBhQW9H8RVEEsRoKyK87pSb7uOT/++OOtgcTebYGMIG8CXWSRRepTEynlLX3kSKfB8YEHHjDnNbYMcrbYu4J41Xm4vqaHOlUdc87GUzikcjSKgvy4m7zvvvt66IhCCpR30kLHF1544WznnXe2tFK0I+JgDp9Xt4e6l7IMTjFU/yl2lJZsw742lHezKcWxyBdqggkmsGNMQfVbdnEE/id442gd1D0GEKPIHdG//vUvM2SxoxXIlXh5sRg7d6qTboa8FZ90lrdbQoxR57fExxTIHHPMUb/mNBfqGL1hOoQncXStKOgDoBOc639IoYdhfJyj4+T/kEMOySaffPK6TsZA26EOePtvftTCaS3SIY3Cx+iq4sKxQGekOyn0dCC0xLrJsYgppH778ccf27GsCnP6RgrMHdEPP/yQpANVgzjiiCOyCSecsMfdG58ppIK0MLjc4T744IN2jTSLoryFd87NyLfzE2G90mkylZBil1PpwEMPPWR3/eiI7E4KOartEKSD5B97ie7r81ioA9omT4iE8aksTrnkdYht2CFG1vptuJ4xlf4MhFIcCwoTFirF+0IUF45FmRXm/Az1HgYML8bw1VdftdEKiB1+xggS7+KLL25vrSQ+0ghR+imQrpLukCFDspdfftmuxzgW+i2OBXGHupoq387PqE6pZ8mTd8lwHnN3Ljm+9tprpheKOxVhfJyDHFzefbLkkktaHmKcI5Bjy6gF5SANlY30FZxykKxV5ylulvVbbsRaQSmOhVAFplhjkReCGmVMnM7goM7DQN1zZHElayvyDkBRMKSsZNfq5jA90P+xSH8wshy5M03xmClxseW4NmsK40uRb6cnYZ2qrnmSaMoppzRZxNQ58dExoxvSlZQob8StvHKkLdEGUrYp2ihtVWlwDINTLqpz9WkxIE9QXwvEr+vNplTHAigY+1hoVX8sn3zySY+G4A2iPJClAgYWo8cmPDwJArFGF+NHHOz7sNhii/UYrSDN1LIOdYjAS9P0f1HUsS266KK2Zz93zMRH/p3mQ11T52wSxKiXrsXC3ibEI/mmJswjOo/us2h5vfXWszYRm65Gbi666KL65nXEG7ZppzxU3xzp0yBGTxVf+AQm11Lo/kAoxbEIC8SRqZDY/ctVcSx0YT8LGlpZleaMDEaJ+j///PNNJhgqyagIkiWP3B122GF1HdL18DwlpEPeuZtL8ZipWH755S1u1Ukz8u70RDqjel9hhRVGfFIc6cIjjzxiT4hgd0K5piSv66Rx6KGH1l/iGKtD6Dlt9bzzzrO4Uui5M3ikO5Kz1ljE6hTruehriSdWVwZLKY4FhVLhOPISsth3xKvS2VOd5375X9eccqHeMVJsvsOLjlKAwcbQbbPNNvYkBXds+bu0ZsibONFJ1om8+eab9WtFoQw4R8yPE2/snaYzOJCdbjoYsaBTTtGBspdFuM6iqB3rDcUrKANtgCeLtttuOysDbS4FvCAQGxpupOSUB7ImIGNGksItFGJglE79bNmUZuVUeVQWhjbVtt7svKnHc7xRlEO+njFyNAre/sgW3mogRUEniJNRLb1qPVZP+oL4FUiX4xNPPGFliDHe1APwuOO0005rcascpNFKyki/1WVUXUsfp5lmmmz22WevXysKOoEs2Swr1BlIVWbiyes8eeb6AQccYHeiMW0M+D1x0mb15lbKEpKqPE7fSN7suBn7AjLpDW8Sx4byf16Xmk0pjoWUk6OMq1arxhYYQeBYlF1x3Uy+rjFOyPWss84acSUO4kdXeAqEzkAdPNcVQp2KDWG8Cg8//LDFH4M6ryWWWMLuBrnjJG7RKC9lBfLBUfkIj0VoFJfSaFUQnKsT1ToLySYGpsqkLyprqjIDxzB+8kw52NOCkTw+T1EOYKSRNhzGp/Sd5iO505fFvqZCMuPmnbebqs8tk1IcCxWKoyow5SZZvpdFuaieOWLokMNTTz1lOxJynr/rGSz8nsW9u+22m62fIQ065TBwLVUI46VMpPn4449bXmJ0SvWghaeN0m5VUH44Kp8p2iJxhXGHaZYd8unzP4tolc+iSCeefPLJ+tbLzSoz8YWBa+jnjjvuWO80YuD3yI62SxvmnDSA8xj9dwaG6pj6ZrQi9s2maoss3MRRRMakUaY8S3UsVDjCJJNMUr9WFHnX2n2zrErrdlTPyFGGiSdBMEixd1D6PU7FjDPOaAuQmDrjyF1/MwNpELhrYI0FxBhufsuQNXsoED/OUpiWzlsVWG/AkSHTVBBXGHcrg+qYo+oeWSCTWLkCUwi8SyZMq5mBNNQWZphhhmzPPfe0fKRoc7RdvddH5aOdu00tB9Uz6yuof+QQC7MCrZLhL2qJNj1VkqCiOOJ10zD+9re/ZTvttJMNcctDHiw0NuI79thjbd4RT55rKYTi9I5URnJl6I4Flixok5xjQZ4YT2SKjiitZqD80qB/9atf2VbHf/nLX5KUhf0r2JIZ493MMhSBdkd5n3nmmezUU0+1a0XLq3Ltvvvu2VxzzWX7f8SsT0mN6p7jkUcemb377rsjPikG8kRfdtllF3sDKeVVHTRLxioDcsPO8fpzbF8sqpfJJpvMXhzIY9FKS587zYO6Vr94xRVXZBtttFFdv4qgPnXvvfe23VXVL4pS5FkrVNOpVVD9WCuknV911VVYsOG1CrRjkVCrQDvuscce9bg5KjjNQXVbM6Z2fumll5ocagrbQz4ePHhojyA7fMkll1ibVtt2O9o8wrpVv3jyySebHNS3FQn6bc2psDhDWZYlz1KnQkImnnhiO9YKascY2JQJSKdWJjuW4pV1MWE91xwLu5ayzvHY8bxbEUg7JY3SqFJIWd5Wym0gIbVsia9VZU5dFqg5Fm4/S0J1jC1VYGpN14qi36qPVTplyrUUxyKEglFwFpYwXxiDKhBhqNIUf4xgnJFRfapuCQyvvf3227YLIaRwEgVxMZzXipCyHNAojSqFTpHbQEJq2RJfq8qcWm7AbrNvvfWWtW2uqa2Djk4aVLcEdfjhTXIsE0000Yizn1BaZdASx4LAAqrYRWOqJHYq0xxnWRXXjYQNAMPG/zz/zuY6zbh7chynPGjDPJFAm6Zty5bKrqrtO2lQnYZBIxYx4BAiy/yTl0qjDFrSG1ChbNyhF6TEFpa91bWXhRqDkxYppRoDQ7Fw9dVX29FxnM7gqquusiOdU9jm3bamJaxTzrlZS7WdN7tuajvvVtCyqRAeR4vdJEuVxp79OBatqsRugLpV/cojZstrdh/UNcdx2he1Ydq0dtDVNbet6VGdctRokV5AVrS+1ZeylTeB/4v2rzGU7lhQYSgrx/zikqLwOA17WRAP8eroNAfJ7+abb86+/fbb+uiF4zjtDW2ZTb9uueWWuq12moP6PeqZwOZY2s47tv9iGoRRC+LpCsci7PR5bjoWPD344IMP7CghtaIyuwHqVkOkN95444irjuN0Enp3iOyr0zzUHzJawY1aDOr3uGnXiJPiL5NStUZOBUcCmwdBTMFVkWzOBIrfSY/khMK+99579fdpMDfoOE77o7bMa+GxqbR12n2MjXb6hz6Lm+PY/ku/5aZdcmtFf1iqY6FCSkk1YqH/Y3jnnXd6xJ8iTqcn1K2GRh988EHbcdPvaByns6BN07Zp40Cbb0Xn1OmE/RVwswYp6poX1YVxl01LegVVHIWHmMLrt9pOWpWZQjhOY9lQt7feemv93HGczkFt+rbbbmvYvlvVWXUa1K3qkqNG3WNsquILlxm0Ql4tcywoLE+FpNokS8NIeNuhwJw48sqvxV3333+/XfPFXY7TWahN08Z/+OEHa/OhDYjp+JzeiX1/DUhOciyQVSvkVbpjIcUk8Jwt74xPAY4FC1+I15U/HWFdakj0xRdftBcggRTZcZzOQG2aNv7CCy9Ym5ezIfvqpIG61M2wdt2MqV9+S1ws3tR5KyjdsaCgUk7eopffHWywSAi8btY3yWoO1CcB48LxgQcesHN/zNRxOhPaNm2cUYuw7ROcdNBf4VjwdtMU7wkBdrTmlRnqa1tBqY5F2OmjqOxHHw7ZxMDmIgjGFb95SFE1DeI4TmfDTQRtXnfVTlror6hXFsvG7rop+XCzzkxAGE/Z/WKpjoUqkaM84Kmnnto+Q3GLogrVAs6yK7FbwBHEgXviiSfsf2ToOE7nobb9+OOPW5vXOgu3r2mhLgkff/yxjbjHoH6QaZDf/OY3dXmBjmVR+lQIhIWdcsop7TwGxcdb+UDCctKBoaGeX375ZXu0F7yOHaczUdumrdPmafu6GZS9deJRffKoKS/STAFPWxJvK/cXKt2xyCumHAspchEUH46F4nHlTwv1SnjqqafMwMSMMDmOU31o47T5J598st7+3a42Bz0RkmLkfqqpprJjK/lFTVlKu+0Mk2Kxyi9/+Uubr19yySVHXC0GwqCzW3vttbNrrrnG4uaad37xSGZ4v0yFbL/99tlZZ51lQ6NFPWIaAPHuv//+2XrrrVd/pE2flUFYLl6Id/HFF2ennHJKXZeKoHL96U9/ypZaaqmWlGugkE/K+atf/co2Qtprr72iyq7fnnTSSdliiy1md19cq2K5QXK/9957s3333bcuuyKo7L/97W+tfbRSn8kHj/DzhtLjjz8+qlxq45SLNo9d5RrxUWYnDuqROsWu/vGPf7SgOi+Cfnv66adnu+yyi71Di7hbIq9aoqVRU/p6qFWoHV977bXhtQaO5hcOtcZjx/nmm294rWLraTjxqC4JyGyBBRboUedFQ03Rhz/99NMjUmk9Bx54oOWr1jhHyutgw1NPPTUi1vbgjjvusHwjk3xZBhr0W+JqJ5BVviyDDdKZ3XbbbUSsrYdyxciToDY+//zz1+21ghMPfVWt87f63Hrrra2uY+yP5HXDDTdY/DXnvmUya4nbiRetwCZZPBqj60WolcOO7GXBK9SJh2thcIpD/VGnvEH21VdfrV8rgmTMPOA000xjHjZeuwL/lxVIjztrzrU+JxYWTfFWQeLkjkHpKM0qhR9//NGObHgGMe1EvyWuMO6qBclCsuHRPOQVg8qODhEnOtUKXVbgfxbFxz5xp3INGTLEnriTXXXioA5Vj4wkUK/azjumfvktcU066aT1cygq/xhKdSwoIEGF5jjGGGNkk0wySf3zGHg7HJ0f8SoNBacY1GPN27Xja6+9Zo9FxUBDgrnmmsuMOvEyhMd1hu04lhlIk/TRGyA/RZCOjTfeePa4F3EqNEq31UH54piyfRBXGHeYZhVCPm/c1LBRn/JeBOkMjwsSZyv0mPIokJ+xxx7b2hjweQy8yhvngnhlC5xiUHfomQKywRENX6IZA3JXf0rcpKE0y6RUx4ICqpAc8aw55841FuKRgDhXA1BwBofqTbKC559/3o4xhor4YN5557V4kROE6ZQFaRK4y+NxLyiaB5ULx4I7YMXDUZ9VibCcyl9MPhvFUbY8B0IoD3QPWcVu0ifYpI+RGrWPVpVfto82FguOCjz33HN2VP1xbFX52pmw7hQ+++yzZHtY8KgpNoj/lZaOZVKqY6HC6lwVq70s9FkR1JjfeOMNO5ZdkZ2ElDF/LsciRk5yJGT0pAfhsYwASu+7775L9gz5RBNNZMYYp1mUWa7BhmbRKK0qBAj1DbuBMQZ9PliIBxjNY88H/R+m2+wgVDaYZ5557Kj8xMA2/kDcYflSxN1NhPUlW8hW3qnsD9NfLMiWc6nrOpZFqY5FIyjwdNNNN+K/4qji2N8+rFBn8FB3qkOChtReeeUV+zzGmKDwrMafddZZe8TdCpmRJoFGrSmeomVT3jW/GZan7HI5vYMsCJIRQW9ZjoX1XUzHAvGWjcqmNkUbo62pAyuCykHbD+Mm8BlHpzjUH3uFICPqtiiSAzfpyCVG5iloqWOhytBztzGVod8yYuHKHoeMCUcCCs9dfbgBWREklymmmKK+iUurZUX6OBWULwW6+w1xfaweoUwayawITIOgS8RdtI3EoDSVPu0s1QLON99809oItoBruq6jM3hUdxplj3EshEb/ibuVdqfljgUVwCZZ7GkRo6T6LQ0AJ0Nzg87gkVJyVOCJm9iX5EjRZ5hhhvqdFNfC0Aq40wynLoqgOmG+XmXhmo5ONZCOSTYEPZUWg+INFzfrWhmoLAq0LZ5Qoq3p8yJId2n/BP5XIE597hSD+qPPikVyYL2idKCVsmm5Y0HgjiG2casS9cipPGtn8EgpQ+XkcSgeJeRaUfTbWWaZxeINA+hYFkpP85sxZVNcrLEA/g/r0akGkpNkAzzyDvq/CJKxdIm4YuIbLEpL6SrMPPPMdj1GB/ktm37ptd66ISD+mHi7GdUdQY4F14qiEXtu0sO4W0XLHQsqhNena8gudjiI1bV6y2mMoLodKaeOUv4Y+UgeMnaKWw1Ax7JQfnicDmLSV1ysyIZWlcnpm1AeOtfjppJhERQXK/yhbLkrPY4ElWWmmWayYwxq8+E0c5iGMzioN+qPeuWJNL17Sc5BUXjCCcdCMmolLXUsgMqkgqeddtoRV4pDhbLxTQoP0OlZf2+//bYdY5RWDSccrmslSl8L7mLyo7riOXLh+ldtJG85gynkJV1qNWpfepQ/ZqpP9RQO2VNXMe2l26H+6Pd4zD12cyzJgdFSpmKrIJuWj1hQCYTYuUDQb3kypNUV2+6E9Yd8Ur3RlPcYhAs3Y+NLAfsPpIB1QuFmS66D7QHOIOsRUqDRr1brtdoWCzjRyxhUFvYICstVhbbbjkg2BKbuNcpVFNkZRivQY27gWm17WuZYqGKBSpBjEaOsqkwejYqJx/kJ6hCvmnpN5VXjUbOmhv8VWoXKos4gltFGG80CtLJczsCQjNgBlh2AIVZurZoKyUP6BNaPaESmKGonrLEgTmwC11pdxnZG9ZfiiRDJgW0biDd2SiUFLXMsVBkcqQxNhUiJi6Dfsv0s8SpupxjUHwqPosZueS1wLLSVt3SgFYTpf/3113aMZdRRRzXHwnWu+khGHLnL04hFrOxYOA6h7WmFPih9RtBidxZV/rV2jXiKxuX8BPVI4DUJEFOfks+MM85oR5D8W0VLRyykoASG7GSUi1ayKpL1AGzvHeMFOj/L6Ntvv002XKcV+DgrrVR86R1QvhgUD44FUz3AtVaWz+kbyZ/AVAGy0/UiSNbs9aBzxVU0zhjIA22Mx+5jHQuBDWBnUY1YuH4XR7LgJjgWyYGbc8XLtVbonWjpiIUKz5GFJ3p5SlFUwQzbc4etuJ3iUH8YE92JFa1PKbl2OdQ8YCvlo/S1OVZs2eic2E5X8eq6U02QESGFYyH0pljpABTVq6JI91S+2Jc8Kv/YAEb39L/rd3Fwzqg/ORaq0yLwW+LSrpucE2LijKUSt/R0MgxFpnhnCL+lATBqQcWGldvKim4npJQEztn0J/auXnXPltehfGNkXQTlI9SF2F03FRfz9LzZUk6TU22k5xh5rY0J9aII6BLxKrQCpUtZOJdjEVs2bAC2lTgVV6vK2M5I57hhi33UVPXPlBdbNvC/5NNK2VRiKoRK5X89cx0zhaHf6r0WIa2s6HZExoPFjUwtxaC611MTrUL5kO4RYh0LwV0vdaZ6c6qP5JVq8SYjFuxNQDyKu9X6oM0HY8uGDQifeml1udoV1R0j69p0rCiSKUsJmPIKb2paKZ+WT4WE8NKcVIQvzAqD0z/UU2iE8KxjUd3nN5AqG+VDR57vZ1fBGFSWVI8sOuWC/FKtsUCX6ID1P7RK10WKDcBEaAsoV4o4u4GwnnTOviDoSox+6Lc8EcJ6GjkWCq2ipY6FCq6jVrUWHRYCCe2ll16qp6HgjaAYKXem1N1Tq2SRT5eGzcujoGieVC84FjF15JSPZJ5qKgR9YsSilagM0sUUG4AprlSPZncbjeyCngiJGaEX7GYs+XIktNIWtcyxCJVcFcAucRjnFI4FQuPuAS+uChXdbqjOQHcpMfWnuNh2FoiLoOtlkU+TTiB2xELxaSOissvkFEey0tM8saBL7P7bSluTT5vHu2NRnLIF1Jvr+cBRXYX1xs1vKnAsZNs46rxVtHTEQqgiWGSUagWzPxkSh2QC6niLyiQknC5QI2gFSlvre2JQGVQ217f2QbLjbbtQVB8lcxxV3Ri1Ur/DdFW2GL1UfBrd4/9Wla0doe5V/6q7V1991f6PkYu2atfmWKFMWimfljkWIVQAjZF5zlRPhuBZM4clgbayktsdPUIX0wCAIT/NZbcK6YL0Ab3T0HVs+TRiobhj43PKI8VwNCBzORboQat0IEw3xdofxSdb4AwO2RzqkVF0nrDRrpuxOsKW9Hr5WCo9jqUauaihO8cUr/lV5b788st2JN5Y4XUzsY+aCvZ4CDeQipFxUdS4BU5FeBcWQ344vRXlc4qRao1Fiqm1FITtC8ciVYeTYiF3tyLdQi7hEyFFdU7y5TFT9oGqUh9XGcdClTLHHHPYMUUlPf/88yPOnBiYM4bYjpI7epyLVkIZQt3i/9hyibzOporXSU9eNtxFQqzM0IEwjiroAHurxDoWKodsgVMM9IPAxljc0MToh347/fTTm23VSFkVqIxjoUrSI6cxlSQD/8ILL9ixKsND3U6+EeU74jLIG/6UuJ61D3ndS6WLVdDxPOTJdbMaqF978cUX7Rhji/Tb2WabzfSsmbZtsFRG21B8KoUnQ2JXMUt4vD6doTs9GeIMjLxyxiqrfs9oRRVGLJqFnngRrnPVJbWO90Yz9W2gMEWnBZyxlFVvnQr1RUgxmi77gmNRNSrlxuIQMFfEQhSIVVredf/WW2/VvTlnYKSuK8WXl0OnGaUqDUU6TtjupJup21zYnp3eUT1pE6tw/V9RiAd5av+nKtnTyjgWVAoVxR1tiq29iY+FVCke6elWUtWZFJ7Ng8I52lbIpJlp+sK29iGvB83Qi1botyBttTvm8mM3gcvTyrK1I8iCOqNP+/zzz+2JRYitRzYcnGqqqSx+ybsKVGrEgkomaGgnxrHQb5999lk7Km5nYFBXUtTYemv0+zD+MlEDF5zHlq83qtTQnZ7kZZNKVqE+tUr+zdJnCMvWzHQ6EekGTsXHH3884moxpFtsz8DOqlUbLa3UiIXQkyHa/KMIUnocC+JW0HVvFH0T1pXWRcTWGSMWBNEKGZBmWDbpRQry8bSifM7AyMsmlaxCHWiV/PN6yChhjC0FlSW0BanaTSejeuOoc6ZBOE9x48z2DJwzOl8lebTcsaAyCGFFU1l6/XRRQiHSmWkBp9JyBk5+UWJRMHDhLp6tlAVpA3qWYmdCyO9f4HrWPsTu1SJ94rG/FBtSxSC905G396a6o01lC7oB6l82LrR1Tz/9tB2lM0XQb2efffZ6vFWi5Y4FlaKKobIIDO+w6YeuFUFxvv3229m7775r8SgtpeP0jepIhjK2zjBuMuChLFqF0pdDG5uX/A6erSybMzgku6JI5tBquefTT7Fhl+JMZQu6AeootHHc3HL+3HPP2f+hzgwWOYpzzjmnHasmj8qMWChQYXjFKVa6Iki2oOWZYYQoYXAeI9RuQXWU6o4eWr0lMGWQTnHEqZBjURTVS6odPJ3mI5npGNv5SuZMFYSjo60kX7aY/CiulLag01EdcaTvwc5wY5XigQLi4/UI9JOyY1WiUrmhopkL5JjCE9NvNfTkDA7V3xhjjGHHmIaguKrw5ITKwZGh61RvtnTHon2QjHRM9dQEuqR3xkBsfCnQq85j9FLlkC1wHR8c1B+B7Q+GDh1av1YE1T3bMkw++eQWD9fC0Goq5ViElTLXXHPZsWjlg34bLuCMia+bCOtprLHGsmNM3Umun3zyiR1bJYdQxyCcEw+vDwb9js7J9au9kOxYhwBFdUDgWLBuJ4yn1TqhNheDyiBbAK7rA0d1xeg5024xIwz67SyzzGIjZIxeoG+kodBqqjV+UkMNkkdOqUBNXxRBv+W99xj9qg0XVRUUMzSMKRZsKb7PPvvMjmH8ZaJ0dWTYOnZXQjVkdU5Oe4H8NF0Qa5TRJYx9GE/Zuq72qzywbwKkyEdoC8I0nIGh7Q9S9EVauEk/J5krtJpKOhaEaaedNpt44olHXC2GlJ6tvRl+QpjeEPpHismR+uK1vLHTBar3Vo9YKF2OCnqVe9EGqThxLKS/TvuAvMJFxUWQzBn9yq+xKFsfSE/pc0zV5rAB2IJWlq1doZ4IzzzzjP0fIwvdMIfLBaomh0rewrPOAgVOtQMndyPszY4wYxtXtxAaD97dEjtqobjYZj2UQdnyUD44Km05FkVRnKwfQXfDuJ3qgox0s6G1P5JlUdAlyT5/LBuVhTYHsWXDBug9Tq7jA4d6wtnEedWLMWNG4omPKVymQpBDFWVRyRELDe3MPffc9WtFkVPyxBNP2NEbw8BQnXNkwVZoUIqgen///fctDhn0GNmmgPRHG220Ef8VQ2VjxII9U4iz1eVy+kdyYn8VORZF7YPkHe5hofj1WVlQBgJtjLQ//PDD+vUiKP/YAGyB/i+7XO0K9U5dsXDznXfeqV8rgup8iimmsBd2Ku6qyaKSjoWYb775RpwVRwLEsSDu/OhHUQF3A9QX9cNdGHvSx6B6HjZsmDmOMnqtgvwoT7GjMYpHjkUYt1NdJCdkFrtBlsBJVbtplR6QvgILBbV9dGxesAEakWll2203pAeMmscu3FS9swYRWWBLqyiLSjkWEoA6HeaQGEJKsbU3q3G5KyFuXQNvICOjOqGepLi8dRZi6+ujjz6yx9+IJ5RD2YTpp1icCjgWdFCtLpvTP6EeS24pCJ+gIo0wnTJR+iyWxpnXtSKoDNgAzjWirDScgaFR85g6028Zzaf+kQUUlW2zqJRjQaUpUFEs4Ix9hboqnN03WcSpuIFj1QRSBVQn1JWMSKqdUFlIhnNRhbpXWcYZZxw7xpKyg3Kai/QPHeCGI3YqREiXWq3bKh/rK/QkVlHUTrABxKmbDUKry9kOqK60n1JMncmRmHfeee0Iir9KVG4qBKgkKpBhxVlnndWuxQwf8VtGPXjUB6FqE66qCaNKhPXDMdbBE8xn84QO8VTFKE0wwQQjzuJgkfBXX31l51Upm9M/X3/9dfTOm0KORav1W+2XGyo5AkXRb5nXj4mnWwjlzjmj7l9++aVtewByDopAfDydQ7+ILPIj8FWhciMWgsqnwuSZpWgYjzzyiJ3rf+KvolCqQlg3jB5BTH3JOXzjjTcqUfdKf9xxx7VjTH6kU7F3h055SN6ffvqpncfYGMUlJzU2vhhIW4G2BjE3ZiqbbIDTN8hddSY5sI23Fq4XRb/lXVpTTTWVxcu1ML2qUCnHIqwcVaIci1gvDx5//HGLBw9S8evo9CSsH+oPRYaY9S6KU5674pZ8QvmXgfIz3njj2TEmfRluORZhXGWXy+mdRrJIsWmb4pWTGhNXEUg/LFu+rcWgNk+HRhpll63dCOtI/RbTIJzHOHj6LRtjMWoR2uKqyaRSjkVYOZwTWMCp1a9FUYPjFep4jQgoJr5uIWwgk0wySbLHMpGD5KvQSoOVYsty/Zb1I6Ay6dypBpJFKGs9jplCTqnW6xRBOscRG8eRtgYxug20fWwAKB2nd6gf1RH19fDDD9t5Cuaff/56/MQNOlaFSjkWIVJe5vZnmGGG+rUiEA8NjXkurbOQUDg6jaF+FDAqqRZwDhkyxOa0tUNhq2ShNHk2n22YY1CdhCvwda3scjm9I1mE+iaZSV5FkLzlpMbEVQSVR0fsHQtSNRVS9EZK5aDtYwP4X8HpH2wc68qeeuop+186VwTJUNswhDKIibcZVNqxYKiHF/rgoelaUfRbpkMAQaghOj1RnXAkIAeG3tiQRdeLIOVn8ebbb79t/6uxtKJhqBxMheitjbHkn3hpRbmcvgllQ9DOlLGyYmSVEYtWyDwsE+2VIxsyqWxFURthfYWG32UXoKgt6AaQAQ4e9k6vSo8deUe/2MOCeiduUTU5VNaxACqSsOCCC464UhziAS3gDIXi9IS6oo5U/zQGjtpiPUaJqXdeCMe+IhCm1YrGQZo4FanuNBvtLMrRqQahTJAR5++99179sxh4DQGGnzgJrULlYEMm7pZjbJ3KMeOMM1q8YVA9Oj1Rnaiennvuufr+NkWRDLHBvEMLm9xKHeuPSveuavjzzDOPncd6e8BLYJgS0TC8MzIyGBwVgEVDEFNviuvJJ5+0I3EprbLlQZroFNswawFnUZR37hCJU7pbdpkGShn5qmLZJROOsilaY1EU4gKcCjZbU/ytRqOzMXmRDGn7Yd2F505jVHePPfaYHeUcFEH1zMMMsX1hGVTasZDy4qVNOumk9WtFkJC5o+Rumf91zRmZsJ51LscihVLjWBAvjSSUg+TS7BCmRT70Jt1Y/eLRxfwOr8SptKoSlCfIH4vQKK4qlpug/CEjZBX79k/pzIQTTmhTt/l0yggh3DRB6LwXRW2d4XfiCTvHom2l01G9UFecy7FIIYeFFlqoLnO1rypSeceCOT1efjPHHHPUrxVFxv4///mP/Y+wqiqYqiAFJkw33XTR7wxRA2Hk6PPPP7dzZKzA52UEpcXe/Zxr/4Gi+iU9opNiMSBxKu4yyzXQQN44kjflPaZt6bfEpfIqjaqFUDasiUn1WnF0iHiZflA6+bSbFUhL5QLKxBA88HkMtHnavuxAbD11A9QRDh43GnpVeowciA+nla28kYH6spg220wq7VgAwqACF1lkEfs/9JgHi4SAYyHhqKEoOD1RnSEHDAxzrVBUDqpjRo5YXEZj4RXAHAk0xjKC0mNBGv/PPPPMlq9Y2NabnRyJkydNyi7XQENY9tjHiEOIiziJu6rlJiAb/mfu+/vvvx+R+2KojdD5ql6VTj79ZgWlR1vifxYLymEqito4bR6nSR2jyuv8TNiHhAHnLnaqTXLgCUl0jHirLoNf1DJZud40zBIeOA3mjjvuyFZccUWr5KKen5wInm5A4HpTH3Fy9AYzMpIFcsBo7bbbbtnpp59uxos7pCJIDrvvvnu25ppr2mJO4itTBioXukRHcMstt2QnnnhiPW9F0G8PP/zwbPHFF29JuQYD8qODZUHzIYcckqTsRx11lA3X8sZQyl41JAvKjtzvu+++7IgjjkhS9h133DFbf/317VFqbFaZ5Mt1+eWXZ2eddVaUvVQb33XXXbPTTjvNRmJULtJyRkY6pH7rhBNOyA444IAoe6nfbrDBBtkVV1xhcYdtq5KyqFVE5ag1hHqoVahdGzZs2PCa14zUokNNEMMfffRRi7fWWHqk5/RE9VLrKOx43nnnWR3WFHukevXQvoE20ej6YEKKODxUJ6iN0+ZlA0A22fkZ2UkC9VPr/O36WmutZXVYc/B61O1gguRw0kkn1eUQpldFKjkVggcWhlrl2VCc1lloaKgIeHq1cmc1x8KOxO30D3WOLJjjow6Let8heTm3MqSkUfxVDkBbiEVxNEqjyiEljeJvVYiFNk5bb5d5/SpBXTElmnJjLG270A71X0nHAiGEAQXnuPDCC9vnMRWr395///127o1kYFBPyIAndKaffvr6tRhCGbc6pKRR/FUOqWmURpVDShrF36oQg9o2c/q0eeJzWzkwcASoK54+5O2yUFQesrvseqqNsdpBDm0xYqGKXGyxxewYM8qgO21GLFi4xTxYbCPsBpABdTfKKKPUt5SNGTlyHKe6MFIB7HpMm2deH7ADbi/7hvoh8H4QjqrLIqjvY9SIDdiwwbK7+qyKtEXPEA7DU7kxiq3f8kTCCy+84A1lEODQUVdLLLHEiCuO43Qisom0dc4Jbiv7RnWj/oqFwbHIeWC0nvh1Uy1Z6POq0RaOBZVHhTIclGKdBb9FKEyHhMISUhCnJ2owGBueENHoj+M4nQVtmzbO0020+dDeVrUzazXUC30HdcX6Cm2MlWKEXdstqO7lVFS1r2oLxwJUwYsuuqgdUyg3HiXxhI1GAnN+grpQfcgh422z2vfB68pxOgu1adZW6B0hspGhPXBGRh0972mJXV8heN3AnHPOafUuGywZVFUWbeNYqAI1DB/jBeq3eJTs/qgnRYB0YhWhk6AuwrrBwWPvgyWXXNKuhU6Z4zjtj9o0bZy2TpuX/Q3tgdOzPjiqb3nwwQftGGMf9VvelcV28ZKDZFFl2qJXUGUSWEw07rjjRis3cfHCKLZbDRUiNt5OQ/UeQh2xWRnEOHiO41QPtekVVlihbg91bGQPuh3VB0ecAY4p11ekuJkum8o7Fig0gUpmZfJEE01kb3iDGG9QK3WlAGo4Tt+ozpnzY28RrzfH6Sxo07RtPYWnztIZGepFNpAj/Qqj4HqzbIwzoN9KDpJBO9jcyjsWqkwJkCAPLkbZJZx77rnHjjSedhBYq6HOGZLD8LCwC2Iep3IcpzqoLdOZ0cbDaRBnZMI+g7rifzbFYjQ8pt7U33EjrQ3KFF87yKMtHIt8hapDS+EN4lkOHTq0xzoLp2+oO+qK93w4jtN5rL766tbGQxvr9nFkqBP6JY46D29Wi6LfsmcQizcZrVdf2A5yqLxjIYGBhuTw4CaeeOK6IIvAb4mPx4J42yn/04iKxtdN4IRRT8svv3x90xbHcdof2vJYY42VrbTSStbGw9FIt40jQ52oH9LN6d13322fcV4U1TU30WHfpLSqTtuNWKD4LN5cYIEF6teKot/y5lSlg+BiFKJTUV1xxCFDDpNPPnl99CjGO3ccp/WoDTMNQtumjetmTsFpDB0/jgWPmD799NP1a0XRzVq4zgXaRQ5t1xsgLDp+7pZjkeDZKKvqr7huNaoXOV2Sw7rrrmv/O47TGay33nrWthsFpyfUCXZR9pDR72+++SaqD5GdnWKKKexRU/4Pb9zaQQ5t51jIg+YZaxwBBFpUiBLQa6+9ZhuaSKCiHQRYJtSH6lpyWHnllW0ESU6a4zjtCW2YtrzKKqtY2w7vkp3GqM/gSLjrrrvseugIDBb9lifvxhhjjPr6inbqj9rOsVAFzzLLLLYznK4VBSEy7MSCG+INO8iYeDsN6kL1QT1Rbyg826xrT4uYxpSHtIivVSEljeKvUkip562W20BCSlpZ3pRy01oK9q6gTYeLBSE8d3qCPaT+GPV+4IEH7FrMjZYciOWWW87O9X8oi6rTlo4FSv/rX/86W2qppewajSyW2267zeImLglTAnV6Qj0RVEebbLKJXU9ZX8RF42xVSEmj+KsUOkluAwkpaWV5U8qN+IC2TLwp4+5EwvrhHHvIqPcrr7xSv1YUZMF7WlhfoT6p3fhFrQLaQoPCbOJY8Lrzq666Kttggw2s4tUwijLmmGPa+/MnnXRSG8EgfuJsR6E2G8mCI4r/3XffZXPNNVf2+uuvJ5EF/PGPf8xmm202k3WzZRCWhy2M2Y2V9OU8xcDd35///GczFKqvqoCe46DzyPUxxxwTJTv99qCDDrLdcbVmqSqo7snj/vvvn7399tsjPimGdOOAAw7IFlxwwVLWaIVlwD6xX8LRRx9dz0tRJLtpp502e/bZZ7NRRx21nhbHZre/doW6Iai/oJ3vt99+pgdafDlY9FvsKa+coO6RQ9vJopbZtqCm+PVQ62zs2tChQ4ePNdZYtKioUBOmHS+55BKL/7///W89LWdkaopfrx/qCmodSo+6LBpqDceOe+65p8XbCoYNGzZ89NFHt3zUGnSP/A02jDLKKMPffffdETFXk7vvvtvyGiM7/Za4qswnn3wyvHYTMVL+i4SaUza85qCMiLl8tt9+e8uH2kzRINkdeOCBFm9o/9wG9g31gz2E5ZZbzuoxRh41B8WOu+22m8VZc1jbUhZt6YrivdUqOZtssslsAxFI4cn9+9//tridvgnriHqv6VG2+eabZ7VOtLCnLpArnHnmmTaC9D//8z92N8iR0YtmBqXB3hwp3t5K3fzwww/ZLbfcYvF+//33I6XVykDeOLKXCyDHoui3xBXG3cqgOuaour/11luzr776Kspe6Le85ZedEcO0mhlIg7bAOaNMZ599dt0WxkCbZeRqiy22aK+74hZCPRGoe+qLx0wfffRR+yxGHmpHyyyzjJ3L/rRbv9Q2GkTFhoHGQMVr4WAMUgQWcGIYGdaS4jgjIxkAjYr6YzFtqkWc/B4Deuqpp9oUAvIg1O6s6ufNCkCaclhVziKoHljQpfgpQxnlGExQPmP0Xb8lrkZptCKorsP61uK6GLnqt7yziA4ZwnSbEfI6c9JJJ5kNjCkHSPa0XdqwOkog7tj4Ox3qC91Hr+g7kFMMyHScccbJFl10Uat74uNIGu0ki7geoESo2DCg/FQ0+1lwHuslEtc777xj81qg+PgsPDo/y0Lo/+22267+fwzUPfK46KKL7FFgyVcNDJRmswKPesUiHXrkkUfsDp4OgbhFPs1WBJDB0rEI+TgapVV2IC/KDwaaO/2HHnrI/o+xFwIdaZRuMwLloNOhLbAOgvVlsXYvZNtttx0pPZ07fUNdMRKm86IgT1hooYVsJCy0eTq2C23jWFCxYUAIVPTss8+ebNgaUBDikTDDc+cnVC9CBo67njnmmMPqK9ZzJ85vv/02O/bYY+syIICOykfKQLocWYDIyAXGvCgy+kOGDMleeukli1d5hzDdVoVm0SitsgNIb5ArTipy0PWioBPoN7v/ko50phlBhDp/1FFHZf/9738t3Rj4PTrKImn2oyGN/B1ymAenJ9QRNwvYqXvvvdeu4bzGwnbqxI2eSQ7QTrJoG8ciRJWNEBmK1C6cMQ1NnQDrLGi0urtUWhydxlA/NALWWGy//fYjrsZBfSNPRi2eeOIJM3iSETRLJop3uumms6BrRaEM1E2jfVKccqDOqXtkENshSxemnHJK20eHeGP0ozfyuo0OYZMYck81WqF802a1PqoZZelUVP+Mcr/11lt2HgPxIeNll13W5ICM21UebelYUNlqeBw1t59vjINBv33hhRey5557zs5paBATbycTKj0dP/XEc/A8YhlrpNRoWbAWPvopWTRLJqRD3jG0Cy+8sF2L6YjEnXfeaXErLtep8qDeCcggFskP3Rh99NHret5MeYY6f/jhh9fbRoxjQZ75PUPum222mcWtNqzPnZ6EcgjricXZQP0VRfU966yz1te6tLMM2tKxEBIkc53hnFRR8BYxFCgK8Uh5IDx3foI6oZ4IGFzqjlf8aq1FbIeMPInjxhtvtK1ykU+MMR0oMhxLL710/f+iKL+ssxg2bFgP4+00H+qaOv/888+TrK+Q7LRqXyF1J6B4gZFZdP+mm24y54g2EdsOiIP4aau02fBGIG/7nJ8I64eAXjECxig3xMhEtpLdNjUFq/TakbZ1LFTpCID97VO8ZVONiQZMvGEn0M5CbibUT1hHnDO0qtepp6g34jzwwAOtESsNofTDa7GgQ6TDXSlTbSmM+CeffGLOBfkkPtVLynw7P6E6VV0Dj2d+8MEH0fpIfHTy3MwQl3QlBeQ31Afi5X/SYPHvwQcfPOKTOIiXcrApIG2VNJRWeHR6Qr0oYNuA3TYJwPWiSE/ZUl3xtLMM2tKxyCs/56uuuqqdxyBlYU7/5Zdf9rvLfqD+FQADSB3yVj6eiQfqMAYaHPHyjPhZZ51l8akRQj4PMYQNmjRYY8HCNiAPRVHeNBIWkiLfTk+o09A+cNRwdYwc9VvWVsw444w90kgBcYV5BvQQR+a0006zp0HIQ6j/RZBd23LLLbOppprK2mxYLynL1ElI3hyRAefolWRUFMU58cQT2xMhIHlwvR0p3spaiAQMHAkMIWnOMwYEyrw+T4dIgZyBIZlQb3vuuae9mQ956HpRJO8jjjgie//993sYVz5TiEX55KjhZ/br17WiKK+33367bdQkw54q305PqFPkxZG6ZqRLjwPGtGcZe3SCrd/REaWTAumDgjp8th/X01Gx9og4iJe2+fvf/74eH9cJTu+EstYNzs0332z/p9ArptcYfUevuEZa7SqTtnQsVNlUPAKgoeB5s6kISFAx3HDDDRY/CgRSKB2dkQnlwXsHttpqqx51WBTFyxqFww47rJ5GM2Qh3ZIRYYU2xKTFb4mPd6kwJA/kv12NRjtAncvYP/nkkzYCKZkWRfGhE5KpQmqUf3T9kEMOsTUiKdIhPuKmbdJGSUOOrjMwqCvqjMfIGd2GGMdCdc+ou87bXR5t6VgINTSEiiBWX311+z8GKQjz4Y02Z2qGEekEqJcwUFd77713NtZYY1knGgtxIItzzjnHFnJyx6jOOVUjVFwcMRwcWbsz/vjjRxkOkPFm/Q7xAv+nyrvzM6pTtVsNV8c6uMTB2qEll1zS4iVIXyTTFBAXabGIj4WBPHJN3mN1EIhDoxXKu0hZhk5FsqHukA07BGOXYiA+7CSLxYlfesp5u8qkrR0LgWARAAtfUi22Y8ha87J0YMRJGt4RNCasF+qPOpt66qmzHXbYwT6LNeoCOey6667ZN998Y/KQXESMfPitZMyRMuBUaDokxoBIJxk6ZapNjobyznlM3rsd1V9Yp0xlIUOcOYixC5I9c+A8Tk1cuhYru/C3nCtuRinQdV2Phfognt/97nc2WkHdqAzSe2dkVC8cCaqz6667zo4xKC5G2yeffHKTCUge7SqTn0rVpqjS1QmwoCrlS8muvvrqpAakk5ExF9QZMuHOaIIJJuhRj0VRHOyeyN4WGEquheTzMRj0WzVq4ubIroSxKJ+sIGc6hDQUPyEm385PMgvrkLrlf14t/vTTT9evxaIdKtFtyS2f9mAJf8s5+cTxZAqE6TN0PjbvigNHmZFE1U9ITBk6GdVLKBumQf7zn//Y9VjZwGqrrWb6FMqFY7vKpK0di1AA8r41HRIjECkK0yGvvPJKjxW/7SrosqGeWITESuf99tvPGk2sYwFq2H/5y1/qL/eSl08ahBSQf/LLkUVVKUbCNErxr3/9q65HHAlc1zVn8Ej2qkuds0sl+kHdx4DsmZpgkTjxptBlofwCeUWnme7729/+ZvmO1Tsgz8Sz7777ZpNOOqm1zdg66RYkG47UIUdGHrUQOwbiYzO+cLfNTqAjShEKZJVVVunR2RSF+FhNnmIYtZtAFjpqo5eddtrJRpO0ij4FxLvzzjvbPv2AfBR3aKhjID7inX766bO5557brsUYEukQG37lnw6BFHnudlSH1C3z39dff739H9N+pVe8B4ddEUlDTmcMoeyla8AUCLodk+cQ4qa98Jp34pXzQtqxZeg2qC+C9CoG2RLeS8QjzMilU+TR1o6FhKyGTkPkpWTqBFJ4f/npEKdvZKzC42ijjWZTF5Ci4dAAcVrYen2vvfYyI4mMSEvpxqajeEgLA7DmmmuO+KQ4xIkevfrqq9mDDz5o14jfiUe6BuqQH3744ezFF1/s8VkRpEsMV6NrOMgpIF7ljUC+iZ/pQ42UptAP5Z/twHkkn7R0LTx3GpOXD4v6U06DMMqOXQgdC9JrZ9q6t5TAEQYBwSD4ddZZZ8Q3iiOFYT6ceXE5LkpTwekJcpBMONIpY4g33HBDG0amDuWpx6Ch3H/84x/Z5Zdfbo4GiyKVrmQTng8G4gmPNH49iRKDHNRLL720HrcTDzJWfer8sssus/9j9U06u8Yaa4y4Upy8Xiqv6C46fP7551tQu4mFeMg/03kbbbRRvd0oXYLy5DQmrCcCT4OEI45FQS7YFBxWCG9eSa+daWvHQgIHBCzBYABopAguBuKjwTNqIcVSmmHaTk/CeuFc9XbCCSdYQ0oBcSJf4t1ll11skZumXpR+KK+iyKFkB8555pmnfq0ockwYSmVfDhxhlYP8OnFQh9QpW6hfc801di3GGZSsmQZhJBRZ0aEUlZd+F/6e/NEu2Gtjjz32sDRjHViQ3hM3bU9l0XWR/98ZGWRF/XFkjZSuFUVx8bABLx4L9UqhnWlrxyIEQSAsBISg5p13XruuxlQEKQ6OBest5KGGwekdZEIdYehx0JAJTgBGk7qMhbiR76effpptu+22lgbX0AGOSp9QFOJQflMsDFae6fiuvfZai0v5deKhLoEN7j766KN6my2KZM1UGI4rd/zSqyJ6oN+FR/juu++ybbbZJvvyyy+jbFYI8aC7rHFiHp/2ofookvduhfpCr6hPptaYYgPpWgxrr712XU5AWgrtTMc4FkJDfWuttZb9H9NI1QCZCuFdFZDiTqKbkAHDuaDu/vCHP2TTTDONnacwbsSDjO+77z5bbyHjn2+cMY1VOqTOJZUOsPERecob+6L57EbyckVW1CN1C7F1iayRDx0AcRXtmMN86kjHhK7SNhipoMMi/1yLhfyRd3YkPvTQQ+2cdPSZ0zeSF4H6QlYcuRngJjOmXwHiazQNQhoK7UzHOBZSAATEOY4FgottpDIkzOMTP+fOwAgbh+punHHGyU488cT6tRTQSDGaZ5xxhr2oDLmr81e6HAeTXvhddIo0mA5ZcMEF69eKIiPFArDHHnusnkdQXp2BQV2pvlSv7F1x//332znXiqJ4GWljKiSvRzoOhPB3Ah1FV3nB2D//+U/T4Zj8hiitP/3pT/b+ibxeDSbv3YjkRaDukA19CaPXoPZaBNU90yAzzzyzyVz9VqfQMY6FFEACQmApNstSB8Uua19//bXdsUoBOkkRmkG+fnDSGI5lcS0LyWhQXEsBckIHdtttt+yhhx6qO5XkQboxGHmFvwPiJ6+bbLKJ/c9nhKKgk+Tv7LPPtnjUoYRpOv0juRKoQ+oP5xI9i2n3oN+jq3Qs0jExGDmF+QTyh47ee++9tmEV8crWxIKeUhfrr79+tsEGG5ie5dvZYPLejYTyUttkIT+brcW2UcmCEVDOJfdQt9qdjnIsFBAURoGGFQsKRJzvvvtudvfdd9u1TlSEZtBb/VB/jFpMNNFE9c4gFjV09i6g83/rrbfq0yJiMMYgnyf0id8zJJ7i/ScyViwE442t6gxiDFY3ovriSB1++OGH2ZVXXmnXVMdFQcY8nrnuuuta/OgAeqE0i+gtv0EncSrYvXHTTTc1JwNSyJ74KTe73bKJXG86VSTv3Qr1R32x2RrneSdtsKBXyD/Fmq2q0jGOhRoPR91pMB3CHgqxBkaCv+SSS+xc/zdqsE7f0CgxrJNNNll20kkn9ZBXLIrrnXfeMafyq6++qnfYRRuvfke8yre2+I7JN3nlLvizzz6zR0+JK1ZPuxHJh7qjDnnElIWxyD2mfSIbWH755etrgoifOIvokn5HPOQNueOw4FQq3hSQBnHhuPPuCXQ2Rk+7HeoSXWAjPtZXQEw7layZUtXTIFwrolNVpmM0ToLhiKBowNNNN529iRBiGpcUieeX6bTCzgolSWUUOplQPnjr3KVxt8boArJidCEFyAX58DrjzTbbrC6fvLwGKjN+E+ad322++eb2/0Dj6A3KDQzd81QA+RaDzWe3EdYPgbr74YcfbK0CqM0WRb9HR5VGqAcDgd/oyG8UJ5098bLBm2xJCugAiYupmy222MLSoV3J9pGHgea925HsJBumrBhhCuVYBNU/+/qon+JaqF+dQMe5sqFCcE4jA10vCkrAo2A8Gx8qF+edpBDNIGw4YQOiUZ188snZlFNOaY5GqnokXgw2W2fzdkgZXKWtMBD4jXRHBprNhnBaiTMmz8RLnOyyyJSIDA0MNp/dRF6OyIG6o22+8MILdk0yK4LinGKKKbIVV1zRrqFPSnegceu7OhInusjjn7feeqvFKXnHQvlxJMjzKaecUtfNfB4GmnfnJ1SHF198cf3/GJA302tMgyAL2RTJp1PoOMdCiiCB8e6Q8cYbr964YkHB1HGpoXaSQjQD1X141J3ahBNOaLtnIi/JLAXICCPOi5wOOOAAO+caaYYy07EvpDcciYPpNUZDdC0FPBlAx0B8YR4Hkr9uJKwf6oy6w0mFWJlIDzfeeOP6ehriJAxEHvqO8oY8pY/77LNPds4559T1MSWkdeaZZ9bXLlEO5UFHgtM7kp3qjDpkuorRaqBeiyK9WmqppWx6TTLqRDqyVFIIGi4dF84FxAhRSsAQux4RjFGybkLGTIZNAePKSMVKK61knb+MbyoU3/HHH58deeSRI+1BIWPbF/qco/SKI0PNo446arQO8HucLFac33LLLUnvYrsB6gqZ3HHHHbbXDOexMiFO3ma79dZbj6QjnA9EZ/gdcNSUxGGHHWZrH1I7FXLSeXMp+yLQpnTjo/z2l2fnJ8J6kozYJZc1MdRpCnhSB9nk9bSjZFQrYEdRE1b9+N///teONcWglQ+vGR07Fg01g2DHXXfd1dJQ/DUF7JGu0zthPanuaoZw+I8//jh8ySWXtPqtNeAe9R4Tao21LreTTjrJ0kZupAvKh877Qt8lv1AzEBZvbH71+8UXX3x4rROyIJ0aaN6KoHLcdNNNln5M+9BviQsUd0rCulBQOssuu6ylL1kXDSrHGmusYfESv9LqD31HR2SIrsEJJ5xg8SLrWDsUBsW12GKLDf/hhx8sv6Fuh0enf6grAnWoNki7DOs6Jow77rjDP/zwQ4uXdq70Oo2OG7HA66uVy47yMJdeeuls6qmnNg8xxiusKZodmcvl1cbceSgt4Nzpm3z98z+BBZ3nnXeejTDFyikEmXDHiC6wMydDxXoMNZTXQGVHvvguYfvtt7drA/1tb6BXxPvAAw/U596pA6dvqDfaIMPUd911l9Uhck0BspWcoT8Zh99TIH/oGtNc++23n8mVa6lkK13k0dILLrjARlm4pusc9T1nYFBvIBvEvhXsiMp5jNzUFzE6y1QVelpzVOxaJ9JxJVOD0pGGPMYYY9QXccY0MuJEGd577z17FwFI2YhXwemfsL6oUxoa847nnntuD6OYEtLZeeedsz//+c/myKAbSkuhL/guQR0/DiubsHEeaySU9nHHHVc3aiH95a0baFQnyPDoo4+u/x8DMqTu2WGVx0wla+gvbn2uo5wKdr7cfffd6/GkhLTII0/CTDvttCN1VnzmDA7qVPXKkceXqddY+UkWPAXHeSibTpRT57pMNaQcHLV7nhyBWLi7BuInTilLJypJMwjri0DDZQ/+VVdd1dZDUKfIKxW6U8TwMhd97LHH1ue68/LLB4GshfLHCv8UKG9sRc2cLvWhu+98PrqVsB7+Z8Q6AuqKkR45BSnYYYcdslFGGcV0A5mHcgflIx+APPA7dOOoo46ykQrljeupwGkhzsMPP9x2cFR9iHyend7Jy5F6RX7stMyrHCBGduojeJJs2WWXtWuybY30qyOoVWTHUhOmhZpSWFhiiSVo/dFzZTVFsLncJ5980uLXWgsFZ+BIPsD8MGstYOONN7a6pp7z9R8TJDvO//CHP1hatQ68Pt85EJRnwldffTW8drdYjztMa7BBejn33HP3mC8P6yglxA/tssZCdcCR+L///nurK9KNrXuFySabbPinn37aQ8YD0Qu+gw4pj4cccojFh67F2pt8kP6ut956li66onwqrwPJszMy1Bu6xbHmVFg9p2rXBxxwgKWh+KFT5dTRIxaCO7+acG1TGqgpih2LortJ5jWJq1aPIz5xBgv1pzpERoRaY7NHUHn5E/Uc3omloGaE7Y6BkRFe4w6kwXXykQ+Qv0ae+T7TbBq1IO8xUG7ywbxu+Eii6kgoT92Cyis9oZ6oG6bNqCvqLLZOpGO//e1v7aVdYb0rXaWh8zDwfeVjxx13tNEKyY9rqUDHaBNzzTWX6Yh0BqQjpKc8O/1DPYVBMse+g+q1KNJXRs0Vf5gWx46jVqiOpSZQO3InwfkHH3wwfLzxxkOKUaGmDHacdNJJh3/++ec97myUpjN4QnnBkCFDrI6p65rx7CGDFKHW2O24zjrrDP/6668tTe7+pC+hPEO56jrfQ+7Dhg0bPuGEE5pe1Az/SOkMJhAHYZJJJrF4pVvN0K92GLFQeTmGdUHdMLqg+srnZzCBvBPHOOOMM/zdd9+1+EMdEPo/DHwPnQF0CF0iTulWyqA6nnjiiYe/+uqrlqbqWflxBk8oT40+v/jii8NHGWWUkWQw2CC7xRNvvelVJ9LxaywINaNhXn6tQdbffy8vvwiKk41TeI1urcGbV+oUg/rUkUB9st6COUkWTzHfTf1S5ympNXS7k+ApH97/MXToUFtZj67kCdNWfskn32VV/u9+97u6XsSgOGpOcHbEEUfUdUvxclT63UBYXs6pC+qEBZssok5RH8RHHFtttdVI79cI4yYtQgjfRWfQHXbpRJfQqUY6FIPKSVq8W2aGGWawNqJREkKKuuh2VI9shFhzGG0tSwpYtEm8assdL6daATuWmhDrR3mit99+OxJNcpfDkefHa0akfidFGgrOwFBdhUfqEplBzZDW67wZIxeKs+bIDH/44YctTdZ6cDeYl2k+IHuOtU7ORsNi9UqBstaM2vDHHnusnh9QujqPocojFmEZdS59eOKJJ4bXOthkuoDMRhtttOGvv/66pUXeG6Wvc3SC70gm//nPf0x3iKsZ+hnqfa3DszSpi0b2Rkdn4Kj+qE8C66amnnpqq+8U7ZmRsNpNqKUle9HpcuroEQs8Q6iV0+4iOPJSMuYnOdfnRagphv2+ZlSyRx55pO6NAucxcXcbqiuOoVyQWc2A29bKegV0zcjaZympGROLt9ax2GOGF154oT2OSnqSs/IVBuB3/H7SSSet732QIo/EQdl///vf25H0pF9CeehEKBt1KSQHRgLYj6TWqScpP/VMOuyyySObyLLWidtnocw51//SC3QEXVlhhRVMd6QLqSE/xHvCCSfYOjFGKmgbypsC6OgMHmSKDGvOcfbWW29ZXYY6OFikR2ussUY2ySST9BgJ63hqFdex1BSlfiTojufPf/6zeZKxdxf6/VZbbWXx6k5HwRkcqrOwDmsGtX5neNBBB/Wo99Sh1ujr5wceeKClDY3uDsOgEStGLdhZr2aQou90+H2t87Dzk08+uZ4PpQk6FgV9haqPWFC3arunn366pZNCBySncLQivKMM8wBhPrgmfSTE1F1fQTqw//77W7rSRWiUR2fghHVHUBuv3VxYncfKVDbgjjvusHjD9kvoZDrasRASoozG22+/PXzMMcc0occojxRnjDHGGF7zcC1upaHG78RBXRJk0HfeeWer89rdYr3+UwbilE6svPLKJlfAuZHhaRSUPx5h5bfqEGID+Rl77LFtsR7phPmI1bEqOxZhGSkz5yzmpS5SyV0y2nPPPS3NRjcG4f9ycN95553hq666qv2WvDRLD9FxznfccUdLt5s6pjJQHXKU3WbqEb2Ilal+P+eccza0HZ1OV4zL1MppoWb8bDiK13QzPAU1BbBjEYizpoS2kcr5559vcdWUxj6Lidf5WWYE6hLZ1Qx/dsYZZ2RbbrllfeFaakgPGSJXtopebLHFbJdVhr3JR81A2Pc457tCsmeXRYY9+V4KHaDcX3zxhT3SKt0C4k4Rf1XJl4265tFg6oI6SQEyGn/88W0TK+o2X6eSr2SODvAq/kUXXTS7+eab69OroR6kAt1GxzfffHPTeXRf5SY98tmMdLuJsA5Vp2eddZb1EbG2RXrEywrRG+kQdIXsagXseGpGo37UXYkWcdYaqx2LhpqS2HGaaaaxRT81BaoH0lFwihHWIXcVCtpAiwWOoTxShnC4nakR3bFyRI9CGXOuUYtTTjnFfhOrWwqKhyk80B08aYLyMFgoA1RlxELlCMumOmc6KEwnNki2Rx99tMUvuxCmj57pUVJke/DBB4/0+2YE6TQbYJEH5SXMnxOP6lF1ywJLpjKpe9n1IkG/ZSSb0XHiJg2QXnc6XeFYCASMYAkYinnmmaeHIhQNMnYXXHCBpSMj5aSD+pT8aKR0OOuvv77Vu4aMmxHoQDRkzhNAekoDGcuRyOft22+/HT7rrLPab2J1SwEd47l6nkCAsCMsijr/Kk6FUC7F8fjjjw8fddRRkzkVkglPcnz55ZcmM2Sn+iQgW6XPDrt6wyW6kCofjYKcCnRbDqw6PoKTDslc7VhvoFV7Lxr0e25+gPglv26RYdeNWBCkSKeddpopQKyh0O8XWWSRupHKGyqnGKq7sB4xttQvcmzW1t9hoCPSHSodHHe56nTIQ2j4pVtXX321fT91ZzjzzDPXN2VTHsK60XEg6PetdizCvCuoHdHxzz777BZ3SieN44UXXmjpktcwXY2SkP6xxx5rMuf76FiqPDQK0mFGKtAjyTisFwWnOKo/6pfA/9wMzDjjjFb/saNR0hFGxYkbWUpuSrvT6boRC4KUiffijz/++CMpRpEgYxWuAFY6BCcNqk8ZBcKmm25qdc/dXqqOvFEI42YnPY1eSN7KlzoDFn/y3VTD5vk7IYbplSZHwmCoimMhVAaCOvctttjC4k1Vh8on8iOPBNWfZAiMUiyzzDIj/a4ZgY5Io24bbbSR5QMHJ3RYnTSoLlWv0tMrrrjC6j9WznIqeIeN+gDpVzfRlY4FQYZr1113NUWINVwy+muttZbFi8KG6TlxhHVJQ4WwY9hhhx2s/lN1QH0FyZrOYL/99hv+xRdfWH7oCJQneO6552z6IlWnhNFS2kcddZSloc5QOqbjQFA+qzBiEQbKBHosnDKnGikgnzigjz76qKURduLAOikeI9V2zmXok6Y/tt1227r+qP7UKSk48agew04fRxMZxLZV/f7UU0+1NJBjKD+l3el05RoLkMC5M0lpuDASzzzzjMWdv+PQ0YlDdUqgjiXTfffd12RAZxBrIPoLYfwMofImRIHTyps3AceD76TsoBTXVVddZWmQVr4DUugLdV6tcCwa5ZUyaLHkjTfeaHE2o9522WUXS4N6U3rA9BVTTfnvNyuE5dtrr70sD9RBaDcITjrCepVTfv/995ssYvsAtYEJJphg+EcffWRxh+2ym+jaEQsELudCQ9ZSjKJBv99+++0tvdBbddITylIjUMcdd5zJACORylnsK4Sdz5prrjn8kUcesXwAnRajGeqsUnVU6BmBVecPPfSQpaW7fOpioLTSsQhR+1AZ2LJ73HHHrZczn1aRIF2Ycsoph3/88cc9HArSW3fddevf1QhCMwP5UdnCJ1O6tSMqC9UtQTqaap2Wfs9eOyDHRaGb6GrHQoK//vrrTSFSdUQY/DfffNPilnOh9J14wvpU4C5PHdP5559fn7OONRYDCWEHSKf0u9/9bvhrr71meYHrrrvOPkt5B6y4ePvryy+/bOlQ/rBjIoCOeVrlWIT5I6gtwhtvvDF8qqmmsrhSyk71ddlll1k6wOZnO+20U11XKENKGfUWVC6O55xzjuVlsLJzBkdYnwSNCvEW09/85jcjyahIoP+g/T/11FMWt2y/QjfRVY5FiIRNY+buZY455qgrR15hBhNkmNj3ALiTlsHg6DQHyVMd1L///W8bkgxl0uwQdszsEMkunGzzDTgb+e/EBukqj01qh1DKr7pQ6I1WOBbKT5g/jR588MEHw2ebbbYe8aUIiotFvsAw9R//+MceC7dTptdXkFNB2qqrvMyc5qE6ln5qjV2s/PV7Rr9Bjku30tUjFqCOiMU2oYIUDRh7wkQTTTR82LBhlk44Z+qko5E8OWp9A4sn1VGV5VwQwjtt9ODwww+3EYy55prLrsU6r2FQWuybwWY8MFDnohWOBYT5UvvDqZh33nktjrD+UoWZZppp+CuvvDL8+OOPHz755JPXr5cx7aEgHWRqjHVYoPUxENYLwUmH6pOj7PHQoUPtzaN5ORUJatOMThI3+o9cOVfoJrp+xEJKxrzrxBNPbMqRyntlvh80/x8aECctkqcaszos5Lr66qubPOiwUnbq/YXQmZl++unrK89TB+kbzgXvFIGBLOgsy7FolAeCHEDevaHN6prlAC688MIjLcwsSxdIR87SSiutZI+5Q7d3PmUS1rFGyHD4kUmszkmPGPVWu1PoVrresSCo4z/ggANMQVIZN+aKtZlRaEBARyctqmfQnTvX9HQGIdZxHEzA6DSrswyDOq6pp566vr8Geh3qXJ6yHIsQ5UdtjlEldfjNGKnIhzIdCkJYp3vvvXe9XkLZ9CYfJx2yC9xIcs4NxySTTGJyidUHyZgNFyEcMexWuuTl8I2pKZQda4qBg5Vtt9122WijjdbjhTFFIc633347u+SSS+ycOEmDNHV00kGdguqV/2udSL3ejz/++Oyiiy7KxhprLHvhVK0Ts+82Ww6kTR7QgWamVTOYVqa33norq90VZ7UOvv7yI9VBPjSbRmmSl1rnanm7++67s+WWWy57+eWXTVaUoVlQ/2E7bCaSM2VC18Ycc8zsvPPOy/785z/bZ5QfWeVpdr66DekcqK2rLfLSyA8++MBkFFPvxImMJ5544myTTTaxuIi/2+naGkAhpFAyANNPP3223nrr2bVY5VDcf/nLX7JvvvnG4uOaruvopAF56hgGGfDaHWK22WabZffdd182zzzzWCeGTMoyAuhXs2WuMn322WfZmmuuaR0Z5SdgUEOom2bnRzIQ5IG2hlPx17/+NVtllVWyYcOGWZ7z+UsN9U8oA8pMOSkTunbPPfdkW221VfbDDz/Y57/85S/rdRPWkY5OGlS3srvIn7bA26jRP4jVCeQMW2+9dTbeeOP1eAttN9O1NYCihQ1ZyrfbbrtFe7HA74lnyJAh2aWXXlo3NE5zkRwlP47IGYPy3//+N5tzzjmze++9115DjjzU2XUKMp6Ue99998023nhj67zlXPC5jG2o/6mRDAikqREVXnvOyCCvQMfZo+5jjXuVUHmo6+23396cCpwLdE8OBXUCYR056VHdUucEZEKnzyjyG2+8YeexdU+co48+evbb3/62npZTo1YZXU3NCNRDzfjZNS32qxkJOxYNNSWzI3PIvOSG+GuK2GP+TUcnPWHd6jyc+7/ooovqj6TydIDk1Smh1pHbkcdRWa0umN9HF1UX7HLJ92qGtsfvBxP0W+IC4iaNcCOqW2+9dfgss8xi34ttW1UL6I6eMKndudpeKkL17O2+XFTfBHSR8M0339TX9MS2d+n81ltvbekRv9IDHbsRH7OpUasHO9YUwc5///vf1/+PgbjwiplDxkvmbgYPN8Q93OYR1i3nyEN3lAxZMjXy0EMPZauuuqr9L3l1CugaowSvv/56ttZaa9lw/JtvvmlTEdRDzRBaXaie1A6KEP6WOEmbNH79619nQ4cOtREi1n689NJLlqfYtlUl0BnKjw5RxgcffDDbcsst7X/KST3wOfWsug5102k+0sfLL7+8vqYnRt8B2aLLjHLn45K8u5ZaBXQ1NeWoe5aMJsizXXzxxdGUqLs4Qk257Mid2nfffVdPQ+kqbSc9qtuwrnUNOeiRVDjxxBOHjz766CYr7vSRm2TXzoEyoMMqy7jjjmuP2bEqXmjn2Rhd12+JS3z66af2yDV7efCZ8hL+rp0D5dGo0GijjWYvTZN+6akPCHUvvOY0B9UtbZxz2Vzsr0bMYvWw5pjYkdFtYFRK6bmMa17ViGPXI4VAQeCaa64xxUnRuUiJzz77bIs7NDooo1MukjXIkQQefVx++eXrcitz86QyQmhMJ5tssuEHH3ywbRLEq/7znw82yNDeeeedttsozou25iZ0kkNBkENBWHbZZesbXqFLsiGhnjnlo/qXPM4991yTVyqbTjy0HaWh9Ajdzi/4U6uorkXFrylJfViYI2GRRRbJnnjiCRvq5P+i6Pc8dfLUU09lo446ql0nrfDoNB/kTX2Hai95s7iOIyvGjzjiiKx2V1+fGomRf5WgPJS/5tDa/6xkRy8feeQR+z8G4l1wwQVt6uWTTz6xaxpy7qT6A8oz/vjjZzXnLNt9993tOgs0OVJmIV3zNl4eYdvWOQuF559//uzFF18cqf0PFmSM/Jdaaqnsrrvuqscl3YCul3etUpwR1JTFgobIL7jgAjQmyUKzmtLZ8fTTT7e4SYO0NGLBuVMeqm/JHLjblDxqnaO9W0Ly67TFnZQlhV73Foi70+orHKXYcMMN6y+aQ3/CUQoRnjvloXrnyOgwMFqM3GSHY4L0+tprr7W4w9EKcLn7iEUPagpR90apFu5A5OXqelFqymjHKaecMnvmmWeyMcYYw/4HPiOQpr7nNJ+wvsNmUHMwbPQCbrjhhuzQQw/Nnn76afufu1Hd7XcC0r0Y3Q6hnVCXYX22O6HMeVz5j3/8Y7b22mvb/7VOxT6XHnFU2XXNKRd0WXIgfP/999l8882Xvfrqq0nsOHHSL7Dwm/ik8zq63Gt2YMTRqSGl4Yjy/eY3v8n22Wef+mcxSPHYjfMf//iHnWOsiDdM1ykH1TdHQggrvZENYY011rBV/uzcOeGEE9Y7GDqTToCyp3IqgLjy9dmuSMbInGmP4447zjoTnArpB7oStluVXbrllAN1rSCQDzK84IILkjgVQByw995716dOIbThLvdafdQqwWshB1WiapG3+8orr0QrjQwQ279yB8z8NkhZQd9xWovkzOgFxgkZvfvuu9a5nH322TZni6zkIDqdA/KWg8Sjudtuu2124IEH2mgj1+VQ8LnaLufedqtB6DywyyYblPGYdaz9RtbEPfvss2ePPfZYjx1UQ11wfMSiB6HSoSwoEe8O0b4WsYZDysce9SeffHLdgDnVAPkoCGTE/0yLTTHFFNkZZ5yRPfzww7ajJcip4HtOeyMZIlNkvtFGG9kIxZlnnmlOBTpAe9X31KGE+uK0BsmBINuNrUV2OBVqxynYf//9s1FGGcX0hLQUnJ/xEYsGqEp0ZNRi3nnnteE0FDT2DhUlZI0Fay0wWKST93ZdUauHOhzuVuGBBx6w93Fcd9119j8yQ46x+uGUC22ajkjtfbXVVsv222+/bMkll7T/JU85FHzP22e1kOwAWSIfnkyaa665so8++siuh98ZLMTH72ebbbbs8ccft5EsXQ+Pzk/4iEUvyHgwFM6oxQEHHGDXUygQcXz11VfZscceax1RqPB85kraepBJPiArOhcW7HH3uvjii2fXXnutvXuEnS2RW9gJuRyrC7KRoyCZIUPe7XHjjTeaU4GMkTVyVzsl8FudO9VDoxWMCn/44Ycm51hZqS3jcDJaIecFpA/Oz/iIRQNUJSgMRocjRoZRC7YkTqFIxMEc3aOPPmorzXFgdCcMfO60DuTbSM66RpBxUQf1n//8Jzv99NOzq666ytZggIwa33Vaj5wE2htw57nOOutku+66qzmKQJtHZpJrI6QH3k5bi2TAEdQm33rrLVtbwRoLfVYU9IV4Z5111vpoBWlI9kpf/zs+YtEQKQ3KIqXCS+Vtkfo8FuLFWTnssMNGii+2ITjxSCbSBQUZEORHx8M5HREdFRuqXXzxxeYssmnSBBNMYJ/lHRCnfCQrZIGsWDjNOx7YGOyyyy4zp4LrupHQ93sLoKPTOvIykM0+5phjbFQ4hYwUB2sreFIQHSKNENeFnviIRQNUJSgLSgRcw/AstNBCtjZCDkdRiFvx33rrrdmKK65o8avz4TPSdIWtDn01FT6jUwLtgcEiXRyNCy+8MHv22WftGiBjvh+jP07/0EYJtCsxxxxzZJtvvrm9gG6yySaza3yOPORM9Ia3xeoRtknaHzJkd2OcfP5XmyyK7DB6ww1D+CSIcL0YGXcs+kHVg/FBqXg7Hk8EoMCxSivnZIEFFrCFgDJseUV1xa0m6Aay0VHXkClHTW0xLXL77bebg/Hvf//b7qSA30iPpGdOHNQp9S5nAcYcc0xz3HnjKEfeuAp8h+/TDiU/p72grSE7ZE07wkavueaatrFdShvN26k32WQT0xniBaXrujMy7lj0A0ol5SLAEkssYY8c6noMiuOf//xntt1229UV15W1PZBhadSMMGrIlo4OOcOQIUNswScOKvO1IcideGJ1qtug/qnffCfC/jPcBLChFe9DAepWbUwy6Q1vg9UHeSJHFtniVNxyyy3ZqquuavLls5juTbbZd9kcPO5Y9ENYPRikUHmleDFIMXns9Mknn8zGGmss+5+4hTouV+JqId2QfHqDz9ATvqe7Ha4xtIqTcf3119u28ULf0+/6irsboX5oHxxpkyGzzDKL7Za67rrr2gvR+A7oe/pdb/AZ9d3Xd5zWIxnJ/vI/zsWiiy5qUyGxtpm4iQNn9eqrr7YFvnJe8u3RdWVk3LEYIKomlBWFW2mllWx4O1aBQUO3LA5iZ0cUOHxCBFx52x90SI4CekOAH374wRYR3nTTTdnNN99sTkbYLPke8tfvu5G+6oCdEFdeeWXbf4I1UCywA75H4Hdy6Jz2Bx2QLgCdP/aStxLvsssuSWwy+kK8jE7zBlMIdVBt12mMOxb90JsSMzSG0nE9tgqJH3jyhNe0zzzzzNYwpLxKX99zqstAdYHvaeieuyDBk0Is9LzjjjvMcUUfvvzyyxGf/kRo4BQ6Ccom3ads+U6CUT0e/V5hhRWy5Zdf3jZB0oZFfB/HnDjoHAbaZrxtVR9kKznpnDbE8bPPPrPH9tm3Qp/HgP4RB+1w2WWXrd/skVaYD6cx7lgMkLCaNCXClr9XXHFFfcQhBiksQ24MvRFf/i7LlbkzQe50nhzzI1W8n4T3ErBxE87sCy+8YCMcIehF2BErtAPkXQHkbIXgcLPj4cILL5wts8wyNsXB9uohGH7qQE6X03mg08hW+s05csep3GuvvbK//OUvSWwxOkR7XH311W0RKDqp9gWuX/3jjsUACatJisYW3yzsYcvv2KE30PAbc+7ME4fOhStzZyCD2FezQwfQJ2QfOpf85o033rA5ZKZOGM1gwzbdpeUhndAg8nul21f6KZHecgx1WI5UI3hJH2sl2OCIJ6ZoY9NNN12P31NHBOonH3cI10mnt8+d9kN6gw6h34zw4XTqxYCxtpg4cFDY8I6RMemZPnN96h93LAZIWE2co7woHy8oY+tYebkxKA6MKnepPBaHAqtzcKVufyS/3ppd/jPpGqgTDeF9CK+//nr2/PPP2/4qOBr8j7OBw9sXxBUG6C1f/RH+Pgx9wVoInIhpp53WdH7uuee2kQmcCDYXCyEuDDzQHpRef/A9fjvQ7zvVJdQn2gT/0yZWWWUV2wsohQ3WiMfWW2+dnXvuuSONHLs+DQx3LApAlanaMOAYRAx8iqpU4zjyyCOzQw45pMdCTlfmzgcd6k3O0js6WL5DCI2e+Pbbb7P333/ftjV+55137BFX3vA4dOhQeyET89HffPONredoJgxR87K9ccYZJ5tooomyySefPJt66qmzGWaYwZ6C4nzSSSe1d/HkoYwqrxwq1//uBrsoHdAUCFPRTEmncCqAeNDHp59+2vSTOPOOhdM/7lgMkLCaOEfB8GZZa3HSSSdle++9tymg7qqKIsUdffTRbZ8DjDBxhndprtydifRqME0Swxd+n983cjYE6zNYDIpz8cUXX5hD/Pnnn9cDDgcjHQQ5H+ie0iB+0sSoY4BHHXVUG3lAX3EgFMYff/xs7LHHzsYdd1xbbMk6id5Av9UpED+BNAcLv3M6j3y7kK6gn0xVMD0Yfl4UOScHHnigbQmO80Jbyuu/0z/uWBSAKkPB5EQwt8c8MMPQUs4YFAc7yPFKbox7qOAcHSdEOqnmzFEB+Ay9aZVhJB/odJgfBdGqvDnVRjojsLuM4uIA8Hh+Cpsr3WMEjSlFnGPQdY7kw3V0YLhjUQCUWIrGqAV3bzzJsd566yVRctBcHzs0brjhhuY9a3MWV+7uJrbJ6vccw7jy8fZlVOUkyNmF8HPOw9/HEPt7pzNAz9A7brLo/HkfCDd1Keyt7PaZZ56Z7bjjjnYzh13nmnTc9XDguGNRgLDKOJfSsYjotttuSzIlIkWfaqqp7CkA3nfQyFC7sjupkF6jUwM1C+F3XRedVDTSP+whgZsu9i9h46qUtpankHgShPjRZemz6/Xg8TH1AuSVTo7Fsccea16u/o9BnvLbb79tr1anAXFNaSs4TiqkU9LfUMcanRPC7zpOKkIdE+gao7Y8rYFTwXmsUyFIB/vNk3iys05xfMSiAI2qTPN+u+22W3b66acn8aSBeODee+/NFltsMZseIR3lgQbAuTcEJ5a8Tonw//4+c5wUhDoG6ux5qomn8D7++GP7n+sxaLQi3JiQa6Euu14PHncsEkAVqhpReBSfBgCx1RsO0z344IPmVOBsoOzEzdEV33GcTiK0m5xzk8YIxVZbbZVdcMEFdbsYA3EAoxQ8gcerFEhL192uFsenQiJACcPOHUXnef3DDz+8fj0W4sSZYJ3FCSecYI0rbFCkQVqO4zidQmjXsHfYPV7Sh1OhaeFY5JywyeGss85aH60Qsu/O4PERiwRIAeVcEJZccsns4YcfTjYlgsKzfoM4eelSuHEWpHBiHMdxWonsqLolORDsWcEj/Wz2luJmSnGw6+uTTz5p+7BwDTurPDjF8RGLBEgJOdIQ8K5PPPHEHh1/CtjciNcC41SAGldsI3Mcx6kC+Q4de8rNGQvYcSo4T2HvlA4bYbGBm5wJdyrS4I5FIqSUOBN0/Isuumj2u9/9zkYraAyxqIGxzgKnBeeFoTs1AjW2FI3OcRynLLBZof3SudZV3HffffUF8RrBiEHx8Np99gjCjoYOS5gHpxg+FZKQUDGB7ZLZcpb3NkCKqmaoju2Red56zjnntMbHNfe2HcdpZ7BfBOwZdo1zRml5c+kLL7xg11M4FsTDgk3eEDz77LNbWtwQEjefOfF4LSZCnXrYMCaccEJ7NlqfpeK7777Ldt555x5TImH6juM47UJov/S/OnsWwuNU5BetF0XOCe92mmOOOeqvSwjTd+LxEYvEqDo5osAo7UorrZTdfvvt1lAYdouFOGl4Rx11VHbwwQdb46DhCTkY3lAcx6k6YRcku4mtZO+e5ZZbrn4tFtlFXuzI46W8RE82EofDbWY63LFIDA1AyknnjxPAy8kWWGABG9ZL1UAImn9ccMEFLS0N43njcBynXQi7INlHXv2/0EILZS+//LLZsxTdlEYrrr/++myNNdaor60At5lp8amQxKjTBxQZ5eUZ6YMOOsiUWp1/DGpkvIBnhx12sKkRIH4+U3Acx6kqjWwUNozO/oADDjCngpGLFLaMOIl74403NqeCaWQ5FcJtZjp8xKIJUKU4Fyiy/teTImx0lXpKZM8998z+8pe/mKPBKIY8/BROjOM4TrMIux+tq7jxxhut85d9i0U3e+OOO67Z38kmm2ykmzzdDDpp8J4nMXIqdNQ5T3KcdtppyTxwUEM85ZRTbFc6VjpzTek6juNUFdlIUEfPqxB22mmn+rUUkAZxsWfF5JNPbjd1bh+bizsWiZHChkc8b5SZl4jtscce1vnnh+GKQlw0UBrjBx980MPL57qC4zhOq8nbJJ1js3Asdt9992zo0KF2ru/EwI0XTgWvWf/tb39rdphrwh2M5uBTIU1G1Svvm/UQLOR85ZVXTKlTVD+NkPjXXXfd7KqrrrLGwzWC4zhOFcH2YQOZJmYK9+9//3u24447WsefYqqYuAmjjjpq9uijj9pLxsKbOtlfjk5avOdpIqHSygMfY4wxbEqE61xLodQ4FTRGXvt7xhln2LlGMhRAR8dxnFYQ2iSCnIrnn38+22effcweasQ1FuLCNrId+CyzzGLOSjhSTPp8h6OTFh+xKAGUW6MKKDcvE2PBJWsjwqmLGOSosM6C5795YU/YkFI4MI7jODGE3Y1ufjgutdRSNqogOxmLHAamn+++++76TZyC01zcsSiBfGNCsVNPiRAHjYf42ab2oYcesiHAfEMKzx3HccoktHOMVnCTtddee9lTbamnQIibbbt59QHxEn+YvtvC5uFTISUgBebICALKzZQI0xY4AwoxECdOBfEzrMiICOc03vAOgO8pOI7jlEHe3mCr6PiZvsWpwP6lcCoAu4fNO/TQQ82p4DF82V2CHA+nefiIRQlImUPFphExt7jvvvtmf/7zn+0cJyAF8vzPOussWwnNlt80YolaefHG5ThOWcj+0OnT0b/55pu2azAva0wFDgrxL7HEEtmdd95p17BzXJfdi72Jc/rHHYuSUEeuI8rPOZ3+Iosskj3zzDP1RhGLHIbf/OY32f33329vWMXRoDGH6HuO4zipyXct2BtGKrBxnPPa8nvuuSe53Rt99NGzhx9+2BZskp6cCoLsr9Nc3HUrCSlzqNwc6fx5zIoRhVSoQbOOY4sttsg+//xzS49G5jiOUwbYHAVsEgEHgtFZtuzGqeA8hVMBmu44+uij7TUKuplSHkBHp7m4Y1EyKL6UG6Vn+oOX7fBIFA0sP6pQFNKh0b744ou2eZYaHcFxHKfZyN4QsHma/r3iiiuyE0880WwSNzspOntGJYh/lVVWyXbddVezq6Etld1z+1cOPhXSIkJFl8fO69XvuuuueoNLgeI64YQTbD0HDY41GCHuxTuOkwpsGjYl7FqwO4zK8mIxpn6//PJLu56i+1FaE0wwQfbYY49lU045pdlUTYEoP055uGPRIsJqx9Oms3/jjTdsMRNTF5BKNPLcb7755mzFFVfssd7CG5zjOKkJbRfndPTff/99tvTSS2dPPvlkU26eLr30Unt7qewb6WLf3MaVj0+FVAAaAY1huummy0499VRrEPK2U0CjpuFttdVW2VtvvWVODP8TP2mFwXEcZ7D0ZkewPbpx2mWXXZrmVGy77bbmVLAYHtsJcircrpWPj1i0mLD6NVzII6Jnn3120kdQ1QAXXnhhewyLHTrV8AiO4zgpwKZhU3AqsF/YGh6pZypWj8KnQE7DTDPNZE+BsDcQyLEAt22twR2LFtGo2mmI8O2332aLLrpo9sILL1gj0fVY5FwwcnHeeedZA6fh5RuiDIPjOM5ACO2Z7Af2hZujW265JVt99dXrtiWFPSMuAjaNVxiwboP0+J80sGlux1qHT4W0CDUMnYM6+DHHHDM755xzzNNPCU4Fdwznn3++rcpOeffgOI4j5FS89tprdiODM6GQAmwXcR155JHmVDAyglMB2FN3KlqLj1hUADUCGgrOBY2ERsl6iz322KM+0pAC4lda11xzTbbWWmvVPX3hDdJxnMEi+yVbxT46yyyzTPbEE0/Y9VROhewhoyDXX3+92S/iJwh3LlqLOxYtRsofioFzGg7OxYYbbphdeeWVSUcXaICkwcjIfffdZ/vp48yQhvCG6ThOf+TtV2i71l9//eyqq65KarvkVPBIKS8Ym3DCCesOjeyabJbbr9bhUyEtRoofNk7OaSQ0mL/97W/ZjDPOaA0zVSNRQ+RZchyXYcOGWYPVHQX5UKNUnhzHcfLkbYScioMPPticCuxKKqdCECeL2yeeeGKzWTguykeYn1T20hk87lhUCBqCGgNHGs24446bXXjhhdkoo4zS4/NYZAB4bftGG21Uf/qENJWOGiq4g+E4DsgWcAztAg4ENuXcc8/NjjnmmProQioUH28tXX755e2tpRqlgLzNclqHT4VUkFAkdPg8gvrXv/7VngNPOawIaqx6UoTnwLlGg83jDdZxHFAHrtFPrQvjUfbVVlvNbBSfpepeNIJL3KyrULrkwe1S9fhfh9cYce60GDXWEP7XG1Dffvvt+gYzqRos8WAQiJdz7gQwCqQhlCdvwI7jyE7pqNFP3ku0xhprZF999VWPkYRYlNbUU0+d3XDDDdloo41m1/M3P26fqoOPWFQINdTwPPT62RJ3qaWWSr57HSi+f/zjH9nvfvc7G2bEWISNVQ1c547jdA+ySbIBgM3AdnzyySdmm1566aX66EIqiA9bdNttt2VLLrlkfXQktEXKm1MNfI1FhVDDyDdgjVCMPvro2cUXX2zrLlI3JAwEDXjnnXfObrrpJttDo9GUC2l6A3ac7iPf7mWDuOHZYIMNzKmgw0/pVGD7iI+dO3EqNFUr2yjcJlULdywqCI1EjVbndPo0qplnntkWR2mOMSWkgzOxySab2KNcrO2Qc8FnYdA1x3E6l3x71zn2RzaI93Sw+yVORaObkaJoFHW77bazV6Fj/8JH4p3q4o5FRZEHHh5puAwDrrnmmrbjHI2Oa6kcDIwG6Xz99dfZuuuua7vmET8NWgZF6LuO43QutHGCnAqd40DQyf/+97/PLr/8cjvHNuXtRFHkVCywwAK2USDpcQ1bpzyBjk618DUWFSdszEJPimy66ab2quDUT4rQeLkbYXSEVd6TTjppvWEL5ckbtuN0LrI7tHNsAkfZn2OPPTY76KCDzP7gBKTqSmRb2Kfi/vvvt7c+y/6Edic8d6qFOxZtgsREI6IRc2TLXC3mlDOQCt0x8DZUXiLELp0a+sw3ZG/YjtNZqMMOuwfaPx08669Y5L3DDjvU7UQqSBMbQ2Ct1worrGCOjJwK5cltTrXxqZA2IWxUNDqOLOZkxELb2qZsbBgLGjOvI2ZhFtMheefFG7jjdCaN2jU2AafiX//6ly3yTu1UgOJksSZOhdZVhPlxm1N93LFoE+jE1ZFzpAHS6NjumydFWAsBKRsdDZxGfccdd2RbbrmlpQt550LXHcdpb9SWw3bNkZEKpj9uvfXWbPPNNzfbkLrda0p3xx13zHbffXcbqeBantTpOulxx6JNwGHIOw00OvabYFMrFjjR4Bo1xBg0t8mL0NjfgvhJh6D8pHRmHMdpHWrLYeetPW0eeughe7cQ//O98AYjFjkVjFJgy3BcsDukk7czOjrVxXfebGPU6PDsWQvx7bffZg888IA1yJRevRwW1nJ8+umn9rpiGr7SB2/sjtP+5G8YtKbiqaeesl01P/vsM7MvKZ0KplixJywWv/HGG22Kl3w0smNuZ9oDX7zZhuRFxv/y8Lmj4K2CejQ1JcRPOvvuu292wgkn9FhUBRzJizd+x2kfGnUBXNP0B1t1r7TSStnQoUNHWmcVi+Jj07+77rorm2uuueqjpMLtSfvhjkWbQ6OkcdLJ0wDZBY+pkUcffTS5EQA5FzxmdvTRR5sRIB2COxWO096oDbN+C6eCvWxwKt58883k9oT4SItw3XXXZauuuupI6yrcnrQnvsaiDaHxK9DwONLhcxxjjDFs1TYv7MEIhJ5/CjQywmuRjzjiCDMCXAvzQnAcp9qonarNKtC541S8/vrr2SqrrGJOBW0+9U0KjgW247TTTjOnQk+ACNkTp/1wx6INocE1Cpr+mGKKKWw6ZJxxxqmPaKQEY4ABOOyww8zBIF1GLmQEyIsbBMepNrRTCNsq9oP2zJuUcSpwLuQApARHBZux//7721MgGqkI7Rno6LQXPhXSxjQSHdc0N8rGVmuttVZ9RCG1qDEOxI1zceCBB/aYFnEcp9qE9oAOXE4FaylWXnnl7IUXXrDOnnadEtkNHmE///zz605FHncq2hd3LDqEvJHQHOl5552XbbPNNtZw5WCkgnR0N8P2vgcccEDduejNKLixcJzWQfunDYZ2gHPdjLzxxhv2LiKcCjkAKVGcPFbKEyCyFVxX3pz2xx837RBokGGjpMHiXMw///zZaKONZhvb4FyknicFjMLtt99uhmG55ZarpyGjEQbHcVoHbTDswDkyYhCuqXj55Zeb4lRgD7ANc889d3bDDTdko446ao+pWncsOgd3LDqEvLEQGIcllljC3lj64IMPmsFoBsR7zz33mJHiqZSBGCU3Io5TDrIP4ZGgkYohQ4aYU8FRo5spwT7gRLCo/N///nc2ySSTWBqyR3Iu3CZ0Bj4V0oGExgNowBiLrbbaKrvgggvMkDCakRrd5ey9996217+Mk4wGhMbNcZxyoXNX22MHzVFGGSV75ZVX6k9/aFQhJYpzggkmsNcDzDnnnCOtq3B70Fm4Y9Fh5J0Kzung9T8vFLv22mutUadelEVaOBfEy0rvv/71r5YuwZ0Lx2kdav9qd7RRFmo+/fTTtpPue++91zSbQJpMe7CYfMkll6w/Vhq2f7cJnYU7Fh1MKFrdqfzwww/ZaqutZtMWjFxw55BaBTRysdlmm2Xnnntu3WDhXLiD4Tjl0Khdc402zzbdvPtjnXXWyYYNG9a0kQqg/V9xxRX2hJoWlcseuQ3oTH628k7HoYYLNHIaMEOfbKC10EILWSPXHGdKcCqIl7eussU4u4Fyd6SpkRA3KI7THNT+1cY4yqm47bbbbFOqZjkVgnjPPvtscyq4qcHJEOTHnYrOxB2LDia8Y6HxYkDo3McbbzzbQne22WazkYRmORcYEaZd9PIi7lQ01EreFPS/4zjxhG1KgQ5eTgU3FmuvvXb25ZdfWttP7VTI1hAv06G8Zl0jFUB+QqeCo9NZuGPRwehOIGzEdPZ0+hNNNFF28803Z9NPP33dCUiNnBZeLsT7BtjNj5ELDBx5Ub7cwDhOOvJtiXPaIm3vH//4R7bxxhvbKCLfazSKGIuclT/96U/ZTjvtVH/tOs6G2r0C6Oh0Du5YdAH5jpuGT+c+5ZRTZjfddJMdmz1y8fjjj9umOGy8E67tkIHRueM4cYRtiQ6e/xmpYBO7HXbYwf6nrXNMDc4DtuSoo47K9tlnn/pCTQjTa0baTnXwxZtdRihudfrPP/+8beHLynAMTrPuYoh34oknzi6//HJbHc6cq+5khDsZjjN48mac9kMHT9si0MmfeOKJds53m2H2uWHAkWB7f7b55+YhHAn1tt09uGPRpXAng5Gh8dO5P/fcc9mKK66Yffjhh01zLkiPdNkJlK3G119/fXMuMEgyNm50HCcOTLpuGpjy2G677bJLL720Pg3ZDEgLR0Z72DD9gR3humyNOxXdgzsWXYYadyh2jA2d+5NPPmkrxT/66KOmj1yQh1NPPTXbdddd6+lgfBrhxshxfqY/k82oAVMfH3/8cbbJJptkd955Z9PaM22TuHEqdt999+yUU06xc64rCM5lf5zOxtdYdBlq1OGROxmMwbzzzmtrLljYiRHCYKRGTgXstttu2X777VdPR5/J+Cg4jvMzYdvItxHaMU7FSy+9lC277LLmVPB/M5wKkFNBW8apwKnhBkFtOp/HMK9O5+IjFl2KOm+Jn3OGLzFCTzzxhG2ixciFpi9SQ3oyStxVsVp99NFHt//zDo0bI8f5mUYmm2s4D9wk3H333bY53QcffGBTEVxvhpmnnRJ3OFKh60I2xttwd+GOhWNIDTAUGKNwq18ZkGaguBdddFGbB+YJFRwcPfMObpwcZ+SbAZDTzzXaLe8C4skP1i41s91qvcYee+yRnXzyyeZUcBNC/ry9Oj4V4vQAY4TB4NXG7O1PR49xCu9CUkLcOBFsL7z00ktnjzzyiI2a6O4H3Eg5zs8jd+GRtkGHjlPxxz/+0V40iGOuRZPNQDbigAMOMKeC6Q/yQj7Ij9orR6c78RELp6Eh0IJO3nzIgs433nijqavKNeXCdAhbALMVOM4F+cKQ5dVU+eXoOJ2K9D7fPjmnfdBGv/nmm2z77be3Eb+wc0+NRiS4GTj44INtrwq1UQVQXvW/0334iIXTwyAILeicaaaZsltvvTWbZZZZzKngejPAqeAu69tvv8022mij7PDDD7f/MWYaziV/CvrfcToZ6bucBZ0zSoBT8frrr9vGczgVOOC0Iz5vBqRNW8ShIDAyQvvUaKbyqnOne/ERC6dOaLiAczkTQ4cOtRcJ8UgqhkSdfWpC48jWw3//+9+zMccc0/KBo5FH+XVD5nQS+bYIOpcTfvvtt2dbb7119v7779v/4fRhSsJ8sE03m21pnwo5FeBt0RHuWDi9ItXAicBw8Vw8r1l+8MEHmzotAop/vvnmswVps846a/1RNgUMbGjE3KA5nUIjs0x7UGd+2mmn2WZUXFNbaAZhm+KFYjvuuKO1w3Dk0tudk8enQpyGhIYNQ4YBm2CCCezFZaussor932gEIRXcfWG8ePSV7b+vvvrq+pMiyhsGLQyO0ynk9RnnHv3naQ+e+uART67xvWY5FTgstDXa+SWXXGJOBelzPYTvNHKEnO7FHQtnJMKOW2iolWmJa665pr64ks4/b2hSQB50h/bpp59m6623nq16Jx9c465JBi0fHKedkM7m9Zj2xxFdR+9fe+21bPnll7c9X2gD+l4zIH4cljHGGCO76qqrbFpS6zry7d2deiePT4U4A0JqorsjjAu77Z1xxhlNnxaR4SIPTMX87W9/yyaccMKG+104TieArmuqj7Z27bXX2ogBm9Y1u72RHmmzA++VV16ZLbHEEt7WnEHhIxZOn+T9TowO1xiGPf3007NDDz3UjByGplnGRnnAoDJasthii9k6D21VTAC+F4bwmuNUjbyOhoHRQEYNaFOHHXaYOdQ4FYxcNNOpIH6ciummmy674447zKlg+oPr5EuEeXWcPD5i4QwYVAVDJ4OCAcLgMGrBnC//YwzV0TcDxf+b3/wmO+644+rpco285FF+m+X0OE5RZHrDdiVdxmlm11v2p2Bdk6Y++LxZ0H5waOaff36b/mBzPE1/kLby6W3J6Q93LJwBIaMiA8PIBQaQgOH517/+ZY++sQ+FhlKbRei88J4RVsiPN954dieHcQwNn/LtOFWFtkKboVMHdJhdb3faaafs7bfftv/5ThltincEXXTRRdnYY49tTgXXyZuQDfA25fSFOxbOgJFBkcroiEHEubj//vttUeeHH35Yv/tpJjKGM888c/bPf/7TpkiUJsYwNH5uEJ0q0Mjcck1tiHM2hzvyyCPtPHSiU6O2oJuEbbbZxvaNYcqR/JB2vs14O3IGgq+xcAaMjAnHMGAQubthPpY3K84xxxx1w9RMMIYYwZdfftleEc3mPTg0cmowgMKNoVMF1GYEeimnYsiQIfYo9xFHHGGf8b1mORUg55s0/vCHP2TnnHNOfeSEtqt8Ks/h/47TFz5i4QwaddKh6oQG8pNPPsk23XRT2xkQA8UQbjPVLLyrW3PNNW1R6RRTTGH5yY9chKgMbiidZtConYSgnzjGcNlll9mbQocNG1bKaB/tgnZJ+meeeWa23XbbWZrkV6ER3lacgeAjFs6gkXHJGyCcCozT+OOPn91www1mrOjw++rcUyCngnSuv/56ewU7T49goEFGOjTw5MedCqeZ9KZjXJNT8eWXX2Y777yzrRXCqdCIQTMhXZwK1iXdeOONdaeCtHHS1V4bBccZCO5YOIXBQIaGk3OMkhZRsu7h6KOPto5fnzUTjCWGkfearLvuuvbECG9+xJDKWMtAKt8cHacZhDomvaMtcEQnWZPE9CEjBuitRveaCe2S9jn77LNn99xzT7biiivWF2kqrwqgo+MMBp8KcZIQGiIMlKY/MGSXX3559rvf/S77+uuv7X+NMDRL9UgfiH/OOec0w80oRujg6DtCRjV/3XEGi/Qo1G/OcW4Z1aNjP+aYY2yBJjpJp6420Sw0GkHaPPlx3nnn2ciibgKE67+TAh+xcJKAQVIAjU6wYx+vQWe9xQwzzFAfAg6NbmqIm4DBfPbZZ7Oll17atgPHeHONPPC58sox/N9xYpA+6Ry9w9HGqXj66adtW26e/CjTqQCciD333NN28cSpUHsA8un676TCRyycJKhjDtVJ57pT4/XO7HWBk4Gx4/Nmq19ouBdffPHs1FNPzeaZZx67RtoavcjnHXTNDa7TG9KPRrqDMyHd5/OTTjrJdtFkrxc5uM1G6eDMn3zyybaeQ7pP28jjuu6kwB0LpymgVjJSnOvuSHdNvIKZz+nY1fE3EzkYo402mm1Dvs8++1jajKhgdJXX0LCGZXCcgYLeaK0Eevfcc89lv//977M777zTrqF3zV5LAXIqJp988uz888+3R7J96sMpA3csnKT0pU4YUzkTvEgMY8t7CMoYDobQoPMq9lNOOSWbe+656x0Bn4eQVz5z4+v0RiN91wgBOs0oBdNwZY5SoK8EdJrFoRdccEE29dRT151otYNQr13HnZS4Y+E0HamYjB0BI8uqeKZG3njjDTN43E2VQTh6ccghh5iDw7sZSF9GOe9kgBvf7kZOZiOTyTWcBvQa3XniiSeyvffeO7v33nvt81Y4zzvssINNf4wyyigjjVSA67PTLNyxcEoDVSNg0DB0zD3zoqVtt902u+2228wo6jvNJjT0iyyySPbnP//ZnhzBKOuOU7gBdnpD+oouoTPfffed7QB7wgkn2DmduZzpZqMREV7Q95e//MUcC/IlR164PjvNxh0Lp+n0pmJyLjB+bCl87LHH2vWy7u4wsKQlR2KvvfbKDjrooGzMMce0vOHo8J1GhphrlMuNdGcjGed1WP+jO+gw3HXXXbZ256mnnrL/w9GDZkL+SIs2w5NXrKfAWSZv0uEQ112n2bhj4ZSOVA7DhjHkf+6oeEMqb3RkS/CynAsIO4DZZpvNHJw11ljD/g+HkEND7Ia5e5Cs0RHpijptdOOjjz6y93uwbojPytRd0gLSW2+99WxR9IQTTljXW9dRpxX4PhZOqchIcyRgnDmysGz99de3dRfcbWEo+V4ZhlFOBYb4hRdesPeNbLnllvbKak2JyAFSUBmcziaUNUd0BV1glAJ9YXRgoYUWsg4duFamU6G0jjvuOHPMcSpwesgHSF/D4DjNxkcsnJbQSO00JfH9999n+++/f3baaafZdYwkn5WBHB3CRBNNZFM0O+64oxlxtj7mc0JfDk8ZzpCTHulkb04j8meRLzDdwbTZv//9b/u/zFEK8kd6tIlpp53WXnXOpltKn8/CsjhO2bhj4bSUvPphHDGMGES2At91111tagSHg+HdsgidGTbWYgtmHt2D3qZHnM4AnZRcOWeUgv9xKD/99FNbmInTiwMcOqJlQHoaYeN9OGeccUY28cQTm9NDGyEfypPrptMq3LFwWkJfasdnOBgYyldeecVGDHhhEoaSIMPabDDQBBwMjrzvhMdT2XCIPHIdB4Pz0IhzrvK5ca8mfemfQM8Img676KKLbCvu119/3f4vc5QC5OwyDcPUB49JA46unPE8rn9OK3DHwqkkqCVGW8aUrZBZVMn1sg16eJc4ySSTZAcccIA9yqe9L0AjGOQPY+4GvfpIVkKmkCNy1bTHQw89ZPp3xx132P/SybKQ00Cac801l63n4NFo8ijnlzxzdJwq4I6F03J6U0EZU44Y11tvvTXbZZdd7I5RxrRM9Q2nYxZccEHbUXHllVe2/3XXCMobuINRTZAPsgn1h3ONlMG7776bHXXUUdnZZ59t15Ev3ylrxAxCJ5onphip4HFoFjvzmXQuxHXOaTXuWDiVpDeD/+GHH9qOhpdccol9xt0jn5WlxhhtHAcZ+w022MCGx2eddVb7X3PdveFGvzWgH3lHQki/+Bx9+uqrr2xBJJumDRs2zL6DzMt0KJQXHFbWULCDJm8JBpxtPlNZVC7XLacquGPhVJpQPTGydNoYUO4ieXKExXThSEJZhCMmbA3OWyNxeHiSBDD+3E26sa8m0iucBc7VUeOwMkrx8ssv2+dcL3PaA0InZu2117ZdNHnXh0bF0KlQr8i365lTJdyxcCqJjGVePcOOgIWdu+22m72GHcJh47II02RR57777muLPNlWWSMpdBSNDL/K551CWnrTHdA16ZFGl1g/ceSRR2b33Xef/Y9c9Z2yIM8aDRtjjDFs2gOHFTQS1qhcrkdO1XDHwmk7MPgE3WUyZM3Oh998801L7jAhTHeOOeawp0eYJsHYc6cp50IBvDMoD9U1MqLj1sLMxx9/3BYFX3311fZ/OBJVJuEoxXLLLWdTH7PPPnuPUQrhOuNUHXcsnErTl3rqjpJOnQ2Ldt999+yBBx6wz0JDXQYYewWNYCy99NLZgQcemK244or2P50an5M34Jz8c3TSoToNdSfUFWC068QTT8zOO+8867wlF8muLMJ0Rx99dHv6hHfWcI0FmuRX+gKuM0474I6F05ZIbTlilBkmZriYN0seffTRtnkR1/iM75Sp5uoI5NistdZa5mCw9TOoI+NONI93HIOjL7lK7shBUx5s037KKadkZ511lo1wQSum0CAc5VpmmWVsLQWPk5JfgkYqpA+uF0674I6F03aEhlZgoOnQMcb50YvQgJeJHAc6Lc433XRTW+BJ5wEawdD3wDuPeKhDghxOGDp0qL0kjMCCX6DeW+FQIF8CzgOPjrJtPJtdkZ/epj5cL5x2wh0Lpy1ppLZhZ0KnfdJJJ9kK/6+//tqcC90Jlk3o2DC3zwvO6EhmmWUWuxYOxffVeXR7x6LOtTeTxXUCMpZDwePJPDrKplJ6dBR5oCe9xdMMlO9QF1ZaaSXTUR5VVn5CJzNEv+92HXDaA3csnI4CdcZI667v+eefz/bZZx/bXAtadZcKpE2nRx5Z9b/VVlvZUy0zzjijfc5UDh0PhPPq4J1KY2S+kClBizJ5lfk//vEPG6F4//337VqrZQ+kzyPJbK7G7q2AYym5u4ydTsAdC6dt6U91Mdi8VwHoZA499FDrcDDehFaMXpAunQh5g0YOBp/hWITOhXc4PztXodzlqKljZsrjn//8p8n7gw8+sGt8RofeKlMXOjSbbbaZrQGaaqqp6nmS09EbLnun3XDHwukopM7qgOQ8YLzffPNNm8+++OKL7VqVOhyeCNh6663thWuzzTabXdMUSaOOR+Xr1E6nkUxUXo6SmxxHFmUy5YFT8fHHH9s16k2ORytAvzTtMfPMM9sbctdZZx37X6MUkp/K5jidgDsWTkeCWhO466dzwcCrE7r++uuzgw46KHvhhRfsf32nVYQd0KijjpptvvnmtjGSFnmSNwIdZTd3RHISCNQZvPTSS+ZQXHjhhdlnn31m11rtUCAXAnkYZZRRsj333DPbb7/9snHGGcfkjL7lZcf/3ShTpzNxx8LpKKTOMtSCcwLGnoV9vA+CR1NZPPfdd9+Zsdd3WgH5pUOUg0GHtOGGG5qDocdUuUvPOxiNaLdOSnntre65TtmREWWHJ554IjvzzDOzyy67LPv222/tWqtHoMgfQTJk/xJGKeabbz77n1EK8i9dE+0mL8fpD3csnK6CjpmgO95nnnkmO/jgg7ObbrrJ/sfwa3qiVYR54Hz11Ve3NRjsyAg0WT6nI1JHG6JOqp07K2QElDOcMrjzzjuzM844I7vxxhvr61SqIjPqm3xPM800ttEVT/+QbzkUoSzaVS6OMxDcsXA6lrCDzSMHQ48l8vIpOoMhQ4bY/63urMg3d7bkUflnEyVeG4+joacfuDvWd4XKHJY9f14mjfLQF3nZsNnZddddZ0943HvvvXYNquBQqN7JLzLZY4897H0x448/fn3kgu+Eda56KFsOjlMW7lg4XYnUXh03d8VsnMTuh+zMyK6MYafRSuRgCNZe8KjixhtvbPP20Fsn1oiyO7T+TAyfkyecBM7DPShYaHvuuefW18NAVRwKgup91VVXtZeYzTvvvPY/1/UdoXI6TqfjjoXTVTRSdzptOio6NAz/iy++mB1++OHZlVdeaZ/TOfz/7Z3JaxRBG8brbnCJ4sENVARPSgTFeNCgBwU1uOJyEFQIHvTun6DgTW9uCBFRogGVqCAuiAt6SFwOggshgidFRRGPH7/68oyVdhY/v06mM/P8oOmequqZ6kpq3mfeqnqL++rdVTCoIKPKkkUmeu7duzfMnz8/pvEsHNSZZym6IUvbXrx48SKKiQsXLsTlwcCz0/6pwKoXiFAJCjacw9O1devW+JpYJNQ1FRSCvwXPYHFhGh0LC9NU6Iu93L+9jLKMHOP4CAwmCkJRjJtEgwQGsTAwbF1dXaG9vT2mUc90bL+aMcvb0FVrY1AbclZbU9ebN2+GM2fOhL6+vmigoUiCgrqozQlyRXh2JtdOmDAhCg21c7n2VHuUyzOm0bCwMGYYjBdf/JwxICxPZYfJ06dPh6NHj4ahoaFYLjUw9YS6IjLSujDBc9++fWHjxo1RcABGW2U5j4VxS42ovmI4U1faT7/oCWjV09MTzp07FwYGBmIaUEbio95QVwkbVusg4IjmOnv27JhWbtjDmGbGwsI0JbX+7cmXwcD1zT4TzL84ceJEaVfM1ODUk3ICY8GCBXGYhGPevHkxTYIJo11JXJCuttF1tmw2vxxpHp/JdTrcwQZxiIkrV66MiD9BOR31RkJBf2O8QgRYU3wRhWCnXKX6ZtvOmGbAwsKYBLpDagx4jWHEgAABmY4cORK6u7ujwZGR1ph7vckaQ7wWnZ2dMWw43gzlZ70YWUjTV0M2X21U7auDPNpEhhcIsX3t2rUYzEo7z4IERRFEGvBs1El/046OjrjtPXEp4G+HmIxpViwsjBmGrlDJYJKGoVH0zocPH8bgR8wHgKxBrzdZ4whLly6Ne1Xwy3vWrFkxjedCOElgyFCqLSqRzVebyWsiIUZ70Fas7mDJKCs9gHv5TPJ1b71RnfQMbW1t4fDhw2H79u0xT2KMdoVsG6TXxjQzFhbGJMhYpN0ifS1DKMNJYC0ExqNHj+Jr/frWUW+oe9aAT506NcbCYJhk1apVIyZQUl73/A28p4Y6JLpgcHAw9Pb2xsiYT58+HU4tnncCeN5UhLEZHBMz8fIQm4K6pl6rLPr/4GyMsbAwpiZZo5EaRgwSRufixYvh2LFjob+/P6ZjhGRwi4K8EvpFDoSbJh4Gm2NpySpgZCnLkRUZEimcydMveMKk37lzJ4qJGzduxNeg99B9RUH1UnuwfJd9PVi+O2nSpFhf2kHCi/LGmNpYWBhTBboHBqVSN8HwYFgxUKwgYUIikzxfv34d88krmkGlrjKoqhdLJteuXRt27doVz1pRQj7laAMOrrlXYgIeP34cV3Yw1PHu3bvh1P+KK56do0hkBcWMGTPCwYMHY9Cx1tbWmKZ4FHruSlTLM6ZZsbAw5h+g28iocJ3+suWXOhMUERgytEU1shhYnkNGFlhFsmnTprgJGvMyKJOFSaxMxLx8+fKIoQ7eKzXaRYK6IRY05DFz5swYh2L//v0xLgWQpzZJ/766NsbUxsLCmP8RGZq06ygt9WB8/fo1nDp1Ku7C+f79+1iuiB4MIS9EKgqWL18eJy8iNJhvwJwSlog+ePAg7goLPDf3cl8Rn4v6pWIHQYF3gmP69OkxzREzjckPCwtj/gEZmnLdhzTEgyb7ffv2rSQw5MHAiKlc0cgaYmhpaYkemS9fvgynFPsZQJ4HPcecOXOimMh6KPS8ldDfmbMxpjYWFsaMEvoFL4GBB4MhkuPHj4c3b97EtPFmnGWAi1pfyNaRoR12hWWVBytigPkwCCWJBYsGY/LDwsKYHKjUjTBYGDgMs+ZgfP/+PW6whcB49epVTMsa8KIhw1vkr4usSGODMATFjh07wuTJk2OaomVCLTFhsWHMv2FhYcwoQvdKjXI6yfPXr19xB1UExrNnz2IaAoNDEwxNbRAUqSBbsWJFOHToUJwXwt4eUClaZvr3Mcbkg4WFMaOEjFa5LpZO8uSaSZHsQ3L79u3hEn8aTPMb2pW2U/vQVuvWrYseCpbLkke7p/t5VMPiwpj8sLAwZgxJuxvXuO31Sxru3bsXBQZLOTGKUNSlqmONxARneXQIZLVly5Zw4MCBsGzZspimoae0XYFr2jxNM8bkj4WFMXVGogGDhzGE58+fh5MnT8Yolp8/f45p+tXdjAKDdpEQA6JkEpKcCZns5AqIDfIRYhIPqYiwqDBmbLCwMGYMkXGr1O3k2tcEww8fPsSVJGfPng1v376NadyfDgM0KuWeE69EV1dX9FJMmTIlpjF/gnIc1cSD2r1SvjEmHywsjCkAqcHjWr/M5cEgmichs/FiEJxKkE/ZRurGCATaQoKCcOPr16+P8SdWr15dEl2akEl5Y0xxsLAwps5IVJTriogGDGy6c+j9+/ejwLh69WpcugoyrhIk4w2en2dIvRNz586N27xzLFy4MKbxfAx5SFzU8j7UyjfG5I+FhTEFJSs4ZFBlLAmyRTyM7u7uUsAtoAwGuuhdW2KCsyZj8hqvxJ49e0JnZ2ecnAnKlwdHWDgYUzwsLIwpIKmo0FnXGFmu5cXAa8E25czDYLlqaqShaF4MniHrnWAy5rZt28Lu3bvDkiVLhlN/D3eAnscYU2wsLIwpILW6JfkciAYF3IL+/v5w/vz5GHhraGhoOPXPVRX1IFsHhFFHR0dc3bFhw4bSZEwEB2UoX8kjkYouY0yxsLAwZpxDF8ZLgSHWr3o2CyMWBsMkd+/eLXkxynkLRhM+i89MP4/loeyYSqjtRYsWDaeO3BDMgsGY8YuFhTHjBLoqBrdal9Wv/XSy58DAQPRgXLp0qbRkFUbLi1FOTLS2tsaImDt37gxr1qyJKz2AoQ6wd8KYxsHCwpgGINuNeY1hT70YP378iHMwGCq5detWaUUJBpsy3POvIoP7OfhM1YVJpOzbgZhguSjblos09gRIPOjaGDN+sbAwpkFBJGCkOTPMgBdDRntwcDDGxcCL8eTJk5KgkMjgda2vhkplFy9eHDZv3hw3AeNaICZ0D2fVBbg/fW2MGb9YWBjTAMgwV+vO5ElAKA4EsLNqT09P6O3tHbFsVR4FCQcZfn2O3guIOcEETFZ2tLe3lyaUUgYvRjkxkZLWvVIZY8z4wMLCmCaDLs+BwU/jYvz8+TNG9URk9PX1hY8fP8b0SjC0wbwJPBMrV64MLS0twzkjhzosFIxpLiwsjGlQ/rZra8VIumz106dPcT7G9evXw8uXL+NGaIiEadOmhba2tuidYKmolojyWRrqqDYRM8WCw5jGxMLCmCaFrp8ad15r2CMdKkF4MNGTshMnTowCQ0iUSEzoPbPvbYxpHiwsjGlCUgEgJARIk8DgSFeWaM4EZTXMkb6PrtOzMaa5sLAwpklJBUA1svm1xIJFhTHNjYWFMcYYY3LDwsIY8wfyONT6erBXwhiTxcLCGGOMMbnxe3q3McYYY8z/iYWFMcYYY3LDwsIYY4wxuWFhYYwxxpjcsLAwxhhjTG5YWBhjjDEmNywsjDHGGJMbFhbGGGOMyQ0LC2OMMcbkhoWFMcYYY3LDwsIYY4wxuWFhYYwxxpicCOE/abl6uUHjnKEAAAAASUVORK5CYII=;" vertex="1" parent="1">
          <mxGeometry x="245" y="379" width="89.48" height="93" as="geometry" />
        </mxCell>
        <mxCell id="B1652K9h7U0t8Wv4ZY-6-4" value="&lt;b&gt;&lt;font style=&quot;font-size: 15px;&quot; color=&quot;#ffffff&quot;&gt;Defensive Agent&lt;/font&gt;&lt;/b&gt;" style="text;strokeColor=none;align=center;fillColor=none;html=1;verticalAlign=middle;whiteSpace=wrap;rounded=0;" vertex="1" parent="1">
          <mxGeometry x="259.74" y="472" width="60" height="30" as="geometry" />
        </mxCell>
      </root>
    </mxGraphModel>
  </diagram>
</mxfile>
